<?xml version="1.0" encoding="UTF-8" standalone="no"?>
<!-- Created with Inkscape (http://www.inkscape.org/) -->

<svg
   version="1.1"
   id="svg3619"
   width="1200"
   height="1200"
   viewBox="0 0 1200 1200"
   sodipodi:docname="bash.svg"
   inkscape:version="1.2.1 (9c6d41e410, 2022-07-14)"
   xmlns:inkscape="http://www.inkscape.org/namespaces/inkscape"
   xmlns:sodipodi="http://sodipodi.sourceforge.net/DTD/sodipodi-0.dtd"
   xmlns="http://www.w3.org/2000/svg"
   xmlns:svg="http://www.w3.org/2000/svg">
  <defs
     id="defs3623" />
  <sodipodi:namedview
     id="namedview3621"
     pagecolor="#505050"
     bordercolor="#eeeeee"
     borderopacity="1"
     inkscape:showpageshadow="0"
     inkscape:pageopacity="0"
     inkscape:pagecheckerboard="0"
     inkscape:deskcolor="#505050"
     showgrid="false"
     inkscape:zoom="0.51029539"
     inkscape:cx="431.12284"
     inkscape:cy="644.72461"
     inkscape:window-width="1920"
     inkscape:window-height="1043"
     inkscape:window-x="0"
     inkscape:window-y="0"
     inkscape:window-maximized="1"
     inkscape:current-layer="g3625" />
  <g
     inkscape:groupmode="layer"
     inkscape:label="Image"
     id="g3625">
    <path
       style="fill:#4e4b44;fill-opacity:1"
       d="m 563,1197.5221 c -18.20165,-5.1311 -20.76474,-6.4548 -76.42238,-39.469 C 461.78493,1143.3469 374.9,1091.8127 293.5,1043.5326 212.1,995.25249 142.35,953.48381 138.5,950.7133 122.95036,939.5236 111.29677,927.2437 100.54791,910.72155 90.345096,895.03873 83.76463,878.86474 78.808168,857.28792 L 76.559761,847.5 76.219034,610.5 c -0.251919,-175.22727 -0.03772,-239.86709 0.82182,-248 3.03114,-28.68058 14.48477,-57.00609 31.830656,-78.7191 7.2908,-9.12638 20.62174,-21.91187 29.12849,-27.93664 10.03929,-7.11018 393.44496,-234.642328 402.5,-238.863686 19.21793,-8.9591831 38.96508,-13.2147305 61,-13.1456099 21.77461,0.068304 40.47588,4.205763 59,13.0531309 5.5,2.626874 54.325,31.114919 108.5,63.306768 54.175,32.191847 141.475,84.053467 194,115.248027 52.525,31.19457 98.875,59.23784 103,62.31838 28.25,21.097 49.2031,55.05549 56.6998,91.89272 1.7046,8.37616 1.8002,21.83233 1.8002,253.34601 0,232.60616 -0.089,244.93605 -1.8223,253.46372 -1.0022,4.93004 -3.1864,13.25504 -4.8536,18.5 -10.1148,31.82061 -33.1253,62.16883 -60.3241,79.56066 -4.2616,2.72503 -111.13232,66.20602 -335,198.98932 -56.37942,33.4405 -63.05734,37.0429 -78.42414,42.3058 l -10.57586,3.622 -31,0.2384 c -30.05099,0.2311 -31.26021,0.165 -39.5,-2.1578 z m 55.83139,-22.1136 c 2.07292,-0.6085 1.67554,-0.9991 -3.58433,-3.5236 -11.96325,-5.7418 -21.14209,-18.4935 -24.92805,-34.6313 C 588.58749,1129.8729 588.5,1118.1974 588.5,894.5 c 0,-249.90467 -0.19584,-239.28411 4.6928,-254.5 7.90845,-24.61505 28.51362,-47.90872 59.46197,-67.22041 C 732.86673,522.72753 1025.4734,342.59487 1031,339.86511 c 10.88,-5.37401 18.6969,-7.14373 29.5,-6.67877 7.4347,0.31999 10.131,0.91695 15.5029,3.43232 7.1894,3.36643 14.5926,10.12855 18.6285,17.01539 1.4364,2.45096 2.7854,4.28247 2.9979,4.07001 0.7465,-0.74654 -4.4652,-19.461 -7.5996,-27.28915 -6.0092,-15.0077 -14.2297,-27.59206 -25.9661,-39.75044 -9.9698,-10.32819 -16.465,-15.00412 -41.5636,-29.92174 C 835.0566,149.33377 657.60384,44.327953 652.27671,41.666948 636.81518,33.943609 619.2451,30 600.29662,30 578.29234,30 559.49346,35.277871 539,47.209305 495.14619,72.741293 158.12042,273.22061 153,276.82087 c -9.33275,6.56203 -22.68568,20.38611 -29.18239,30.21205 -7.39175,11.17966 -11.20318,18.965 -15.34659,31.34738 -6.95667,20.78972 -6.56814,4.03997 -6.25416,269.6197 l 0.28314,239.5 3.24392,12 c 3.95528,14.63147 12.59871,32.69568 21.07079,44.03659 6.95779,9.31384 18.01097,20.12006 27.2336,26.62513 3.54843,2.50283 51.45169,31.23294 106.45169,63.84469 55,32.61169 140.725,83.46759 190.5,113.01299 49.775,29.5454 93.65,55.2963 97.5,57.2241 12.3389,6.1787 26.16966,10.3208 40.5,12.1294 4.76204,0.6009 26.94126,-0.116 29.83139,-0.9644 z M 743.35031,999.32188 c 5.58233,-3.12297 11.61219,-7.12797 13.39969,-8.9 L 760,987.2 l 0.003,-18.35 0.003,-18.35 7.64516,-7.5 c 22.95326,-22.51744 36.58033,-51.94034 37.9779,-82 1.43907,-30.95222 -8.76533,-48.61386 -31.46962,-54.46722 -3.48769,-0.89916 -13.16269,-2.04317 -21.5,-2.54225 -16.92203,-1.01297 -21.27197,-1.95275 -25.49799,-5.50871 -4.27996,-3.60136 -5.42632,-7.30665 -5.01817,-16.21995 0.29255,-6.38889 0.96558,-9.04054 3.7088,-14.61226 4.19083,-8.51192 11.86558,-16.20637 20.86464,-20.9182 10.68089,-5.59242 17.08554,-7.06661 28.17986,-6.48631 13.29619,0.69548 13.43209,0.53823 19.05934,-22.05486 4.81965,-19.35059 4.72915,-21.40336 -0.99398,-22.54799 -7.81403,-1.56281 -24.01909,0.36462 -32.21125,3.8312 C 759.12528,700.16096 759,699.06552 759,684.17209 759,666.97322 758.25811,663 755.04671,663 c -1.10153,0 -6.95365,3.01404 -13.0047,6.69787 -8.10663,4.93524 -11.40194,7.54085 -12.52196,9.90113 C 728.34456,682.07615 728,686.6694 728,699.86239 v 17.06014 l -8.88531,8.96179 C 697.73574,747.4473 685.48938,774.41719 684.3254,802.5 c -0.77694,18.7447 2.03602,29.35988 10.16436,38.35698 7.64213,8.45893 18.14336,11.84408 40.60511,13.08937 12.59425,0.69823 16.59122,1.2932 20.77308,3.09219 8.72936,3.75527 12.11515,9.64825 12.12647,21.10612 0.0268,27.17029 -29.34832,52.55546 -58.46336,50.52235 -4.41708,-0.30845 -9.24169,-0.85703 -10.72135,-1.21907 -3.44436,-0.84277 -7.19576,2.67417 -8.71928,8.17433 -3.70803,13.38662 -7.32269,31.31618 -6.76302,33.5461 0.95187,3.79255 7.14825,5.21876 19.92604,4.58635 7.095,-0.35116 12.63023,-1.28148 17.99655,-3.02472 l 7.75,-2.51758 v 16.82236 c 0,13.95972 0.26741,17.08982 1.57143,18.39382 0.86428,0.8643 1.80942,1.5714 2.1003,1.5714 0.29089,0 5.09624,-2.5552 10.67858,-5.67812 z m 163.86002,-66.95941 c 36.85561,-22.31764 49.17863,-30.25531 49.89477,-32.13889 0.52306,-1.37576 0.82589,-8.39582 0.67296,-15.60013 -0.24094,-11.34996 -0.50289,-13.14188 -1.96207,-13.42172 -2.1537,-0.41304 -95.3994,55.04868 -99.06599,58.92359 -2.71614,2.87045 -2.75,3.06979 -2.75,16.19046 0,12.84528 0.60335,15.68422 3.33329,15.68422 0.51331,0 22.95798,-13.33689 49.87704,-29.63753 z"
       id="path3746" />
  </g>
</svg>
