<?xml version="1.0" encoding="UTF-8" standalone="no"?>
<svg
   version="1.1"
   id="svg2"
   width="100"
   height="97.319984"
   viewBox="0 0 99.999999 97.319982"
   sodipodi:docname="github.svg"
   inkscape:version="1.2.1 (9c6d41e410, 2022-07-14)"
   xmlns:inkscape="http://www.inkscape.org/namespaces/inkscape"
   xmlns:sodipodi="http://sodipodi.sourceforge.net/DTD/sodipodi-0.dtd"
   xmlns="http://www.w3.org/2000/svg"
   xmlns:svg="http://www.w3.org/2000/svg"
   xmlns:rdf="http://www.w3.org/1999/02/22-rdf-syntax-ns#"
   xmlns:cc="http://creativecommons.org/ns#"
   xmlns:dc="http://purl.org/dc/elements/1.1/">
  <metadata
     id="metadata8">
    <rdf:RDF>
      <cc:Work
         rdf:about="">
        <dc:format>image/svg+xml</dc:format>
        <dc:type
           rdf:resource="http://purl.org/dc/dcmitype/StillImage" />
        <dc:title />
      </cc:Work>
    </rdf:RDF>
  </metadata>
  <defs
     id="defs6" />
  <sodipodi:namedview
     pagecolor="#ffffff"
     bordercolor="#666666"
     borderopacity="1"
     objecttolerance="10"
     gridtolerance="10"
     guidetolerance="10"
     inkscape:pageopacity="0"
     inkscape:pageshadow="2"
     inkscape:window-width="1920"
     inkscape:window-height="1043"
     id="namedview4"
     showgrid="false"
     fit-margin-top="0"
     fit-margin-left="0"
     fit-margin-right="0"
     fit-margin-bottom="0"
     inkscape:pagecheckerboard="true"
     inkscape:zoom="3.675"
     inkscape:cx="59.727892"
     inkscape:cy="63.401361"
     inkscape:window-x="0"
     inkscape:window-y="0"
     inkscape:window-maximized="1"
     inkscape:current-layer="g10"
     inkscape:document-rotation="0"
     inkscape:showpageshadow="0"
     inkscape:deskcolor="#d1d1d1" />
  <g
     inkscape:groupmode="layer"
     inkscape:label="Image"
     id="g10"
     transform="translate(-37.04322,-132.74522)">
    <path
       style="fill:#4e4b44;fill-opacity:1;stroke-width:0.0769384"
       d="m 70.998249,229.97686 c -2.657175,-0.959 -4.309981,-1.65565 -6.367182,-2.68375 -6.913766,-3.45519 -12.973529,-8.51787 -17.632724,-14.7314 -7.885791,-10.51654 -11.255658,-23.5187 -9.501743,-36.66114 1.185106,-8.88025 4.889539,-17.47105 10.566731,-24.50488 10.775142,-13.35 27.443787,-20.22496 44.477667,-18.34475 15.684032,1.73122 29.407262,10.59199 37.586972,24.26901 0.75703,1.2658 2.33547,4.37099 2.90193,5.70881 3.96186,9.35689 5.01527,19.51685 3.04963,29.41356 -3.2786,16.50735 -14.82571,30.35118 -30.53594,36.60955 -2.08018,0.82867 -2.68223,1.01333 -3.30376,1.01333 -1.51945,0 -2.805697,-1.06699 -3.478086,-2.88519 -0.134434,-0.36353 -0.144785,-0.88851 -0.188104,-9.54036 -0.03279,-6.54828 -0.0723,-9.33096 -0.138741,-9.77118 -0.144347,-0.95637 -0.378387,-1.79417 -0.67352,-2.41103 -0.148549,-0.31048 -0.258681,-0.57388 -0.244737,-0.58532 0.01394,-0.0114 0.354263,-0.0793 0.756266,-0.15073 1.164429,-0.20696 3.701172,-0.85232 5.039462,-1.28205 6.66736,-2.14095 11.56479,-5.57539 14.7489,-10.34304 1.62934,-2.43967 2.88124,-5.75792 3.3236,-8.80945 0.59021,-4.07158 0.2109,-8.8433 -1.00573,-12.65198 -1.01155,-3.16666 -2.82067,-6.33725 -4.76832,-8.35676 l -0.3383,-0.35078 0.3032,-0.64942 c 0.37832,-0.81031 0.64279,-1.7187 0.8675,-2.97965 0.23733,-1.33171 0.25726,-4.36215 0.0373,-5.67136 -0.30605,-1.82166 -0.98045,-3.62209 -1.85275,-4.94615 l -0.36559,-0.55494 -0.43545,6e-5 c -1.28248,1.6e-4 -3.42741,0.32568 -4.88527,0.74132 -3.23134,0.92127 -6.59264,2.88798 -8.89349,5.20362 l -0.648487,0.65265 -0.620997,-0.20963 c -2.016063,-0.68056 -5.169282,-1.23692 -8.314835,-1.46709 -1.479216,-0.10823 -5.463313,-0.10804 -6.809047,3.1e-4 -3.293912,0.26527 -6.181721,0.79514 -8.251549,1.51402 l -0.750056,0.26051 -0.712798,-0.7128 c -2.930605,-2.93057 -6.992542,-5.05499 -10.905086,-5.70339 -0.914553,-0.15156 -2.184628,-0.27958 -2.7737,-0.27958 h -0.449244 l -0.309506,0.43222 c -0.418899,0.58499 -1.01803,1.77142 -1.300047,2.57443 -0.96104,2.73644 -1.040322,6.39871 -0.20346,9.39843 0.176259,0.63181 0.79292,2.03297 1.046911,2.37878 0.07947,0.10819 0.0073,0.22262 -0.485291,0.76938 -4.235184,4.70101 -6.320428,10.7037 -6.116475,17.6072 0.08665,2.93304 0.563245,5.39912 1.515564,7.84214 2.847883,7.30575 9.499587,12.51493 19.115708,14.97019 0.719374,0.18368 1.775353,0.42539 2.346621,0.53713 0.571268,0.11175 1.080517,0.21672 1.131664,0.23327 0.0646,0.0209 0.02367,0.18299 -0.134065,0.53087 -0.559438,1.23381 -0.829416,2.88852 -0.941447,5.77018 l -0.01768,0.45483 -0.538569,0.18187 c -2.273969,0.76791 -5.616943,0.79202 -8.146155,0.0588 -2.867365,-0.83129 -4.807092,-2.26083 -6.467543,-4.76643 -1.76754,-2.6672 -4.098437,-4.34205 -6.7403,-4.84321 -1.100395,-0.20874 -2.206959,-0.13206 -2.859787,0.19819 -0.888121,0.44926 -0.454501,1.3153 1.286145,2.56872 1.951582,1.40531 3.698474,3.84856 5.000422,6.99373 0.488995,1.18129 1.264905,2.32801 2.328421,3.44117 2.269421,2.37538 5.348384,3.85055 8.982096,4.30346 0.914133,0.11394 3.332717,0.11273 4.347019,-0.002 0.801399,-0.0908 2.449783,-0.35544 2.716143,-0.4361 0.132555,-0.0401 0.137645,0.12462 0.114772,3.71522 l -0.02393,3.75722 -0.197754,0.5093 c -0.448057,1.15393 -1.209104,2.04076 -2.12257,2.47337 -0.455734,0.21584 -0.616628,0.25091 -1.217572,0.26544 -0.380845,0.009 -0.796312,-0.0207 -0.92326,-0.0666 z"
       id="path837" />
  </g>
</svg>
