<?xml version="1.0" encoding="UTF-8" standalone="no"?>
<svg
   version="1.1"
   id="svg2"
   width="100"
   height="100"
   viewBox="0 0 100 100"
   sodipodi:docname="instagram.svg"
   inkscape:version="1.2.1 (9c6d41e410, 2022-07-14)"
   xmlns:inkscape="http://www.inkscape.org/namespaces/inkscape"
   xmlns:sodipodi="http://sodipodi.sourceforge.net/DTD/sodipodi-0.dtd"
   xmlns="http://www.w3.org/2000/svg"
   xmlns:svg="http://www.w3.org/2000/svg"
   xmlns:rdf="http://www.w3.org/1999/02/22-rdf-syntax-ns#"
   xmlns:cc="http://creativecommons.org/ns#"
   xmlns:dc="http://purl.org/dc/elements/1.1/">
  <metadata
     id="metadata8">
    <rdf:RDF>
      <cc:Work
         rdf:about="">
        <dc:format>image/svg+xml</dc:format>
        <dc:type
           rdf:resource="http://purl.org/dc/dcmitype/StillImage" />
        <dc:title />
      </cc:Work>
    </rdf:RDF>
  </metadata>
  <defs
     id="defs6" />
  <sodipodi:namedview
     pagecolor="#ffffff"
     bordercolor="#666666"
     borderopacity="1"
     objecttolerance="10"
     gridtolerance="10"
     guidetolerance="10"
     inkscape:pageopacity="0"
     inkscape:pageshadow="2"
     inkscape:window-width="1920"
     inkscape:window-height="1011"
     id="namedview4"
     showgrid="false"
     fit-margin-top="0"
     fit-margin-left="0"
     fit-margin-right="0"
     fit-margin-bottom="0"
     inkscape:pagecheckerboard="true"
     inkscape:zoom="1.9140625"
     inkscape:cx="213.42041"
     inkscape:cy="175.54286"
     inkscape:window-x="1920"
     inkscape:window-y="32"
     inkscape:window-maximized="1"
     inkscape:current-layer="g10"
     inkscape:document-rotation="0"
     inkscape:showpageshadow="0"
     inkscape:deskcolor="#d1d1d1" />
  <g
     inkscape:groupmode="layer"
     inkscape:label="Image"
     id="g10">
    <path
       style="fill:#4e4b44;fill-opacity:1;stroke-width:0.0878956"
       d="M 23.45469,99.93778 C 18.139962,99.724038 14.170695,98.736392 10.846122,96.80047 10.151226,96.395832 9.2214138,95.780027 8.7651248,95.422252 8.6369477,95.321755 8.402595,95.140626 8.2443404,95.019751 8.0860859,94.898876 7.9141317,94.760085 7.8622183,94.711321 7.8103053,94.662557 7.4797524,94.368782 7.1276549,94.05848 6.498785,93.504263 5.2350105,92.116376 4.5924396,91.274301 3.3963443,89.706833 2.108233,87.248525 1.4650339,85.305763 0.97474621,83.824869 0.4885371,81.602047 0.30432637,79.999312 -0.00224213,77.331994 -0.02140883,75.274603 0.01184322,48.603593 0.04161653,24.722785 0.05794534,22.232179 0.19339183,20.912135 0.27524983,20.114357 0.36527086,19.323172 0.39343854,19.153947 0.67562307,17.45864 1.225851,15.272743 1.6658157,14.099157 2.4394974,12.035395 3.6814697,9.8263587 4.9031361,8.3410918 6.9947412,5.7981777 9.1102365,4.074232 11.942206,2.6048598 c 2.140708,-1.1107104 5.20442,-1.98093749 8.129044,-2.30900077 2.645986,-0.29680765108 4.905883,-0.31727392 31.373716,-0.28412768 23.809511,0.02981708 26.320437,0.04629542 27.63875,0.18138234 2.657312,0.27229398 4.981941,0.77883723 6.854761,1.49367221 5.134419,1.9597502 9.088931,5.541569 11.520122,10.4344101 1.484126,2.986831 2.211679,6.197133 2.450541,10.812855 0.12119,2.341948 0.12113,51.935567 -7e-5,54.196139 -0.285263,5.320724 -1.2329,8.87746 -3.271944,12.280467 -1.477544,2.465902 -3.485348,4.667049 -5.697467,6.246085 -3.453701,2.465287 -6.916942,3.651687 -12.295351,4.212011 -1.178244,0.122749 -52.264991,0.186637 -55.189618,0.06903 z M 61.111937,87.01873 c 6.137456,-0.155142 8.677142,-0.447247 11.556425,-1.32919 3.245296,-0.994045 5.759444,-2.462808 8.046972,-4.701029 2.335859,-2.285512 3.955974,-5.00448 4.953795,-8.313734 0.460535,-1.527376 0.669095,-2.562141 0.927002,-4.599254 0.375262,-2.96415 0.440532,-5.685173 0.437562,-18.241199 -0.0031,-12.994582 -0.05551,-14.946379 -0.491136,-18.285153 -0.229379,-1.757981 -0.437035,-2.756351 -0.876319,-4.213232 -1.187395,-3.937941 -3.261911,-7.045498 -6.422818,-9.621172 -2.690072,-2.192011 -6.373603,-3.672022 -10.526618,-4.229502 -1.787287,-0.239916 -1.86762,-0.246578 -4.880536,-0.404729 -3.179859,-0.166914 -24.379471,-0.171378 -27.726632,-0.0058 -1.280874,0.06335 -2.447501,0.13082 -2.592506,0.14994 -0.145004,0.01912 -0.520698,0.05724 -0.834875,0.08471 -0.895553,0.07831 -3.31541,0.466824 -4.042551,0.649047 -3.082546,0.772493 -6.008999,2.175879 -7.989656,3.831453 -3.160189,2.641508 -5.047097,5.479281 -6.284718,9.451759 -0.618948,1.986684 -0.991142,4.15908 -1.189849,6.944842 -0.195314,2.738199 -0.286976,10.073014 -0.237292,18.988429 0.06113,10.968828 0.125437,12.687634 0.596993,15.955554 0.829181,5.7463 3.388195,10.273523 7.634589,13.506566 3.249226,2.473837 7.445698,3.846036 12.874648,4.209866 0.821693,0.05507 2.700161,0.129966 4.174374,0.166448 4.048174,0.100164 19.005121,0.103707 22.893146,0.0055 z M 38.658199,80.458698 c -2.624245,-0.08691 -5.0703,-0.228319 -5.965315,-0.344862 C 28.42795,79.558488 25.797618,78.360798 23.495303,75.92583 21.085264,73.37693 19.990331,70.176026 19.66725,64.734966 19.520419,62.262185 19.456109,41.58444 19.58359,37.834692 c 0.121523,-3.5746 0.197291,-4.601589 0.448939,-6.085121 0.624511,-3.681666 1.767268,-6.048678 3.919672,-8.118896 1.198387,-1.152627 2.29176,-1.882632 3.622956,-2.418915 0.416329,-0.167722 0.821699,-0.340852 0.900823,-0.384736 0.278173,-0.154282 1.847969,-0.542951 3.042689,-0.753347 2.657498,-0.467998 5.878331,-0.567111 18.447017,-0.567661 9.449248,-4.13e-4 13.990581,0.07361 16.223775,0.264445 1.735515,0.148306 4.773892,0.751235 5.324405,1.056563 0.07912,0.04388 0.491052,0.21973 0.915397,0.39077 0.769896,0.310323 1.89056,0.956272 2.563848,1.477797 1.636605,1.267704 3.15117,3.226527 3.826006,4.948264 0.150173,0.383142 0.327344,0.815301 0.393712,0.960351 0.174113,0.380532 0.445127,1.492916 0.696077,2.857055 0.470169,2.555809 0.580964,6.092926 0.580737,18.539835 -2.75e-4,12.86639 -0.09965,15.882532 -0.616017,18.689792 -0.305963,1.663388 -0.462857,2.220935 -0.992444,3.526795 -0.794054,1.957988 -2.102776,3.67698 -3.883956,5.101531 -1.398306,1.118337 -3.529482,2.028345 -5.840309,2.493799 -2.897036,0.58353 -4.08152,0.626905 -17.79983,0.651803 -6.525205,0.01184 -12.239704,0.0091 -12.698885,-0.0061 z m 13.555709,-11.59111 c 2.706514,-0.316699 5.151862,-1.139983 7.473609,-2.516168 2.515047,-1.49076 4.969605,-3.901655 6.478813,-6.363561 3.425405,-5.58772 3.738796,-12.616932 0.822141,-18.440227 -1.022047,-2.040584 -2.20642,-3.650737 -3.850034,-5.234114 -1.48318,-1.428822 -2.860529,-2.399086 -4.722438,-3.326691 -5.726298,-2.852845 -12.756391,-2.57118 -18.197297,0.729084 -1.886398,1.144223 -3.939895,2.972605 -5.271521,4.69363 -5.40186,6.981485 -5.212784,16.956825 0.450037,23.743361 1.226691,1.470112 2.83051,2.891444 4.403442,3.902409 1.623911,1.043731 4.433798,2.196753 6.21748,2.551308 1.959833,0.389572 4.266434,0.486727 6.195768,0.260969 z m -3.123746,-6.477042 c -3.029493,-0.187688 -5.692963,-1.408477 -7.881729,-3.612554 -1.234817,-1.243454 -2.012381,-2.390777 -2.670187,-3.939949 -0.662754,-1.560827 -0.941987,-2.991961 -0.941987,-4.8279 0,-0.604377 0.04181,-1.395562 0.0929,-1.758188 0.492705,-3.496761 2.450887,-6.607774 5.407058,-8.590324 1.196023,-0.80211 2.639627,-1.43628 3.990138,-1.752854 1.149585,-0.269474 3.402423,-0.373751 4.606385,-0.213215 4.285349,0.571411 7.98537,3.382119 9.718495,7.38262 0.670973,1.548779 0.989427,3.136168 0.989427,4.931961 0,3.401552 -1.242782,6.416196 -3.62431,8.791571 -2.594746,2.588041 -5.924808,3.821863 -9.68619,3.588832 z M 70.802563,34.493464 c 2.483715,-0.585772 3.896363,-3.124779 3.140647,-5.644808 -0.310098,-1.034062 -1.370968,-2.20331 -2.401407,-2.646733 -1.456041,-0.62657 -3.30733,-0.387208 -4.490101,0.580549 -0.621815,0.508777 -0.863153,0.805429 -1.195979,1.470097 -0.582556,1.163386 -0.61716,2.644366 -0.08877,3.798897 0.879609,1.921929 2.960989,2.931286 5.035607,2.441998 z"
       id="path851" />
  </g>
</svg>
