<?xml version="1.0" encoding="UTF-8" standalone="no"?>
<svg
   xmlns:dc="http://purl.org/dc/elements/1.1/"
   xmlns:cc="http://creativecommons.org/ns#"
   xmlns:rdf="http://www.w3.org/1999/02/22-rdf-syntax-ns#"
   xmlns:svg="http://www.w3.org/2000/svg"
   xmlns="http://www.w3.org/2000/svg"
   xmlns:sodipodi="http://sodipodi.sourceforge.net/DTD/sodipodi-0.dtd"
   xmlns:inkscape="http://www.inkscape.org/namespaces/inkscape"
   width="100mm"
   height="75.583977mm"
   viewBox="0 0 100 75.583977"
   version="1.1"
   id="svg8"
   inkscape:version="1.0.2 (e86c870879, 2021-01-15, custom)"
   sodipodi:docname="nuxt.svg">
  <defs
     id="defs2" />
  <sodipodi:namedview
     id="base"
     pagecolor="#ffffff"
     bordercolor="#666666"
     borderopacity="1.0"
     inkscape:pageopacity="0.0"
     inkscape:pageshadow="2"
     inkscape:zoom="0.7"
     inkscape:cx="373.68369"
     inkscape:cy="3.8734822"
     inkscape:document-units="mm"
     inkscape:current-layer="layer1"
     inkscape:document-rotation="0"
     showgrid="false"
     inkscape:pagecheckerboard="true"
     fit-margin-top="0"
     fit-margin-left="0"
     fit-margin-right="0"
     fit-margin-bottom="0"
     inkscape:window-width="1920"
     inkscape:window-height="1001"
     inkscape:window-x="-9"
     inkscape:window-y="-9"
     inkscape:window-maximized="1" />
  <metadata
     id="metadata5">
    <rdf:RDF>
      <cc:Work
         rdf:about="">
        <dc:format>image/svg+xml</dc:format>
        <dc:type
           rdf:resource="http://purl.org/dc/dcmitype/StillImage" />
        <dc:title />
      </cc:Work>
    </rdf:RDF>
  </metadata>
  <g
     inkscape:label="Layer 1"
     inkscape:groupmode="layer"
     id="layer1"
     transform="translate(-54.915483,-147.04235)">
    <g
       id="g867"
       transform="matrix(0.13925439,0,0,0.13925439,54.832463,146.9031)"
       style="fill:#4e4b44;fill-opacity:1">
      <path
         id="path854"
         d="m 598.13366,524.67562 v -1.59172 l 1.59172,-3.18344 c 1.59172,-6.36687 3.18343,-12.73375 1.59172,-19.10063 L 594.95022,481.6992 432.59486,198.37318 408.71907,155.39676 h -1.59172 l -23.87579,42.97642 -162.35536,283.32602 -6.36687,19.10063 a 38.201261,38.201261 0 0 0 3.18344,23.87579 c 6.36687,9.55032 15.91719,19.10063 38.20126,19.10063 h 302.42665 c 4.77515,0 28.65094,-1.59172 39.79298,-19.10063 z M 407.12735,241.3496 555.15724,500.79983 H 259.09747 Z M 711.14572,483.29092 504.22222,110.82863 c -3.18343,-3.18344 -14.32547,-23.875793 -35.01782,-23.875793 -9.55031,0 -23.87579,4.775158 -35.01782,23.875793 l -27.05923,44.56813 V 241.3496 L 469.2044,134.70441 674.53618,500.79983 h -77.99424 a 36.609542,36.609542 0 0 1 -3.18344,22.28407 l -1.59172,1.59172 c -9.55031,17.50891 -33.4261,19.10063 -36.60954,19.10063 H 676.1279 c 4.77516,0 27.05923,-1.59172 38.20126,-19.10063 4.77516,-7.9586 7.9586,-22.28407 -3.18344,-41.3847 z m -490.24952,41.3847 -1.59172,-3.18344 c -3.18343,-6.36687 -3.18343,-12.73375 -1.59171,-20.69235 H 45.807091 L 300.48216,48.751576 407.12735,241.3496 442.14517,215.88209 335.49999,23.284069 C 333.90827,20.100631 321.17451,1 300.48216,1 290.93185,1 276.60638,4.1834384 265.46434,24.875788 L 7.6058295,481.6992 c -1.5917192,4.77516 -12.7337537,25.46751 -3.1834384,42.97642 6.3668769,9.55032 15.9171919,19.10063 38.2012609,19.10063 H 259.09747 c -22.28407,0 -33.42611,-9.55031 -38.20127,-19.10063 z"
         style="fill:#4e4b44;stroke-width:1.59172;fill-opacity:1" />
    </g>
  </g>
</svg>
