<?xml version="1.0" encoding="UTF-8" standalone="no"?>
<svg
   xmlns:dc="http://purl.org/dc/elements/1.1/"
   xmlns:cc="http://creativecommons.org/ns#"
   xmlns:rdf="http://www.w3.org/1999/02/22-rdf-syntax-ns#"
   xmlns:svg="http://www.w3.org/2000/svg"
   xmlns="http://www.w3.org/2000/svg"
   xmlns:sodipodi="http://sodipodi.sourceforge.net/DTD/sodipodi-0.dtd"
   xmlns:inkscape="http://www.inkscape.org/namespaces/inkscape"
   width="99.967087mm"
   height="100mm"
   viewBox="0 0 99.967087 100"
   version="1.1"
   id="svg8"
   inkscape:version="1.0.2 (e86c870879, 2021-01-15, custom)"
   sodipodi:docname="git.svg">
  <defs
     id="defs2" />
  <sodipodi:namedview
     id="base"
     pagecolor="#ffffff"
     bordercolor="#666666"
     borderopacity="1.0"
     inkscape:pageopacity="0.0"
     inkscape:pageshadow="2"
     inkscape:zoom="0.35"
     inkscape:cx="368.26212"
     inkscape:cy="408.11282"
     inkscape:document-units="mm"
     inkscape:current-layer="g849"
     inkscape:document-rotation="0"
     showgrid="false"
     inkscape:pagecheckerboard="true"
     fit-margin-top="0"
     fit-margin-left="0"
     fit-margin-right="0"
     fit-margin-bottom="0"
     inkscape:window-width="1920"
     inkscape:window-height="1001"
     inkscape:window-x="-9"
     inkscape:window-y="-9"
     inkscape:window-maximized="1" />
  <metadata
     id="metadata5">
    <rdf:RDF>
      <cc:Work
         rdf:about="">
        <dc:format>image/svg+xml</dc:format>
        <dc:type
           rdf:resource="http://purl.org/dc/dcmitype/StillImage" />
        <dc:title />
      </cc:Work>
    </rdf:RDF>
  </metadata>
  <g
     inkscape:label="Layer 1"
     inkscape:groupmode="layer"
     id="layer1"
     transform="translate(-8.3973131,-40.186816)">
    <g
       id="g849"
       transform="matrix(0.56601135,0,0,0.56601135,1.077073,11.878213)"
       style="fill:##4e4b44">
      <path
         style="fill:##4e4b44;fill-opacity:1;stroke-width:0.352778"
         d="m 91.828405,185.52332 c -0.43881,-0.55953 -0.426332,-0.57201 0.133195,-0.1332 0.339549,0.2663 0.617361,0.54411 0.617361,0.61736 0,0.29035 -0.289698,0.10348 -0.750556,-0.48416 z m -3.807703,-8.40787 c 0.01693,-0.41097 0.10052,-0.49456 0.213134,-0.21314 0.101907,0.25466 0.08938,0.55893 -0.02783,0.67616 -0.117228,0.11722 -0.200604,-0.0911 -0.185286,-0.46302 z m 0,-2.11667 c 0.01693,-0.41097 0.10052,-0.49456 0.213134,-0.21314 0.101907,0.25466 0.08938,0.55894 -0.02783,0.67616 -0.117228,0.11722 -0.200604,-0.0911 -0.185286,-0.46302 z m 19.541678,-34.8956 c 3e-5,-13.19389 0.044,-18.54011 0.0977,-11.88049 0.0537,6.65962 0.0537,17.45462 -7e-5,23.98889 -0.0537,6.53426 -0.0977,1.08549 -0.0976,-12.1084 z m 29.75321,12.6354 c 0.25466,-0.10191 0.55894,-0.0894 0.67616,0.0278 0.11723,0.11723 -0.0911,0.20061 -0.46302,0.18529 -0.41097,-0.0169 -0.49456,-0.10052 -0.21314,-0.21314 z m 1.76389,0 c 0.25466,-0.10191 0.55894,-0.0894 0.67616,0.0278 0.11723,0.11723 -0.0911,0.20061 -0.46302,0.18529 -0.41097,-0.0169 -0.49456,-0.10052 -0.21314,-0.21314 z M 42.131738,104.11984 C 56.779872,89.470744 68.844082,77.485119 68.941096,77.485119 c 0.09701,0 -11.808446,11.985625 -26.45658,26.634721 -14.648134,14.6491 -26.712346,26.63472 -26.80936,26.63472 -0.09701,0 11.808448,-11.98562 26.456582,-26.63472 z M 154.62285,99.092758 c -0.43881,-0.559526 -0.42633,-0.572004 0.1332,-0.133194 0.58763,0.460858 0.77451,0.750556 0.48416,0.750556 -0.0733,0 -0.35107,-0.277813 -0.61736,-0.617362 z m -1.57602,-1.5875 -0.67203,-0.79375 0.79375,0.672039 c 0.43656,0.369619 0.79375,0.726806 0.79375,0.79375 0,0.28231 -0.28392,0.07389 -0.91547,-0.672039 z M 78.994653,87.274703 69.119238,77.30873 l 9.965973,9.875415 c 5.481285,5.431479 9.965972,9.916167 9.965972,9.965972 0,0.249435 -0.879281,-0.614013 -10.05653,-9.875414 z M 129.09032,73.516369 108.63035,52.967063 129.17966,73.427034 c 19.10162,19.018583 20.70765,20.638641 20.45997,20.638641 -0.0491,0 -9.29632,-9.247188 -20.54931,-20.549306 z M 84.994239,61.257341 c 4.459474,-4.462639 8.18751,-8.113889 8.284524,-8.113889 0.09701,0 -3.472272,3.65125 -7.931747,8.113889 -4.459474,4.462639 -8.18751,8.113889 -8.284524,8.113889 -0.09701,0 3.472272,-3.65125 7.931747,-8.113889 z"
         id="path857" />
      <path
         style="fill:##4e4b44;fill-opacity:1;stroke-width:0.352778"
         d="m 124.7707,139.39762 c 0.004,-0.77611 0.0762,-1.05207 0.16054,-0.61325 0.0844,0.43883 0.0812,1.07383 -0.007,1.41111 -0.0883,0.33729 -0.15734,-0.0218 -0.15342,-0.79786 z m 58.99028,-11.20069 -2.10563,-2.20487 2.20486,2.10563 c 2.04813,1.95594 2.36629,2.3041 2.10563,2.3041 -0.0546,0 -1.04677,-0.99219 -2.20486,-2.20486 z m -7.75007,-7.67292 c -2.90557,-2.91042 -5.20347,-5.29167 -5.10646,-5.29167 0.097,0 2.55367,2.38125 5.45923,5.29167 2.90557,2.91042 5.20347,5.29167 5.10646,5.29167 -0.097,0 -2.55367,-2.38125 -5.45923,-5.29167 z M 100.60466,50.087592 c 0.24253,-0.09786 0.63941,-0.09786 0.88194,0 0.24253,0.09786 0.0441,0.177936 -0.44097,0.177936 -0.48507,0 -0.68351,-0.08007 -0.44097,-0.177936 z"
         id="path855" />
      <path
         style="fill:##4e4b44;fill-opacity:1;stroke-width:0.352778"
         d="m 54.654753,184.64137 -39.157738,-39.24653 39.246529,39.15774 c 21.58559,21.53676 39.246528,39.19769 39.246528,39.24653 0,0.0488 -0.03995,0.0888 -0.08879,0.0888 -0.04884,0 -17.709773,-17.66094 -39.246529,-39.24653 z m 92.957547,0.26458 c 21.43941,-21.44007 39.06012,-38.98194 39.15713,-38.98194 0.097,0 -17.36495,17.54187 -38.80436,38.98194 -21.43941,21.44007 -39.06012,38.98195 -39.15714,38.98195 -0.097,0 17.36496,-17.54188 38.80437,-38.98195 z m -19.25991,-36.24791 -0.67204,-0.79375 0.79375,0.67204 c 0.43656,0.36961 0.79375,0.7268 0.79375,0.79375 0,0.28231 -0.28391,0.0739 -0.91546,-0.67204 z m 23.57508,-9.43681 c 0,-0.6791 0.0726,-0.95691 0.16134,-0.61736 0.0887,0.33955 0.0887,0.89517 0,1.23472 -0.0887,0.33955 -0.16134,0.0617 -0.16134,-0.61736 z m 37.39445,-0.70555 c 0,-0.6791 0.0726,-0.95691 0.16133,-0.61737 0.0887,0.33955 0.0887,0.89518 0,1.23473 -0.0887,0.33955 -0.16133,0.0617 -0.16133,-0.61736 z M 12.933027,138.1629 c 0,-0.6791 0.0726,-0.95691 0.161334,-0.61736 0.08873,0.33955 0.08873,0.89517 0,1.23472 -0.08873,0.33955 -0.161334,0.0617 -0.161334,-0.61736 z m 78.730472,-26.19375 -0.672038,-0.79375 0.79375,0.67204 c 0.745927,0.63155 0.954349,0.91546 0.672038,0.91546 -0.06694,0 -0.42413,-0.35719 -0.79375,-0.79375 z M 111.58396,93.448314 c -0.43881,-0.559527 -0.42633,-0.572005 0.1332,-0.133195 0.33954,0.266294 0.61736,0.544107 0.61736,0.617361 0,0.290351 -0.2897,0.103474 -0.75056,-0.484166 z M 86.934516,79.425397 C 81.407279,73.895605 76.964367,69.37123 77.061381,69.37123 c 0.09701,0 4.698676,4.524375 10.225913,10.054167 5.527238,5.529792 9.97015,10.054167 9.873136,10.054167 -0.09701,0 -4.698676,-4.524375 -10.225914,-10.054167 z m 14.206024,9.456918 c 0.34324,-0.08944 0.81949,-0.08356 1.05833,0.01305 0.23884,0.09664 -0.042,0.169817 -0.62408,0.162627 -0.58208,-0.0072 -0.7775,-0.08625 -0.43425,-0.175697 z"
         id="path853" />
      <path
         style="fill:#4e4b44;fill-opacity:1"
         d="m 98.604889,226.14975 c -1.051366,-0.28268 -2.400741,-0.82034 -2.998611,-1.19481 C 95.008408,224.58047 76.480762,206.20875 54.433731,184.12891 9.7612598,139.38994 13.200188,143.23683 13.207406,138.01186 13.214028,133.218 11.900968,134.74045 42.0582,104.5604 l 27.055641,-27.076115 9.922263,9.917682 9.92226,9.917681 -0.508339,1.636208 c -1.71233,5.511544 1.459075,12.949054 6.651001,15.597774 l 1.358491,0.69305 -0.02205,24.06991 -0.02205,24.06992 -2.177697,1.41111 c -9.105946,5.9005 -7.94543,19.2735 2.073529,23.89395 1.437764,0.66306 2.341482,0.8005 5.263571,0.8005 3.08919,0 3.77856,-0.11755 5.54498,-0.94547 2.81679,-1.32022 5.34002,-3.79751 6.71712,-6.5948 1.05883,-2.15078 1.14345,-2.58431 1.14345,-5.85787 0,-3.09084 -0.11797,-3.78685 -0.93853,-5.53726 -1.04142,-2.22155 -3.27721,-4.83442 -5.10147,-5.96188 l -1.19196,-0.73666 V 139.9888 116.11948 l 8.99925,8.99323 c 6.17561,6.17148 8.93322,9.15928 8.78877,9.52241 -0.72783,1.82972 -0.95479,4.70473 -0.54638,6.92127 0.85595,4.64538 3.53284,8.129 7.80558,10.15792 2.06724,0.98164 2.62309,1.08824 5.64444,1.08249 2.88568,-0.005 3.6334,-0.13765 5.3808,-0.95105 4.18389,-1.94757 7.17974,-5.84783 8.0104,-10.42867 1.03112,-5.68627 -2.13617,-11.72343 -7.53668,-14.36566 -1.6207,-0.79293 -2.69913,-1.0468 -4.93439,-1.1616 -1.57322,-0.0808 -3.41603,0.009 -4.09513,0.19857 l -1.23472,0.34547 -9.74872,-9.7027 -9.74873,-9.70269 0.35174,-1.2739 c 0.63169,-2.28777 0.16343,-6.669449 -0.96558,-9.035367 -2.58175,-5.410253 -8.67422,-8.602847 -14.433608,-7.563546 L 97.396117,89.532685 87.316384,79.452953 77.236652,69.37322 85.701555,60.893879 c 9.590366,-9.606718 10.570683,-10.302359 14.814905,-10.512766 1.8943,-0.09391 2.96242,0.05841 4.58611,0.654003 2.05139,0.752479 3.34921,2.007392 42.08033,40.688908 44.54385,44.486806 42.05717,41.731016 42.05717,46.608766 0,5.26473 3.44152,1.41028 -41.05339,45.97929 -21.95001,21.98656 -40.54411,40.34612 -41.32022,40.79901 -1.33219,0.77738 -4.43172,1.62683 -5.75,1.57582 -0.33,-0.0128 -1.460205,-0.25449 -2.511571,-0.53716 z"
         id="path851" />
    </g>
    <path
       style="fill:#000000;stroke-width:0.352778"
       id="path847"
       d="" />
  </g>
</svg>
