<?xml version="1.0" encoding="UTF-8" standalone="no"?>
<!-- Created with Inkscape (http://www.inkscape.org/) -->

<svg
   version="1.1"
   id="svg1980"
   width="1565.2175"
   height="1565.2175"
   viewBox="0 0 1565.2175 1565.2175"
   sodipodi:docname="intellij.svg"
   inkscape:version="1.2.1 (9c6d41e410, 2022-07-14)"
   xmlns:inkscape="http://www.inkscape.org/namespaces/inkscape"
   xmlns:sodipodi="http://sodipodi.sourceforge.net/DTD/sodipodi-0.dtd"
   xmlns="http://www.w3.org/2000/svg"
   xmlns:svg="http://www.w3.org/2000/svg">
  <defs
     id="defs1984" />
  <sodipodi:namedview
     id="namedview1982"
     pagecolor="#505050"
     bordercolor="#eeeeee"
     borderopacity="1"
     inkscape:showpageshadow="0"
     inkscape:pageopacity="0"
     inkscape:pagecheckerboard="0"
     inkscape:deskcolor="#505050"
     showgrid="false"
     inkscape:zoom="0.3457986"
     inkscape:cx="569.69577"
     inkscape:cy="783.69317"
     inkscape:window-width="1920"
     inkscape:window-height="1043"
     inkscape:window-x="0"
     inkscape:window-y="0"
     inkscape:window-maximized="1"
     inkscape:current-layer="g1986" />
  <g
     inkscape:groupmode="layer"
     inkscape:label="Image"
     id="g1986"
     transform="translate(-469.56523,-469.56523)">
    <path
       style="fill:#4e4b44;stroke-width:1.04348;fill-opacity:1"
       d="M 469.56523,1252.174 V 469.56523 H 1252.174 2034.7827 V 1252.174 2034.7827 H 1252.174 469.56523 Z m 735.65217,537.9111 v -49.567 l -293.47824,0.2627 -293.47827,0.2627 -0.27109,49.3044 -0.27108,49.3043 h 293.74935 293.74933 z m 175.8261,-462.6694 c 41.3045,-7.3853 77.3999,-21.731 110.6087,-43.9603 27.9472,-18.7072 51.6559,-52.128 65.5437,-92.3928 5.8664,-17.0085 11.3755,-38.8882 13.9079,-55.2365 1.8468,-11.9213 1.9397,-23.5053 1.9397,-241.5652 V 665.21741 H 1500.5218 1428 l -0.1563,223.93922 -0.1563,223.93917 -2.2967,9.1678 c -7.5451,30.117 -23.562,52.4093 -45.3907,63.1742 -12.8942,6.3589 -19.4045,7.6805 -37.5652,7.6256 -23.3827,-0.071 -39.0094,-3.4044 -56.033,-11.9544 -13.887,-6.9747 -40.5264,-28.1651 -55.3577,-44.0348 l -5.9993,-6.4193 -2.5148,2.5856 c -6.06,6.2305 -86.4825,97.6735 -86.9449,98.8593 -0.2827,0.7245 3.1777,5.3848 7.6897,10.3563 17.1531,18.9003 44.1443,40.9332 66.8513,54.5706 25.4697,15.2968 59.9914,26.9361 94.2218,31.7677 16.7909,2.3699 60.0825,1.5917 76.6956,-1.3787 z m -343.8261,-65.3287 v -61.0435 H 992.34786 947.47829 V 996.00003 790.95655 h 44.86957 44.86954 V 732.00002 673.0435 H 876.52177 715.82611 v 58.95652 58.95653 h 44.86956 44.86957 v 205.04348 205.04347 h -44.86957 -44.86956 v 61.0435 61.0435 h 160.69566 160.69563 z"
       id="path2107" />
  </g>
</svg>
