<?xml version="1.0" encoding="UTF-8" standalone="no"?>
<svg
   xmlns:dc="http://purl.org/dc/elements/1.1/"
   xmlns:cc="http://creativecommons.org/ns#"
   xmlns:rdf="http://www.w3.org/1999/02/22-rdf-syntax-ns#"
   xmlns:svg="http://www.w3.org/2000/svg"
   xmlns="http://www.w3.org/2000/svg"
   xmlns:sodipodi="http://sodipodi.sourceforge.net/DTD/sodipodi-0.dtd"
   xmlns:inkscape="http://www.inkscape.org/namespaces/inkscape"
   width="99.999992"
   height="60.949196"
   viewBox="0 0 26.458329 16.126142"
   version="1.1"
   id="svg845"
   inkscape:version="1.0.2 (e86c870879, 2021-01-15, custom)"
   sodipodi:docname="jfx.svg">
  <defs
     id="defs839" />
  <sodipodi:namedview
     id="base"
     pagecolor="#ffffff"
     bordercolor="#666666"
     borderopacity="1.0"
     inkscape:pageopacity="0.0"
     inkscape:pageshadow="2"
     inkscape:zoom="7.919596"
     inkscape:cx="46.141634"
     inkscape:cy="34.527424"
     inkscape:document-units="cm"
     inkscape:current-layer="text1426"
     inkscape:document-rotation="0"
     showgrid="false"
     units="px"
     inkscape:pagecheckerboard="true"
     fit-margin-top="0"
     fit-margin-left="0"
     fit-margin-right="0"
     fit-margin-bottom="0"
     inkscape:window-width="1920"
     inkscape:window-height="1001"
     inkscape:window-x="-9"
     inkscape:window-y="-9"
     inkscape:window-maximized="1" />
  <metadata
     id="metadata842">
    <rdf:RDF>
      <cc:Work
         rdf:about="">
        <dc:format>image/svg+xml</dc:format>
        <dc:type
           rdf:resource="http://purl.org/dc/dcmitype/StillImage" />
        <dc:title />
      </cc:Work>
    </rdf:RDF>
  </metadata>
  <g
     inkscape:label="Layer 1"
     inkscape:groupmode="layer"
     id="layer1"
     transform="translate(-77.977389,-119.84258)">
    <g
       aria-label="TM"
       id="text1426"
       style="font-style:normal;font-variant:normal;font-weight:bold;font-stretch:normal;font-size:2.13532px;line-height:1.25;font-family:sans-serif;-inkscape-font-specification:'sans-serif Bold';fill:#fefefe;fill-opacity:1;stroke:none;stroke-width:0.053383">
      <path
         id="path835"
         style="font-style:normal;font-variant:normal;font-weight:bold;font-stretch:normal;font-family:sans-serif;-inkscape-font-specification:'sans-serif Bold';stroke-width:0.0444746;fill:#4e4b44;fill-opacity:1"
         d="m 104.43572,131.48 h -0.33182 v -0.86603 l -0.23975,0.562 h -0.23019 l -0.23975,-0.562 V 131.48 h -0.31445 v -1.29341 h 0.38742 l 0.291,0.64888 0.29012,-0.64888 h 0.38742 z m -1.55661,-1.04324 h -0.40392 V 131.48 h -0.33357 v -1.04324 h -0.40391 v -0.25017 h 1.1414 z m -20.523924,5.47367 c -0.818811,-0.0551 -1.876986,-0.23856 -2.064613,-0.35806 -0.07623,-0.0485 -0.02524,-0.059 0.174547,-0.0359 0.155178,0.0179 0.877312,0.0717 1.604729,0.11933 3.077849,0.20178 6.945708,-0.34703 7.689762,-1.09108 0.201941,-0.20194 0.153961,0.0509 -0.05732,0.30201 -0.693975,0.82475 -3.930809,1.29338 -7.347123,1.06372 z m -1.043612,-0.77628 c -1.261716,-0.0965 -2.823972,-0.32839 -3.070218,-0.45573 -0.119379,-0.0617 -0.235308,-0.15981 -0.25761,-0.21795 -0.05157,-0.13432 0.21767,-0.42543 0.552002,-0.59691 0.587219,-0.30117 1.817251,-0.52948 1.923799,-0.35708 0.02091,0.0338 -0.09625,0.0771 -0.260351,0.096 -0.419895,0.0485 -1.138422,0.34824 -1.164932,0.48592 -0.03032,0.15754 0.391702,0.31605 1.238755,0.46524 0.995624,0.17535 4.991608,0.17514 6.405452,-3.6e-4 1.619075,-0.20095 2.333778,-0.453 2.267512,-0.79967 -0.03141,-0.16452 -0.02683,-0.16703 0.09878,-0.0534 0.201649,0.18249 0.158843,0.35988 -0.132742,0.55012 -0.502015,0.32751 -1.784183,0.65459 -3.191837,0.81422 -0.947153,0.10742 -3.406308,0.14622 -4.408605,0.0696 z m 10.146859,-0.25798 c 0.01983,-0.0695 0.278346,-1.27801 0.574563,-2.68569 0.296209,-1.40767 0.582937,-2.66558 0.637156,-2.79535 0.148538,-0.35551 0.452553,-0.68113 0.770998,-0.82577 0.254786,-0.11573 0.497258,-0.12966 2.282516,-0.13104 1.86943,-0.002 1.99514,0.007 1.961448,0.12189 -0.01983,0.0679 -0.07365,0.32183 -0.119744,0.56431 l -0.08373,0.44085 h -1.711187 c -2.061297,0 -1.951816,-0.0446 -2.15329,0.87815 -0.07581,0.3472 -0.137824,0.67255 -0.137824,0.72301 0,0.0719 0.273006,0.0918 1.260866,0.0918 h 1.260874 l 0.361501,0.52292 c 0.198825,0.28762 0.361492,0.54155 0.361492,0.56431 0,0.0228 -0.793551,0.0414 -1.763439,0.0414 -0.969898,0 -1.764556,0.008 -1.765914,0.0177 -0.0017,0.01 -0.122494,0.58899 -0.26919,1.28731 l -0.266716,1.26968 -0.618186,0.0205 c -0.565583,0.0188 -0.615128,0.01 -0.582195,-0.1058 z m 4.404548,-0.70821 c 0.427434,-0.45585 0.878346,-0.92404 1.002023,-1.04043 0.123669,-0.11639 0.316279,-0.32619 0.428018,-0.46624 l 0.203157,-0.25463 -0.734299,-1.06749 c -0.403865,-0.58713 -0.754035,-1.09945 -0.778171,-1.1385 -0.02824,-0.0457 0.19371,-0.071 0.62356,-0.071 h 0.667432 l 0.509272,0.74817 0.509271,0.74817 0.714345,-0.75307 0.714345,-0.75306 0.756286,0.0225 0.75628,0.0225 -1.1266,1.1796 c -0.61964,0.64879 -1.126612,1.19851 -1.126612,1.22159 0,0.0231 0.341222,0.53776 0.758275,1.1437 0.417057,0.60594 0.783667,1.14339 0.814697,1.19433 0.045,0.0739 -0.0781,0.0926 -0.609557,0.0926 h -0.665965 l -0.554319,-0.81259 -0.554319,-0.81259 -0.764565,0.81259 -0.764566,0.81259 h -0.777571 -0.777579 z m -13.148553,-0.58553 c -1.117326,-0.14579 -1.816117,-0.51103 -1.676052,-0.87602 0.04407,-0.11479 0.514745,-0.39007 0.666982,-0.39007 0.06132,0 0.06182,0.0242 0.0017,0.0965 -0.120411,0.14508 0.0489,0.24982 0.531491,0.32886 0.584886,0.0958 2.144276,0.0779 2.811283,-0.0322 l 0.5643,-0.0932 0.448911,0.22532 0.448904,0.22533 -0.307831,0.11611 c -1.0567,0.39858 -2.356173,0.54729 -3.489929,0.39936 z m -0.662208,-1.80215 c -1.009787,-0.1855 -1.481293,-0.39619 -1.481293,-0.66193 0,-0.1241 0.369682,-0.49491 0.493401,-0.49491 0.03266,0 0.113263,-0.0207 0.179146,-0.046 0.104899,-0.0402 0.109139,-0.0261 0.03416,0.11404 -0.129242,0.24148 0.03182,0.35153 0.640314,0.43745 0.664257,0.0938 2.957138,0.0273 3.653446,-0.10591 0.509121,-0.0974 0.526917,-0.096 0.760608,0.0626 0.131608,0.0893 0.277922,0.17621 0.325135,0.1931 0.173773,0.0621 -0.02616,0.13508 -0.842246,0.30722 -0.685519,0.14458 -1.082053,0.18071 -2.210835,0.20143 -0.756518,0.0139 -1.454842,0.0107 -1.551825,-0.007 z m 5.290334,-0.127 c 0,-0.0217 0.119028,-0.10023 0.264516,-0.17452 0.498083,-0.25436 1.119885,-0.76507 1.344686,-1.10446 0.404957,-0.61137 0.27798,-1.23245 -0.310172,-1.51717 -0.282137,-0.13658 -0.369906,-0.14861 -0.637406,-0.0874 -0.257501,0.0589 -0.296816,0.0548 -0.2314,-0.024 0.204382,-0.24628 0.940997,-0.30264 1.368489,-0.10472 0.683544,0.31647 0.916985,0.93876 0.598757,1.59612 -0.201591,0.41644 -0.784927,0.88266 -1.44521,1.15509 -0.506356,0.2089 -0.95226,0.33114 -0.95226,0.26103 z m -6.101521,-1.56547 c -1.330531,-0.13458 -1.939786,-0.30055 -1.939786,-0.52847 0,-0.1756 0.198317,-0.2928 0.92555,-0.54697 0.574455,-0.20077 1.720541,-0.42184 1.795956,-0.34643 0.01908,0.0191 -0.228343,0.1175 -0.549845,0.21869 -0.639722,0.20132 -1.073596,0.43319 -1.008304,0.53884 0.240389,0.38896 3.838974,0.3287 6.666336,-0.11161 0.23714,-0.0369 0.2321,-0.0301 -0.127868,0.17433 -0.386735,0.21958 -1.010287,0.37212 -2.058806,0.50366 -0.627408,0.0787 -3.216464,0.14719 -3.703233,0.098 z m 3.547339,-1.24545 c 0.300333,-0.49976 0.255794,-0.83942 -0.185986,-1.41829 -0.738781,-0.96803 -0.817311,-1.68026 -0.274364,-2.48809 0.273714,-0.40725 0.740688,-0.77244 1.483834,-1.16042 0.527575,-0.27543 1.526599,-0.65673 1.580202,-0.60313 0.01416,0.0142 -0.196376,0.15763 -0.467799,0.31887 -0.675896,0.40154 -1.514393,1.07916 -1.767155,1.42808 -0.250428,0.34571 -0.326292,0.68289 -0.221377,0.98386 0.04241,0.12153 0.240731,0.46118 0.440805,0.75477 0.590668,0.86675 0.530292,1.40762 -0.233824,2.09462 -0.41812,0.37593 -0.545746,0.40825 -0.354336,0.0897 z m -1.727314,-1.06305 c -0.91462,-0.94413 -1.220451,-1.46361 -1.220451,-2.07302 0,-0.68907 0.290993,-1.06679 1.713101,-2.22359 1.170939,-0.95251 1.590641,-1.39288 1.866655,-1.95864 0.162526,-0.33312 0.189611,-0.47935 0.191643,-1.03471 l 0.0025,-0.64677 0.125576,0.19834 c 0.06907,0.10909 0.161993,0.37196 0.206507,0.58416 0.0674,0.32118 0.0609,0.467 -0.03857,0.8702 -0.212221,0.85997 -0.689609,1.46913 -2.248875,2.86964 -0.73139,0.65691 -0.982011,1.09034 -0.982011,1.69828 0,0.48858 0.139382,0.80882 0.740755,1.70193 0.420544,0.62456 0.523027,0.81272 0.44268,0.81272 -0.01416,0 -0.373889,-0.35935 -0.799356,-0.79854 z" />
    </g>
  </g>
</svg>
