<?xml version="1.0" encoding="UTF-8" standalone="no"?>
<!-- Created with Inkscape (http://www.inkscape.org/) -->

<svg
   version="1.1"
   id="svg2"
   width="100"
   height="112.75192"
   viewBox="0 0 100 112.75192"
   sodipodi:docname="node.svg"
   inkscape:version="1.2.1 (9c6d41e410, 2022-07-14)"
   xmlns:inkscape="http://www.inkscape.org/namespaces/inkscape"
   xmlns:sodipodi="http://sodipodi.sourceforge.net/DTD/sodipodi-0.dtd"
   xmlns="http://www.w3.org/2000/svg"
   xmlns:svg="http://www.w3.org/2000/svg">
  <defs
     id="defs6" />
  <sodipodi:namedview
     id="namedview4"
     pagecolor="#505050"
     bordercolor="#eeeeee"
     borderopacity="1"
     inkscape:showpageshadow="0"
     inkscape:pageopacity="0"
     inkscape:pagecheckerboard="0"
     inkscape:deskcolor="#505050"
     showgrid="false"
     inkscape:zoom="2.1024642"
     inkscape:cx="87.516355"
     inkscape:cy="147.44603"
     inkscape:window-width="1920"
     inkscape:window-height="1043"
     inkscape:window-x="0"
     inkscape:window-y="0"
     inkscape:window-maximized="1"
     inkscape:current-layer="g8" />
  <g
     inkscape:groupmode="layer"
     inkscape:label="Image"
     id="g8">
    <path
       style="fill:#4e4b44;fill-opacity:1;stroke-width:0.37603"
       d="m 46.43231,112.0422 c -3.427825,-1.62525 -15.793242,-9.28993 -15.793242,-9.78941 0,-0.31335 1.023432,-0.94503 2.444192,-1.50859 1.344306,-0.53323 3.068514,-1.28666 3.83158,-1.67429 l 1.387391,-0.704778 5.83907,3.481118 5.839066,3.48113 L 70.956129,93.162376 91.93189,80.997379 92.028579,56.345541 92.125264,31.693699 71.358695,19.696082 C 59.937082,13.097394 50.329586,7.6984665 50.008705,7.6984665 c -0.320881,0 -9.930227,5.3948055 -21.354107,11.9884565 L 7.8839119,31.67538 l 0.096688,24.642895 0.096692,24.642896 3.7602961,2.23107 c 7.163611,4.250341 9.841032,5.513744 11.684788,5.513744 1.981232,0 3.534569,-0.706932 4.639295,-2.111361 0.778137,-0.98924 0.785263,-1.221265 0.785263,-25.577525 0,-28.681457 -0.423583,-26.083347 4.25247,-26.083347 1.612241,0 3.015366,0.195246 3.394287,0.47232 0.601587,0.439892 0.638792,2.26646 0.541907,26.604095 l -0.104028,26.131774 -0.864624,1.880148 c -1.011151,2.198769 -3.094035,4.478117 -4.984284,5.454407 -1.913584,0.988341 -5.815688,1.61023 -8.245636,1.314129 -1.1411,-0.139048 -3.259222,-0.727335 -4.706935,-1.307304 C 15.280665,94.301753 4.0533587,87.967083 2.6691031,86.7035 2.1763953,86.253746 1.3742866,85.039697 0.8866364,84.005615 L 0,82.125467 0.01282261,56.555455 C 0.02662289,29.044461 -0.00560284,29.524912 2.0037075,26.890552 2.5556926,26.166863 4.6438188,24.646909 6.8421329,23.368648 8.9691777,22.131829 18.831727,16.406201 28.758908,10.645032 L 46.808329,0.17017887 49.457559,0.02937722 C 51.263775,-0.06661975 52.544152,0.0713173 53.481233,0.46285448 56.058991,1.5399103 96.063719,24.888928 97.336218,26.0591 c 0.697407,0.641325 1.582061,1.842899 1.965897,2.670164 C 99.960818,30.148937 100,31.700616 100,56.367441 c 0,24.666822 -0.03918,26.218501 -0.697885,27.638174 -0.383836,0.827265 -1.26849,2.034298 -1.965897,2.682298 -1.215132,1.129044 -40.15614,23.918797 -43.343754,25.366407 -2.058743,0.93495 -5.574601,0.92931 -7.560165,-0.0121 z M 57.149153,79.812359 C 51.553265,79.064402 47.176792,77.183901 44.586061,74.414202 42.092899,71.748807 41.221307,69.62521 41.1918,66.14421 l -0.02392,-2.820222 h 3.721873 3.721877 l 0.666132,2.444192 c 1.382379,5.072241 5.02758,6.6268 14.750303,6.290524 2.956506,-0.102257 5.998288,-0.408943 6.811621,-0.68678 2.183905,-0.746032 3.835152,-2.480792 4.152315,-4.362312 C 75.692372,62.854744 72.574545,61.390102 59.969364,59.95251 46.910691,58.4632 42.327526,55.127419 42.336051,47.118388 c 0.0026,-2.544074 0.170935,-3.387316 1.02336,-5.129608 2.731844,-5.583669 8.511347,-8.183117 18.194012,-8.183117 8.275396,0 13.522291,1.652191 16.790401,5.287121 2.57707,2.86632 4.464934,8.850891 3.252795,10.311431 -0.615255,0.741335 -6.474338,0.820929 -7.075876,0.09612 -0.216638,-0.261033 -0.757501,-1.446455 -1.201919,-2.634268 -1.312234,-3.507262 -3.65891,-4.811889 -9.599129,-5.336604 -3.986605,-0.352145 -8.496437,0.28383 -10.551044,1.487911 -2.375582,1.392186 -3.113702,4.083926 -1.63527,5.963446 1.040354,1.322594 3.163879,1.890793 12.093833,3.235971 8.694936,1.309775 11.304646,1.935218 14.224068,3.408938 4.084497,2.061849 5.852829,5.258424 5.747857,10.390295 -0.07442,3.638395 -1.435317,6.688104 -4.022445,9.014159 -3.811444,3.426814 -7.754761,4.642991 -15.659008,4.829461 -2.998836,0.07075 -6.044676,0.04947 -6.768533,-0.04729 z"
       id="path299" />
  </g>
</svg>
