<?xml version="1.0" encoding="UTF-8" standalone="no"?>
<!-- Created with Inkscape (http://www.inkscape.org/) -->

<svg
   version="1.1"
   id="svg1212"
   width="100"
   height="100.00112"
   viewBox="0 0 100 100.00112"
   sodipodi:docname="php.svg"
   inkscape:version="1.2.1 (9c6d41e410, 2022-07-14)"
   xmlns:inkscape="http://www.inkscape.org/namespaces/inkscape"
   xmlns:sodipodi="http://sodipodi.sourceforge.net/DTD/sodipodi-0.dtd"
   xmlns="http://www.w3.org/2000/svg"
   xmlns:svg="http://www.w3.org/2000/svg">
  <defs
     id="defs1216" />
  <sodipodi:namedview
     id="namedview1214"
     pagecolor="#505050"
     bordercolor="#eeeeee"
     borderopacity="1"
     inkscape:showpageshadow="0"
     inkscape:pageopacity="0"
     inkscape:pagecheckerboard="0"
     inkscape:deskcolor="#505050"
     showgrid="false"
     inkscape:zoom="3.9338226"
     inkscape:cx="16.269163"
     inkscape:cy="67.872913"
     inkscape:window-width="1920"
     inkscape:window-height="1043"
     inkscape:window-x="0"
     inkscape:window-y="0"
     inkscape:window-maximized="1"
     inkscape:current-layer="g1218" />
  <g
     inkscape:groupmode="layer"
     inkscape:label="Image"
     id="g1218"
     transform="translate(58.634704,-236.48608)">
    <path
       style="fill:#4e4b44;stroke-width:0.102139;fill-opacity:1"
       d="m -13.179873,312.78721 c -0.280881,-0.0203 -1.246091,-0.0858 -2.144911,-0.14546 -11.230438,-0.74593 -22.258654,-3.77668 -30.089082,-8.26902 -2.966029,-1.70162 -5.176645,-3.3437 -7.276656,-5.40521 -3.142793,-3.08518 -4.951067,-6.14221 -5.703901,-9.6429 -0.320375,-1.48974 -0.320375,-4.16637 0,-5.65611 0.538489,-2.50398 1.649146,-4.81372 3.477862,-7.2326 0.758648,-1.00348 3.04108,-3.27231 4.353952,-4.32801 7.358625,-5.91716 18.559562,-9.96117 31.714042,-11.45012 5.441682,-0.61593 13.263185,-0.67789 18.89564604,-0.14967 13.65306196,1.2804 25.63129996,5.4513 33.19505296,11.55873 1.370003,1.10622 3.336788,3.03489 4.195038,4.11373 1.886448,2.37131 3.130882,4.89805 3.687845,7.48794 0.320375,1.48974 0.320375,4.16637 0,5.65611 -0.750168,3.4883 -2.572233,6.56864 -5.703901,9.6429 -2.739739,2.68951 -5.733586,4.73654 -9.992587,6.83239 -7.422988,3.65285 -16.2191425,5.90115 -26.6071115,6.80079 -1.7628115,0.15267 -10.5747465,0.28961 -12.0012885,0.18651 z m -18.139512,-15.59162 c 0.469803,-1.75551 0.992009,-3.70891 1.160458,-4.34089 l 0.306271,-1.14906 h 1.778011 c 2.920611,0 4.638664,-0.269 6.366197,-0.99675 3.108678,-1.30959 5.368828,-3.81185 6.249547,-6.919 0.328292,-1.1582 0.336805,-3.2053 0.01685,-4.05162 -0.464413,-1.22842 -1.310173,-2.14342 -2.538337,-2.74613 -1.678756,-0.82383 -2.592111,-0.92882 -7.75917,-0.89185 l -4.082179,0.0292 -3.189671,11.89915 c -1.75432,6.54453 -3.216016,12.00256 -3.248214,12.12896 l -0.05854,0.22981 h 2.072295 2.072296 z m 2.477371,-9.28023 c 0.02697,-0.0781 0.528464,-1.94591 1.114438,-4.1506 l 1.065405,-4.00855 2.093842,10e-4 c 3.607636,0.002 4.705204,0.43501 5.029824,1.98264 0.268739,1.28123 -0.470763,3.26373 -1.663429,4.45944 -0.768738,0.77069 -1.567212,1.20674 -2.804633,1.53162 -1.056985,0.27751 -4.918433,0.4245 -4.835447,0.18407 z m 31.9348015,10.14841 c 0.343817,-1.27801 0.8649834,-3.22553 1.1581498,-4.32782 l 0.5330278,-2.00417 2.4576075,-0.0561 c 1.9738575,-0.045 2.6586531,-0.0993 3.4789924,-0.27557 4.543187,-0.9764 7.83335,-4.19594 8.63875,-8.45331 0.174755,-0.92377 0.07334,-2.58899 -0.20133,-3.30574 -0.514476,-1.34253 -1.645082,-2.39949 -3.146495,-2.94154 -1.494614,-0.53959 -1.853402,-0.57006 -6.7122368,-0.57006 H 4.8137824 l -3.2474843,12.10342 c -1.78611648,6.65689 -3.2493054,12.11492 -3.25153,12.12897 -0.00223,0.014 0.93126733,0.0255 2.0744263,0.0255 h 2.078473 z M 5.7711441,288.0171 c 0.00237,-0.0217 0.4994936,-1.87802 1.1047263,-4.12507 l 1.1004231,-4.08554 h 2.3424535 c 2.151671,0 2.402618,0.0189 3.081179,0.23221 1.547721,0.48651 2.063342,1.55905 1.608926,3.34671 -0.419442,1.65008 -1.569877,3.15586 -2.909415,3.80809 -1.197721,0.58318 -2.067523,0.74598 -4.3153571,0.80772 -1.1094809,0.0305 -2.0153013,0.0376 -2.0129358,0.0159 z m -16.8010621,-1.39341 1.7414001,-6.51079 2.0887982,-0.0286 c 2.6641328,-0.0365 3.8811687,0.13654 4.4593182,0.63385 0.2414905,0.20772 0.2819527,0.32827 0.3155185,0.94002 0.052948,0.965 -0.2593688,2.40241 -1.5949835,7.34076 l -1.1049653,4.08555 1.9402131,0.0278 c 1.0671168,0.0153 1.9738779,-0.008 2.0150235,-0.0511 0.1098133,-0.11577 2.7202048,-9.9659 2.8597793,-10.79117 0.1701722,-1.00619 0.071589,-2.62951 -0.2032477,-3.34678 -0.3208685,-0.83742 -0.90651091,-1.45046 -1.78100241,-1.86435 -1.34619319,-0.63714 -1.74797389,-0.69743 -4.99559809,-0.74968 -1.615067,-0.026 -2.9358481,-0.0771 -2.9350678,-0.1135 8.171e-4,-0.0365 0.5005539,-1.92774 1.1106095,-4.20288 l 1.1091928,-4.13661 -1.9458777,-0.0278 c -1.070233,-0.0153 -1.9770116,0.008 -2.0150654,0.0511 -0.038052,0.0434 -1.5749093,5.70927 -3.4152343,12.59086 -1.840327,6.88159 -3.366455,12.54645 -3.391396,12.58858 -0.02494,0.0421 0.865122,0.0764 1.977919,0.0761 l 2.023266,-5.1e-4 1.7414,-6.51078 z"
       id="path1339" />
  </g>
</svg>
