<?xml version="1.0" encoding="UTF-8" standalone="no"?>
<svg
   xmlns:dc="http://purl.org/dc/elements/1.1/"
   xmlns:cc="http://creativecommons.org/ns#"
   xmlns:rdf="http://www.w3.org/1999/02/22-rdf-syntax-ns#"
   xmlns:svg="http://www.w3.org/2000/svg"
   xmlns="http://www.w3.org/2000/svg"
   xmlns:sodipodi="http://sodipodi.sourceforge.net/DTD/sodipodi-0.dtd"
   xmlns:inkscape="http://www.inkscape.org/namespaces/inkscape"
   height="60"
   preserveAspectRatio="xMidYMid"
   width="100"
   viewBox="0 0 10.24 6.1276596"
   version="1.1"
   id="svg9"
   sodipodi:docname="tailwindcss.svg"
   inkscape:version="1.0.2 (e86c870879, 2021-01-15, custom)">
  <metadata
     id="metadata15">
    <rdf:RDF>
      <cc:Work
         rdf:about="">
        <dc:format>image/svg+xml</dc:format>
        <dc:type
           rdf:resource="http://purl.org/dc/dcmitype/StillImage" />
        <dc:title />
      </cc:Work>
    </rdf:RDF>
  </metadata>
  <defs
     id="defs13" />
  <sodipodi:namedview
     pagecolor="#ffffff"
     bordercolor="#666666"
     borderopacity="1"
     objecttolerance="10"
     gridtolerance="10"
     guidetolerance="10"
     inkscape:pageopacity="0"
     inkscape:pageshadow="2"
     inkscape:window-width="1920"
     inkscape:window-height="1001"
     id="namedview11"
     showgrid="false"
     inkscape:pagecheckerboard="true"
     fit-margin-top="0"
     fit-margin-left="0"
     fit-margin-right="0"
     fit-margin-bottom="0"
     inkscape:zoom="3.9095745"
     inkscape:cx="4.4692889"
     inkscape:cy="-7.5175288"
     inkscape:window-x="-9"
     inkscape:window-y="-9"
     inkscape:window-maximized="1"
     inkscape:current-layer="svg9"
     inkscape:document-rotation="0" />
  <linearGradient
     id="a"
     x1="-0.027780002"
     y1="0.31999999"
     y2="0.67556">
    <stop
       offset="0"
       stop-color="#2298bd"
       id="stop2" />
    <stop
       offset="1"
       stop-color="#0ed7b5"
       id="stop4" />
  </linearGradient>
  <path
     d="m 5.12,-0.0081702 c -1.36532,0 -2.21868,0.68268 -2.56,2.048 0.512,-0.68268 1.10932,-0.93868 1.792,-0.768 0.38948,0.09736 0.66788,0.37996 0.97604,0.69272 0.502,0.50956 1.08296,1.09928 2.35196,1.09928 1.36532,0 2.21868,-0.68268 2.56,-2.048 -0.512,0.68268 -1.10932,0.93868 -1.792,0.768 -0.38948,-0.09736 -0.66788,-0.37996 -0.97604,-0.69272 -0.502,-0.50956 -1.08296,-1.09928 -2.35196,-1.09928 z m -2.56,3.072 c -1.36532,0 -2.21868,0.68268 -2.56,2.048 0.512,-0.68268 1.10932,-0.93868 1.792,-0.768 0.38948,0.09736 0.66788,0.37996 0.97604,0.69272 0.502,0.50956 1.08296,1.09928 2.35196,1.09928 1.36532,0 2.21868,-0.68268 2.56,-2.048 -0.512,0.68268 -1.10932,0.93868 -1.792,0.768 C 5.49852,4.7584698 5.22012,4.4758698 4.91196,4.1631098 4.40996,3.6535498 3.829,3.0638298 2.56,3.0638298 Z"
     fill="url(#a)"
     id="path7"
     style="fill:#4e4b44;stroke-width:0.04;fill-opacity:1" />
</svg>
