<?xml version="1.0" encoding="UTF-8" standalone="no"?>
<svg
   xmlns:dc="http://purl.org/dc/elements/1.1/"
   xmlns:cc="http://creativecommons.org/ns#"
   xmlns:rdf="http://www.w3.org/1999/02/22-rdf-syntax-ns#"
   xmlns:svg="http://www.w3.org/2000/svg"
   xmlns="http://www.w3.org/2000/svg"
   xmlns:sodipodi="http://sodipodi.sourceforge.net/DTD/sodipodi-0.dtd"
   xmlns:inkscape="http://www.inkscape.org/namespaces/inkscape"
   width="200.00044mm"
   height="214.94783mm"
   viewBox="0 0 200.00044 214.94783"
   version="1.1"
   id="svg1030"
   inkscape:version="1.0.2 (e86c870879, 2021-01-15)"
   sodipodi:docname="backend.svg">
  <defs
     id="defs1024" />
  <sodipodi:namedview
     id="base"
     pagecolor="#ffffff"
     bordercolor="#666666"
     borderopacity="1.0"
     inkscape:pageopacity="0.0"
     inkscape:pageshadow="2"
     inkscape:zoom="0.7"
     inkscape:cx="381.27669"
     inkscape:cy="601.83102"
     inkscape:document-units="mm"
     inkscape:current-layer="layer1"
     inkscape:document-rotation="0"
     showgrid="false"
     inkscape:object-paths="true"
     inkscape:object-nodes="true"
     inkscape:snap-intersection-paths="true"
     inkscape:snap-smooth-nodes="true"
     inkscape:snap-midpoints="true"
     fit-margin-top="0"
     fit-margin-left="0"
     fit-margin-right="0"
     fit-margin-bottom="0"
     inkscape:window-width="942"
     inkscape:window-height="992"
     inkscape:window-x="966"
     inkscape:window-y="39"
     inkscape:window-maximized="0" />
  <metadata
     id="metadata1027">
    <rdf:RDF>
      <cc:Work
         rdf:about="">
        <dc:format>image/svg+xml</dc:format>
        <dc:type
           rdf:resource="http://purl.org/dc/dcmitype/StillImage" />
        <dc:title />
      </cc:Work>
    </rdf:RDF>
  </metadata>
  <g
     inkscape:label="Layer 1"
     inkscape:groupmode="layer"
     id="layer1"
     transform="translate(-4.157753,-3.7797699)">
    <ellipse
       style="opacity:0.998075;fill:#008fff;fill-rule:evenodd;stroke-width:0;stroke-linejoin:round"
       id="path1593"
       cx="104.15775"
       cy="53.77977"
       rx="100"
       ry="50" />
    <path
       id="ellipse1595"
       style="opacity:0.998075;fill:#008fff;fill-rule:evenodd;stroke-width:0;stroke-linejoin:round"
       d="M 0 228.8125 L 0 333.7793 A 377.95276 188.97638 0 0 0 0 333.79102 A 377.95276 188.97638 0 0 0 377.95312 522.76758 A 377.95276 188.97638 0 0 0 755.90625 333.79102 L 755.90625 228.8125 L 755.88281 228.8125 A 377.95276 188.97638 0 0 1 740.4375 280.2832 A 377.95276 188.97638 0 0 1 740.33008 280.46484 A 377.95276 188.97638 0 0 1 740.30078 280.51367 A 377.95276 188.97638 0 0 1 738.72461 283.10352 A 377.95276 188.97638 0 0 1 737.61133 284.85547 A 377.95276 188.97638 0 0 1 735.2832 288.34375 A 377.95276 188.97638 0 0 1 734.67969 289.21094 A 377.95276 188.97638 0 0 1 734.06836 290.07812 A 377.95276 188.97638 0 0 1 733.44727 290.94336 A 377.95276 188.97638 0 0 1 732.94922 291.63086 A 377.95276 188.97638 0 0 1 732.81836 291.80859 A 377.95276 188.97638 0 0 1 732.18164 292.66992 A 377.95276 188.97638 0 0 1 731.53711 293.53125 A 377.95276 188.97638 0 0 1 730.88281 294.39062 A 377.95276 188.97638 0 0 1 730.2207 295.24805 A 377.95276 188.97638 0 0 1 729.55078 296.10352 A 377.95276 188.97638 0 0 1 728.87109 296.95898 A 377.95276 188.97638 0 0 1 728.18555 297.81055 A 377.95276 188.97638 0 0 1 727.49023 298.66211 A 377.95276 188.97638 0 0 1 726.78516 299.51172 A 377.95276 188.97638 0 0 1 726.07422 300.35938 A 377.95276 188.97638 0 0 1 725.35352 301.20508 A 377.95276 188.97638 0 0 1 723.14453 303.73242 A 377.95276 188.97638 0 0 1 722.39258 304.57031 A 377.95276 188.97638 0 0 1 721.63086 305.4082 A 377.95276 188.97638 0 0 1 720.08398 307.07617 A 377.95276 188.97638 0 0 1 719.29883 307.90625 A 377.95276 188.97638 0 0 1 718.66992 308.56641 A 377.95276 188.97638 0 0 1 718.50586 308.73633 A 377.95276 188.97638 0 0 1 717.70508 309.5625 A 377.95276 188.97638 0 0 1 716.89453 310.38867 A 377.95276 188.97638 0 0 1 716.07617 311.21289 A 377.95276 188.97638 0 0 1 715.25195 312.0332 A 377.95276 188.97638 0 0 1 714.41797 312.85352 A 377.95276 188.97638 0 0 1 711.86914 315.29883 A 377.95276 188.97638 0 0 1 710.13086 316.91992 A 377.95276 188.97638 0 0 1 709.25 317.72656 A 377.95276 188.97638 0 0 1 708.36133 318.53125 A 377.95276 188.97638 0 0 1 707.46484 319.33398 A 377.95276 188.97638 0 0 1 704.72852 321.72852 A 377.95276 188.97638 0 0 1 703.99219 322.35938 A 377.95276 188.97638 0 0 1 703.80078 322.52148 A 377.95276 188.97638 0 0 1 700.9707 324.88867 A 377.95276 188.97638 0 0 1 700.01172 325.67383 A 377.95276 188.97638 0 0 1 699.04688 326.45508 A 377.95276 188.97638 0 0 1 698.07227 327.23633 A 377.95276 188.97638 0 0 1 697.29492 327.85352 A 377.95276 188.97638 0 0 1 697.0918 328.01367 A 377.95276 188.97638 0 0 1 697.08008 328.02344 A 377.95276 188.97638 0 0 1 695.3125 329.40234 A 377.95276 188.97638 0 0 1 695.10742 329.56055 A 377.95276 188.97638 0 0 1 695.02148 329.62695 A 377.95276 188.97638 0 0 1 694.10352 330.33008 A 377.95276 188.97638 0 0 1 693.0918 331.09766 A 377.95276 188.97638 0 0 1 692.07227 331.86328 A 377.95276 188.97638 0 0 1 691.04688 332.62695 A 377.95276 188.97638 0 0 1 690.01367 333.38672 A 377.95276 188.97638 0 0 1 689.45703 333.79102 L 689.46094 333.79102 A 377.95276 188.97638 0 0 1 377.95312 415.74805 A 377.95276 188.97638 0 0 1 66.447266 333.79102 A 377.95276 188.97638 0 0 1 65.560547 333.14258 A 377.95276 188.97638 0 0 1 65.410156 333.0332 A 377.95276 188.97638 0 0 1 64.978516 332.71289 A 377.95276 188.97638 0 0 1 64.380859 332.27148 A 377.95276 188.97638 0 0 1 63.505859 331.61914 A 377.95276 188.97638 0 0 1 63.447266 331.57422 A 377.95276 188.97638 0 0 1 62.490234 330.85156 A 377.95276 188.97638 0 0 1 62.341797 330.74023 A 377.95276 188.97638 0 0 1 61.480469 330.08398 A 377.95276 188.97638 0 0 1 61.333984 329.97266 A 377.95276 188.97638 0 0 1 60.478516 329.3125 A 377.95276 188.97638 0 0 1 60.333984 329.20117 A 377.95276 188.97638 0 0 1 59.486328 328.53906 A 377.95276 188.97638 0 0 1 58.755859 327.9668 A 377.95276 188.97638 0 0 1 58.388672 327.67578 A 377.95276 188.97638 0 0 1 57.519531 326.98438 A 377.95276 188.97638 0 0 1 57.378906 326.87305 A 377.95276 188.97638 0 0 1 56.599609 326.24609 A 377.95276 188.97638 0 0 1 56.537109 326.19531 A 377.95276 188.97638 0 0 1 55.585938 325.42188 A 377.95276 188.97638 0 0 1 54.824219 324.79688 A 377.95276 188.97638 0 0 1 54.537109 324.56055 A 377.95276 188.97638 0 0 1 54.335938 324.39258 A 377.95276 188.97638 0 0 1 53.544922 323.73438 A 377.95276 188.97638 0 0 1 52.740234 323.05859 A 377.95276 188.97638 0 0 1 52.728516 323.04883 A 377.95276 188.97638 0 0 1 52.173828 322.57812 A 377.95276 188.97638 0 0 1 51.738281 322.20703 A 377.95276 188.97638 0 0 1 50.882812 321.47266 A 377.95276 188.97638 0 0 1 50.748047 321.35742 A 377.95276 188.97638 0 0 1 49.964844 320.67578 A 377.95276 188.97638 0 0 1 49.832031 320.56055 A 377.95276 188.97638 0 0 1 49.125 319.93945 A 377.95276 188.97638 0 0 1 49.037109 319.86133 A 377.95276 188.97638 0 0 1 48.705078 319.56641 A 377.95276 188.97638 0 0 1 48.023438 318.95898 A 377.95276 188.97638 0 0 1 47.789062 318.74805 A 377.95276 188.97638 0 0 1 46.373047 317.4668 A 377.95276 188.97638 0 0 1 46.244141 317.34961 A 377.95276 188.97638 0 0 1 45.697266 316.8457 A 377.95276 188.97638 0 0 1 45.455078 316.625 A 377.95276 188.97638 0 0 1 44.916016 316.12305 A 377.95276 188.97638 0 0 1 44.566406 315.79492 A 377.95276 188.97638 0 0 1 43.761719 315.03711 A 377.95276 188.97638 0 0 1 43.636719 314.91992 A 377.95276 188.97638 0 0 1 43.292969 314.5918 A 377.95276 188.97638 0 0 1 42.783203 314.10547 A 377.95276 188.97638 0 0 1 41.9375 313.28906 A 377.95276 188.97638 0 0 1 41.220703 312.58984 A 377.95276 188.97638 0 0 1 41.126953 312.49609 A 377.95276 188.97638 0 0 1 40.992188 312.36523 A 377.95276 188.97638 0 0 1 40.269531 311.65039 A 377.95276 188.97638 0 0 1 39.566406 310.94727 A 377.95276 188.97638 0 0 1 39.447266 310.82812 A 377.95276 188.97638 0 0 1 38.859375 310.23242 A 377.95276 188.97638 0 0 1 38.724609 310.0957 A 377.95276 188.97638 0 0 1 37.945312 309.29688 A 377.95276 188.97638 0 0 1 37.146484 308.46875 A 377.95276 188.97638 0 0 1 37.03125 308.34961 A 377.95276 188.97638 0 0 1 36.423828 307.71289 A 377.95276 188.97638 0 0 1 36.341797 307.62695 A 377.95276 188.97638 0 0 1 35.742188 306.98828 A 377.95276 188.97638 0 0 1 35.529297 306.76367 A 377.95276 188.97638 0 0 1 35.183594 306.39062 A 377.95276 188.97638 0 0 1 34.71875 305.89062 A 377.95276 188.97638 0 0 1 34.03125 305.13867 A 377.95276 188.97638 0 0 1 33.919922 305.01758 A 377.95276 188.97638 0 0 1 33.273438 304.30078 A 377.95276 188.97638 0 0 1 33.164062 304.17969 A 377.95276 188.97638 0 0 1 32.796875 303.76953 A 377.95276 188.97638 0 0 1 32.453125 303.38281 A 377.95276 188.97638 0 0 1 32.332031 303.24609 A 377.95276 188.97638 0 0 1 31.673828 302.49805 A 377.95276 188.97638 0 0 1 31.046875 301.77734 A 377.95276 188.97638 0 0 1 30.941406 301.65625 A 377.95276 188.97638 0 0 1 30.703125 301.37891 A 377.95276 188.97638 0 0 1 30.216797 300.81055 A 377.95276 188.97638 0 0 1 29.603516 300.08594 A 377.95276 188.97638 0 0 1 29.060547 299.43555 A 377.95276 188.97638 0 0 1 28.794922 299.11719 A 377.95276 188.97638 0 0 1 28.193359 298.38867 A 377.95276 188.97638 0 0 1 28.091797 298.26562 A 377.95276 188.97638 0 0 1 27.605469 297.66602 A 377.95276 188.97638 0 0 1 27.478516 297.50977 A 377.95276 188.97638 0 0 1 26.816406 296.68359 A 377.95276 188.97638 0 0 1 26.140625 295.82812 A 377.95276 188.97638 0 0 1 26.042969 295.70508 A 377.95276 188.97638 0 0 1 25.740234 295.31641 A 377.95276 188.97638 0 0 1 25.376953 294.84766 A 377.95276 188.97638 0 0 1 24.8125 294.11328 A 377.95276 188.97638 0 0 1 24.763672 294.04883 A 377.95276 188.97638 0 0 1 24.443359 293.625 A 377.95276 188.97638 0 0 1 24.109375 293.18359 A 377.95276 188.97638 0 0 1 23.90625 292.91016 A 377.95276 188.97638 0 0 1 23.427734 292.26758 A 377.95276 188.97638 0 0 1 22.794922 291.4043 A 377.95276 188.97638 0 0 1 22.259766 290.66602 A 377.95276 188.97638 0 0 1 22.216797 290.60547 A 377.95276 188.97638 0 0 1 21.869141 290.11914 A 377.95276 188.97638 0 0 1 21.609375 289.75195 A 377.95276 188.97638 0 0 1 21.033203 288.93164 A 377.95276 188.97638 0 0 1 20.945312 288.80664 A 377.95276 188.97638 0 0 1 20.732422 288.49609 A 377.95276 188.97638 0 0 1 20.345703 287.9375 A 377.95276 188.97638 0 0 1 19.755859 287.06641 A 377.95276 188.97638 0 0 1 19.173828 286.19531 A 377.95276 188.97638 0 0 1 18.681641 285.44922 A 377.95276 188.97638 0 0 1 18.599609 285.32227 A 377.95276 188.97638 0 0 1 18.115234 284.57422 A 377.95276 188.97638 0 0 1 18.105469 284.56055 A 377.95276 188.97638 0 0 1 17.701172 283.92383 A 377.95276 188.97638 0 0 1 17.521484 283.64062 A 377.95276 188.97638 0 0 1 17.007812 282.82031 A 377.95276 188.97638 0 0 1 16.466797 281.94141 A 377.95276 188.97638 0 0 1 16.388672 281.81445 A 377.95276 188.97638 0 0 1 16.201172 281.50391 A 377.95276 188.97638 0 0 1 15.857422 280.93359 A 377.95276 188.97638 0 0 1 15.46875 280.28125 A 377.95276 188.97638 0 0 1 0.0234375 228.8125 L 0 228.8125 z "
       transform="matrix(0.26458333,0,0,0.26458333,4.157753,3.7797699)" />
    <path
       id="path1615"
       style="opacity:0.998075;fill:#008fff;fill-rule:evenodd;stroke-width:0;stroke-linejoin:round"
       d="M 0.001953125 373.62891 L 0.001953125 478.5957 A 377.9524 188.97638 0 0 0 0.001953125 478.60742 A 377.9524 188.97638 0 0 0 377.95508 667.58398 A 377.9524 188.97638 0 0 0 755.90625 478.60742 L 755.90625 373.62891 L 755.88281 373.62891 A 377.9524 188.97638 0 0 1 740.4375 425.09961 A 377.9524 188.97638 0 0 1 740.33008 425.28125 A 377.9524 188.97638 0 0 1 740.30078 425.33008 A 377.9524 188.97638 0 0 1 739.26758 427.04102 A 377.9524 188.97638 0 0 1 738.72461 427.91992 A 377.9524 188.97638 0 0 1 737.61133 429.67188 A 377.9524 188.97638 0 0 1 735.2832 433.16016 A 377.9524 188.97638 0 0 1 734.67969 434.02734 A 377.9524 188.97638 0 0 1 734.06836 434.89453 A 377.9524 188.97638 0 0 1 733.44727 435.75977 A 377.9524 188.97638 0 0 1 732.94922 436.44727 A 377.9524 188.97638 0 0 1 732.81836 436.625 A 377.9524 188.97638 0 0 1 732.18164 437.48633 A 377.9524 188.97638 0 0 1 731.53711 438.34766 A 377.9524 188.97638 0 0 1 730.88281 439.20703 A 377.9524 188.97638 0 0 1 730.2207 440.06445 A 377.9524 188.97638 0 0 1 729.55078 440.91992 A 377.9524 188.97638 0 0 1 728.87109 441.77539 A 377.9524 188.97638 0 0 1 727.49023 443.47852 A 377.9524 188.97638 0 0 1 726.78516 444.32812 A 377.9524 188.97638 0 0 1 726.07422 445.17578 A 377.9524 188.97638 0 0 1 725.35352 446.02148 A 377.9524 188.97638 0 0 1 723.14453 448.54883 A 377.9524 188.97638 0 0 1 721.63086 450.22461 A 377.9524 188.97638 0 0 1 720.08398 451.89258 A 377.9524 188.97638 0 0 1 719.29883 452.72266 A 377.9524 188.97638 0 0 1 718.66992 453.38281 A 377.9524 188.97638 0 0 1 718.50586 453.55273 A 377.9524 188.97638 0 0 1 716.89453 455.20508 A 377.9524 188.97638 0 0 1 716.07617 456.0293 A 377.9524 188.97638 0 0 1 715.42188 456.68164 A 377.9524 188.97638 0 0 1 715.25195 456.84961 A 377.9524 188.97638 0 0 1 715.24219 456.85938 A 377.9524 188.97638 0 0 1 714.41797 457.66992 A 377.9524 188.97638 0 0 1 713.57617 458.48633 A 377.9524 188.97638 0 0 1 712.72656 459.30273 A 377.9524 188.97638 0 0 1 711.86914 460.11523 A 377.9524 188.97638 0 0 1 710.13086 461.73633 A 377.9524 188.97638 0 0 1 709.25 462.54297 A 377.9524 188.97638 0 0 1 708.36133 463.34766 A 377.9524 188.97638 0 0 1 707.46484 464.15039 A 377.9524 188.97638 0 0 1 704.72852 466.54492 A 377.9524 188.97638 0 0 1 703.99219 467.17578 A 377.9524 188.97638 0 0 1 703.80078 467.33789 A 377.9524 188.97638 0 0 1 700.9707 469.70508 A 377.9524 188.97638 0 0 1 700.01172 470.49023 A 377.9524 188.97638 0 0 1 699.04688 471.27148 A 377.9524 188.97638 0 0 1 698.07227 472.05273 A 377.9524 188.97638 0 0 1 697.29492 472.66992 A 377.9524 188.97638 0 0 1 697.0918 472.83008 A 377.9524 188.97638 0 0 1 696.99414 472.90625 A 377.9524 188.97638 0 0 1 696.10352 473.60352 A 377.9524 188.97638 0 0 1 695.10547 474.37695 A 377.9524 188.97638 0 0 1 694.10352 475.14648 A 377.9524 188.97638 0 0 1 693.0918 475.91406 A 377.9524 188.97638 0 0 1 692.07227 476.67969 A 377.9524 188.97638 0 0 1 691.04688 477.44336 A 377.9524 188.97638 0 0 1 690.01367 478.20312 A 377.9524 188.97638 0 0 1 689.45703 478.60742 L 689.46094 478.60742 A 377.9524 188.97638 0 0 1 377.95508 560.56445 A 377.9524 188.97638 0 0 1 66.447266 478.60742 A 377.9524 188.97638 0 0 1 65.724609 478.07812 A 377.9524 188.97638 0 0 1 65.560547 477.95898 A 377.9524 188.97638 0 0 1 64.529297 477.19727 A 377.9524 188.97638 0 0 1 64.380859 477.08789 A 377.9524 188.97638 0 0 1 63.505859 476.43359 A 377.9524 188.97638 0 0 1 62.611328 475.75781 A 377.9524 188.97638 0 0 1 62.351562 475.5625 A 377.9524 188.97638 0 0 1 62.328125 475.54492 A 377.9524 188.97638 0 0 1 61.353516 474.80273 A 377.9524 188.97638 0 0 1 60.480469 474.12891 A 377.9524 188.97638 0 0 1 59.486328 473.35547 A 377.9524 188.97638 0 0 1 58.695312 472.73242 A 377.9524 188.97638 0 0 1 58.396484 472.49805 A 377.9524 188.97638 0 0 1 58.357422 472.4668 A 377.9524 188.97638 0 0 1 56.576172 471.04492 A 377.9524 188.97638 0 0 1 56.537109 471.01172 A 377.9524 188.97638 0 0 1 55.742188 470.36523 A 377.9524 188.97638 0 0 1 55.537109 470.19922 A 377.9524 188.97638 0 0 1 55.158203 469.88672 A 377.9524 188.97638 0 0 1 54.529297 469.36914 A 377.9524 188.97638 0 0 1 54.335938 469.20898 A 377.9524 188.97638 0 0 1 53.544922 468.55078 A 377.9524 188.97638 0 0 1 52.740234 467.875 A 377.9524 188.97638 0 0 1 52.730469 467.86719 A 377.9524 188.97638 0 0 1 52.060547 467.29883 A 377.9524 188.97638 0 0 1 51.738281 467.02344 A 377.9524 188.97638 0 0 1 51.408203 466.74023 A 377.9524 188.97638 0 0 1 50.757812 466.17969 A 377.9524 188.97638 0 0 1 49.964844 465.49219 A 377.9524 188.97638 0 0 1 49.832031 465.37695 A 377.9524 188.97638 0 0 1 49.125 464.75586 A 377.9524 188.97638 0 0 1 49.041016 464.68164 A 377.9524 188.97638 0 0 1 48.394531 464.10547 A 377.9524 188.97638 0 0 1 48.089844 463.83398 A 377.9524 188.97638 0 0 1 47.259766 463.08789 A 377.9524 188.97638 0 0 1 47.130859 462.97266 A 377.9524 188.97638 0 0 1 46.373047 462.2832 A 377.9524 188.97638 0 0 1 46.244141 462.16602 A 377.9524 188.97638 0 0 1 45.697266 461.66211 A 377.9524 188.97638 0 0 1 45.455078 461.44141 A 377.9524 188.97638 0 0 1 44.916016 460.93945 A 377.9524 188.97638 0 0 1 44.566406 460.61133 A 377.9524 188.97638 0 0 1 43.761719 459.85352 A 377.9524 188.97638 0 0 1 43.636719 459.73633 A 377.9524 188.97638 0 0 1 43.292969 459.4082 A 377.9524 188.97638 0 0 1 42.783203 458.92188 A 377.9524 188.97638 0 0 1 41.9375 458.10547 A 377.9524 188.97638 0 0 1 41.220703 457.40625 A 377.9524 188.97638 0 0 1 41.144531 457.33203 A 377.9524 188.97638 0 0 1 40.390625 456.58594 A 377.9524 188.97638 0 0 1 40.269531 456.4668 A 377.9524 188.97638 0 0 1 39.566406 455.76367 A 377.9524 188.97638 0 0 1 39.447266 455.64453 A 377.9524 188.97638 0 0 1 38.859375 455.04883 A 377.9524 188.97638 0 0 1 38.724609 454.91211 A 377.9524 188.97638 0 0 1 37.945312 454.11328 A 377.9524 188.97638 0 0 1 37.146484 453.28516 A 377.9524 188.97638 0 0 1 37.03125 453.16602 A 377.9524 188.97638 0 0 1 36.355469 452.45508 A 377.9524 188.97638 0 0 1 35.660156 451.7168 A 377.9524 188.97638 0 0 1 35.529297 451.58008 A 377.9524 188.97638 0 0 1 35.183594 451.20703 A 377.9524 188.97638 0 0 1 34.71875 450.70703 A 377.9524 188.97638 0 0 1 34.03125 449.95508 A 377.9524 188.97638 0 0 1 33.919922 449.83398 A 377.9524 188.97638 0 0 1 33.273438 449.11719 A 377.9524 188.97638 0 0 1 33.164062 448.99609 A 377.9524 188.97638 0 0 1 32.523438 448.27734 A 377.9524 188.97638 0 0 1 31.939453 447.61523 A 377.9524 188.97638 0 0 1 31.705078 447.35156 A 377.9524 188.97638 0 0 1 31.046875 446.59375 A 377.9524 188.97638 0 0 1 30.941406 446.47266 A 377.9524 188.97638 0 0 1 30.703125 446.19531 A 377.9524 188.97638 0 0 1 30.216797 445.62695 A 377.9524 188.97638 0 0 1 29.603516 444.90234 A 377.9524 188.97638 0 0 1 29.060547 444.25195 A 377.9524 188.97638 0 0 1 28.794922 443.93359 A 377.9524 188.97638 0 0 1 28.193359 443.20508 A 377.9524 188.97638 0 0 1 28.091797 443.08203 A 377.9524 188.97638 0 0 1 27.605469 442.48242 A 377.9524 188.97638 0 0 1 27.478516 442.32617 A 377.9524 188.97638 0 0 1 27.03125 441.76758 A 377.9524 188.97638 0 0 1 26.759766 441.42969 A 377.9524 188.97638 0 0 1 26.140625 440.64453 A 377.9524 188.97638 0 0 1 26.042969 440.52148 A 377.9524 188.97638 0 0 1 25.740234 440.13281 A 377.9524 188.97638 0 0 1 25.376953 439.66406 A 377.9524 188.97638 0 0 1 24.814453 438.92969 A 377.9524 188.97638 0 0 1 24.283203 438.23047 A 377.9524 188.97638 0 0 1 24.109375 438 A 377.9524 188.97638 0 0 1 23.90625 437.72656 A 377.9524 188.97638 0 0 1 23.427734 437.08398 A 377.9524 188.97638 0 0 1 22.794922 436.2207 A 377.9524 188.97638 0 0 1 22.259766 435.48242 A 377.9524 188.97638 0 0 1 22.222656 435.42969 A 377.9524 188.97638 0 0 1 21.642578 434.61523 A 377.9524 188.97638 0 0 1 21.033203 433.74805 A 377.9524 188.97638 0 0 1 20.064453 432.33789 A 377.9524 188.97638 0 0 1 19.755859 431.88281 A 377.9524 188.97638 0 0 1 19.257812 431.13867 A 377.9524 188.97638 0 0 1 19.201172 431.05273 A 377.9524 188.97638 0 0 1 18.839844 430.50391 A 377.9524 188.97638 0 0 1 18.667969 430.24219 A 377.9524 188.97638 0 0 1 18.181641 429.49219 A 377.9524 188.97638 0 0 1 18.105469 429.37695 A 377.9524 188.97638 0 0 1 17.701172 428.74023 A 377.9524 188.97638 0 0 1 17.521484 428.45703 A 377.9524 188.97638 0 0 1 17.300781 428.10547 A 377.9524 188.97638 0 0 1 16.929688 427.50977 A 377.9524 188.97638 0 0 1 16.466797 426.75781 A 377.9524 188.97638 0 0 1 16.464844 426.75586 A 377.9524 188.97638 0 0 1 16.201172 426.32031 A 377.9524 188.97638 0 0 1 15.857422 425.75 A 377.9524 188.97638 0 0 1 15.470703 425.09766 A 377.9524 188.97638 0 0 1 0.025390625 373.62891 L 0.001953125 373.62891 z "
       transform="matrix(0.26458333,0,0,0.26458333,4.157753,3.7797699)" />
    <path
       id="path1619"
       style="opacity:0.998075;fill:#008fff;fill-rule:evenodd;stroke-width:0;stroke-linejoin:round"
       d="M 0.001953125 518.44531 L 0.001953125 623.41211 L 0.001953125 623.42383 A 377.9524 188.97638 0 0 0 377.95508 812.40039 A 377.9524 188.97638 0 0 0 755.90625 623.42383 L 755.90625 518.44531 L 755.88281 518.44531 A 377.9524 188.97638 0 0 1 740.4375 569.91602 A 377.9524 188.97638 0 0 1 740.33008 570.09766 A 377.9524 188.97638 0 0 1 740.30078 570.14648 A 377.9524 188.97638 0 0 1 738.72461 572.73633 A 377.9524 188.97638 0 0 1 737.61133 574.48828 A 377.9524 188.97638 0 0 1 735.29688 577.95703 A 377.9524 188.97638 0 0 1 735.2832 577.97656 A 377.9524 188.97638 0 0 1 734.80469 578.66602 A 377.9524 188.97638 0 0 1 734.67969 578.84375 A 377.9524 188.97638 0 0 1 734.06836 579.71094 A 377.9524 188.97638 0 0 1 733.44727 580.57617 A 377.9524 188.97638 0 0 1 732.94922 581.26367 A 377.9524 188.97638 0 0 1 732.81836 581.44141 A 377.9524 188.97638 0 0 1 732.18164 582.30273 A 377.9524 188.97638 0 0 1 731.53711 583.16406 A 377.9524 188.97638 0 0 1 730.88281 584.02344 A 377.9524 188.97638 0 0 1 730.2207 584.88086 A 377.9524 188.97638 0 0 1 729.55078 585.73633 A 377.9524 188.97638 0 0 1 728.87109 586.5918 A 377.9524 188.97638 0 0 1 728.18555 587.44336 A 377.9524 188.97638 0 0 1 727.49023 588.29492 A 377.9524 188.97638 0 0 1 726.78516 589.14453 A 377.9524 188.97638 0 0 1 726.07422 589.99219 A 377.9524 188.97638 0 0 1 725.35352 590.83789 A 377.9524 188.97638 0 0 1 723.14453 593.36523 A 377.9524 188.97638 0 0 1 722.39258 594.20312 A 377.9524 188.97638 0 0 1 721.63086 595.04102 A 377.9524 188.97638 0 0 1 720.08398 596.70898 A 377.9524 188.97638 0 0 1 719.29883 597.53906 A 377.9524 188.97638 0 0 1 718.66992 598.19922 A 377.9524 188.97638 0 0 1 718.50586 598.36914 A 377.9524 188.97638 0 0 1 716.89453 600.02148 A 377.9524 188.97638 0 0 1 716.07617 600.8457 A 377.9524 188.97638 0 0 1 715.42188 601.49805 A 377.9524 188.97638 0 0 1 715.25195 601.66602 A 377.9524 188.97638 0 0 1 715.24219 601.67578 A 377.9524 188.97638 0 0 1 714.41797 602.48633 A 377.9524 188.97638 0 0 1 712.72656 604.11914 A 377.9524 188.97638 0 0 1 711.86914 604.93164 A 377.9524 188.97638 0 0 1 710.13086 606.55273 A 377.9524 188.97638 0 0 1 709.25 607.35938 A 377.9524 188.97638 0 0 1 708.36133 608.16406 A 377.9524 188.97638 0 0 1 707.46484 608.9668 A 377.9524 188.97638 0 0 1 704.72852 611.36133 A 377.9524 188.97638 0 0 1 703.99219 611.99219 A 377.9524 188.97638 0 0 1 703.80078 612.1543 A 377.9524 188.97638 0 0 1 700.9707 614.52148 A 377.9524 188.97638 0 0 1 700.01172 615.30664 A 377.9524 188.97638 0 0 1 699.04688 616.08789 A 377.9524 188.97638 0 0 1 698.07227 616.86914 A 377.9524 188.97638 0 0 1 697.29492 617.48633 A 377.9524 188.97638 0 0 1 697.0918 617.64648 A 377.9524 188.97638 0 0 1 697.08008 617.65625 A 377.9524 188.97638 0 0 1 695.3125 619.03516 A 377.9524 188.97638 0 0 1 695.10742 619.19336 A 377.9524 188.97638 0 0 1 695.02148 619.25977 A 377.9524 188.97638 0 0 1 694.10352 619.96289 A 377.9524 188.97638 0 0 1 693.0918 620.73047 A 377.9524 188.97638 0 0 1 692.07227 621.49609 A 377.9524 188.97638 0 0 1 691.04688 622.25977 A 377.9524 188.97638 0 0 1 690.01367 623.01953 A 377.9524 188.97638 0 0 1 689.45703 623.42383 L 689.46094 623.42383 A 377.9524 188.97638 0 0 1 377.95508 705.38086 A 377.9524 188.97638 0 0 1 66.449219 623.42383 L 66.447266 623.42383 A 377.9524 188.97638 0 0 1 65.445312 622.69141 A 377.9524 188.97638 0 0 1 64.529297 622.01367 A 377.9524 188.97638 0 0 1 64.380859 621.9043 A 377.9524 188.97638 0 0 1 63.505859 621.25 A 377.9524 188.97638 0 0 1 62.611328 620.57422 A 377.9524 188.97638 0 0 1 62.351562 620.37891 A 377.9524 188.97638 0 0 1 62.328125 620.36133 A 377.9524 188.97638 0 0 1 61.353516 619.61914 A 377.9524 188.97638 0 0 1 60.480469 618.94531 A 377.9524 188.97638 0 0 1 60.335938 618.83398 A 377.9524 188.97638 0 0 1 59.486328 618.17188 A 377.9524 188.97638 0 0 1 58.695312 617.54883 A 377.9524 188.97638 0 0 1 58.396484 617.31445 A 377.9524 188.97638 0 0 1 58.357422 617.2832 A 377.9524 188.97638 0 0 1 56.576172 615.86133 A 377.9524 188.97638 0 0 1 56.537109 615.82812 A 377.9524 188.97638 0 0 1 55.742188 615.18164 A 377.9524 188.97638 0 0 1 55.548828 615.02539 A 377.9524 188.97638 0 0 1 54.630859 614.26953 A 377.9524 188.97638 0 0 1 54.492188 614.15625 A 377.9524 188.97638 0 0 1 54.039062 613.7793 A 377.9524 188.97638 0 0 1 53.544922 613.36719 A 377.9524 188.97638 0 0 1 52.740234 612.69141 A 377.9524 188.97638 0 0 1 52.730469 612.68359 A 377.9524 188.97638 0 0 1 52.060547 612.11523 A 377.9524 188.97638 0 0 1 51.738281 611.83984 A 377.9524 188.97638 0 0 1 51.408203 611.55664 A 377.9524 188.97638 0 0 1 50.757812 610.99609 A 377.9524 188.97638 0 0 1 49.964844 610.30859 A 377.9524 188.97638 0 0 1 49.832031 610.19336 A 377.9524 188.97638 0 0 1 49.125 609.57227 A 377.9524 188.97638 0 0 1 49.041016 609.49805 A 377.9524 188.97638 0 0 1 48.394531 608.92188 A 377.9524 188.97638 0 0 1 48.089844 608.65039 A 377.9524 188.97638 0 0 1 47.259766 607.9043 A 377.9524 188.97638 0 0 1 47.130859 607.78906 A 377.9524 188.97638 0 0 1 46.716797 607.41016 A 377.9524 188.97638 0 0 1 46.246094 606.98242 A 377.9524 188.97638 0 0 1 45.494141 606.29297 A 377.9524 188.97638 0 0 1 45.449219 606.25 A 377.9524 188.97638 0 0 1 44.625 605.48242 A 377.9524 188.97638 0 0 1 43.761719 604.66992 A 377.9524 188.97638 0 0 1 43.636719 604.55273 A 377.9524 188.97638 0 0 1 43.292969 604.22461 A 377.9524 188.97638 0 0 1 42.783203 603.73828 A 377.9524 188.97638 0 0 1 42.060547 603.04102 A 377.9524 188.97638 0 0 1 42.021484 603.00195 A 377.9524 188.97638 0 0 1 41.603516 602.5957 A 377.9524 188.97638 0 0 1 41.144531 602.14844 A 377.9524 188.97638 0 0 1 40.390625 601.40234 A 377.9524 188.97638 0 0 1 40.269531 601.2832 A 377.9524 188.97638 0 0 1 39.566406 600.58008 A 377.9524 188.97638 0 0 1 39.447266 600.46094 A 377.9524 188.97638 0 0 1 38.859375 599.86523 A 377.9524 188.97638 0 0 1 38.724609 599.72852 A 377.9524 188.97638 0 0 1 37.945312 598.92969 A 377.9524 188.97638 0 0 1 37.146484 598.10156 A 377.9524 188.97638 0 0 1 37.03125 597.98242 A 377.9524 188.97638 0 0 1 36.355469 597.27148 A 377.9524 188.97638 0 0 1 36.242188 597.15234 A 377.9524 188.97638 0 0 1 35.873047 596.75977 A 377.9524 188.97638 0 0 1 35.515625 596.38086 A 377.9524 188.97638 0 0 1 35.183594 596.02344 A 377.9524 188.97638 0 0 1 34.71875 595.52344 A 377.9524 188.97638 0 0 1 34.521484 595.30664 A 377.9524 188.97638 0 0 1 33.921875 594.65039 A 377.9524 188.97638 0 0 1 33.273438 593.93359 A 377.9524 188.97638 0 0 1 33.261719 593.91992 A 377.9524 188.97638 0 0 1 32.523438 593.09375 A 377.9524 188.97638 0 0 1 31.939453 592.43164 A 377.9524 188.97638 0 0 1 31.705078 592.16797 A 377.9524 188.97638 0 0 1 31.046875 591.41016 A 377.9524 188.97638 0 0 1 30.941406 591.28906 A 377.9524 188.97638 0 0 1 30.703125 591.01172 A 377.9524 188.97638 0 0 1 30.216797 590.44336 A 377.9524 188.97638 0 0 1 29.603516 589.71875 A 377.9524 188.97638 0 0 1 29.060547 589.06836 A 377.9524 188.97638 0 0 1 28.794922 588.75 A 377.9524 188.97638 0 0 1 28.789062 588.74219 A 377.9524 188.97638 0 0 1 28.09375 587.89844 A 377.9524 188.97638 0 0 1 27.501953 587.16992 A 377.9524 188.97638 0 0 1 27.474609 587.13672 A 377.9524 188.97638 0 0 1 27.130859 586.70703 A 377.9524 188.97638 0 0 1 26.751953 586.23438 A 377.9524 188.97638 0 0 1 26.140625 585.46094 A 377.9524 188.97638 0 0 1 26.042969 585.33789 A 377.9524 188.97638 0 0 1 25.740234 584.94922 A 377.9524 188.97638 0 0 1 25.376953 584.48047 A 377.9524 188.97638 0 0 1 24.814453 583.74609 A 377.9524 188.97638 0 0 1 24.283203 583.04688 A 377.9524 188.97638 0 0 1 24.109375 582.81641 A 377.9524 188.97638 0 0 1 23.90625 582.54297 A 377.9524 188.97638 0 0 1 23.427734 581.90039 A 377.9524 188.97638 0 0 1 22.794922 581.03711 A 377.9524 188.97638 0 0 1 22.259766 580.29883 A 377.9524 188.97638 0 0 1 22.222656 580.24609 A 377.9524 188.97638 0 0 1 21.892578 579.7832 A 377.9524 188.97638 0 0 1 21.560547 579.31445 A 377.9524 188.97638 0 0 1 21.033203 578.56445 A 377.9524 188.97638 0 0 1 20.439453 577.70312 A 377.9524 188.97638 0 0 1 20.431641 577.69336 A 377.9524 188.97638 0 0 1 19.980469 577.0293 A 377.9524 188.97638 0 0 1 19.818359 576.79102 A 377.9524 188.97638 0 0 1 19.509766 576.33008 A 377.9524 188.97638 0 0 1 19.201172 575.86914 A 377.9524 188.97638 0 0 1 18.839844 575.32031 A 377.9524 188.97638 0 0 1 18.667969 575.05859 A 377.9524 188.97638 0 0 1 18.435547 574.70117 A 377.9524 188.97638 0 0 1 18.035156 574.08008 A 377.9524 188.97638 0 0 1 17.556641 573.33008 A 377.9524 188.97638 0 0 1 17.511719 573.25977 A 377.9524 188.97638 0 0 1 17.300781 572.92188 A 377.9524 188.97638 0 0 1 16.929688 572.32617 A 377.9524 188.97638 0 0 1 16.466797 571.57422 A 377.9524 188.97638 0 0 1 16.464844 571.57227 A 377.9524 188.97638 0 0 1 16.201172 571.13672 A 377.9524 188.97638 0 0 1 15.857422 570.56641 A 377.9524 188.97638 0 0 1 15.470703 569.91406 A 377.9524 188.97638 0 0 1 0.025390625 518.44531 L 0.001953125 518.44531 z "
       transform="matrix(0.26458333,0,0,0.26458333,4.157753,3.7797699)" />
  </g>
</svg>
