<?xml version="1.0" encoding="UTF-8" standalone="no"?>
<!-- Created with Inkscape (http://www.inkscape.org/) -->

<svg
   width="70.706543mm"
   height="52.365799mm"
   viewBox="0 0 70.706543 52.365799"
   version="1.1"
   id="svg5"
   inkscape:version="1.2.1 (9c6d41e410, 2022-07-14)"
   sodipodi:docname="hat.svg"
   xmlns:inkscape="http://www.inkscape.org/namespaces/inkscape"
   xmlns:sodipodi="http://sodipodi.sourceforge.net/DTD/sodipodi-0.dtd"
   xmlns="http://www.w3.org/2000/svg"
   xmlns:svg="http://www.w3.org/2000/svg">
  <sodipodi:namedview
     id="namedview7"
     pagecolor="#505050"
     bordercolor="#eeeeee"
     borderopacity="1"
     inkscape:showpageshadow="0"
     inkscape:pageopacity="0"
     inkscape:pagecheckerboard="0"
     inkscape:deskcolor="#505050"
     inkscape:document-units="mm"
     showgrid="false"
     inkscape:zoom="2.2475837"
     inkscape:cx="87.872143"
     inkscape:cy="163.28646"
     inkscape:window-width="1920"
     inkscape:window-height="1011"
     inkscape:window-x="1920"
     inkscape:window-y="32"
     inkscape:window-maximized="1"
     inkscape:current-layer="layer1" />
  <defs
     id="defs2" />
  <g
     inkscape:label="Layer 1"
     inkscape:groupmode="layer"
     id="layer1"
     transform="translate(-55.202043,-82.552519)">
    <path
       id="rect898"
       style="fill:#4e4b44;stroke:#000000;stroke-width:0;stroke-linecap:round;stroke-linejoin:round;stroke-dasharray:none;stroke-opacity:1;fill-opacity:1"
       d="m 60.555856,104.922 -5.17e-4,5.1e-4 v 14.99392 c 0,9.2e-4 0.0011,0.003 0.0026,0.003 -1.43e-4,4.9e-4 -7.75e-4,9.6e-4 0,10e-4 l 10.566797,5.2834 V 110.2085 l -10.566797,-5.2834 c -8.66e-4,-4.3e-4 -2.89e-4,-0.001 0,-0.002 z m 59.998924,0.002 -0.003,10e-4 v 5.1e-4 l -29.985246,14.99237 -0.0093,0.005 c -0.0013,6.4e-4 -0.004,6.4e-4 -0.0052,0 l -15.89412,-7.94732 v 14.99495 l 15.89412,7.94732 c 0.0013,6.5e-4 0.0033,6.5e-4 0.0047,0 L 120.5518,119.91978 v -5.2e-4 -5.1e-4 c 8.6e-4,-4.1e-4 0.003,-8.5e-4 0.003,-0.001 v -14.9934 z" />
    <path
       id="rect234"
       style="fill:#4e4b44;stroke:#000000;stroke-width:0;stroke-linecap:round;stroke-linejoin:round;stroke-dasharray:none;stroke-opacity:1;fill-opacity:1"
       d="m 90.558265,82.553145 c -0.0014,-7e-4 -0.0039,-9e-4 -0.0054,-1.42e-4 L 55.202998,100.22799 c -0.0015,7.6e-4 -0.0011,0.002 2.83e-4,0.003 l 15.906919,7.95347 17.674763,-8.837404 c 0.0015,-7.5e-4 0.0043,-7.5e-4 0.0057,-4e-5 l 3.529834,1.764914 c 0.0014,7e-4 0.0014,0.002 -7.1e-5,0.003 l -17.674735,8.83743 15.906921,7.95348 c 0.0014,5e-4 0.0039,0.001 0.0054,1.5e-4 l 35.349858,-17.67505 c 10e-4,-7.5e-4 10e-4,-0.002 -2.9e-4,-0.003 z" />
    <path
       id="rect1699"
       style="fill:#4e4b44;stroke:#000000;stroke-width:0;stroke-linecap:round;stroke-linejoin:round;stroke-dasharray:none;stroke-opacity:1;fill-opacity:1"
       d="m 71.110388,125.18977 v 5.16036 2.66242 c 0,0.0128 0.01049,0.0233 0.02326,0.0233 h 3.487125 c 0.01277,0 0.02326,-0.0105 0.02326,-0.0233 v -6.05596 z"
       sodipodi:nodetypes="ccsssscc" />
  </g>
</svg>
