<?xml version="1.0" encoding="UTF-8" standalone="no"?>
<svg
   xmlns:dc="http://purl.org/dc/elements/1.1/"
   xmlns:cc="http://creativecommons.org/ns#"
   xmlns:rdf="http://www.w3.org/1999/02/22-rdf-syntax-ns#"
   xmlns:svg="http://www.w3.org/2000/svg"
   xmlns="http://www.w3.org/2000/svg"
   xmlns:sodipodi="http://sodipodi.sourceforge.net/DTD/sodipodi-0.dtd"
   xmlns:inkscape="http://www.inkscape.org/namespaces/inkscape"
   width="100.5mm"
   height="72.5mm"
   viewBox="0 0 100.5 72.5"
   version="1.1"
   id="svg8"
   inkscape:version="1.0.2 (e86c870879, 2021-01-15)"
   sodipodi:docname="individuell.svg">
  <defs
     id="defs2">
    <rect
       x="43.251687"
       y="13.251436"
       width="56.748313"
       height="57.748564"
       id="rect1083" />
    <rect
       x="39.811102"
       y="15.748715"
       width="45.89991"
       height="39.459606"
       id="rect1077" />
  </defs>
  <sodipodi:namedview
     id="base"
     pagecolor="#ffffff"
     bordercolor="#666666"
     borderopacity="1.0"
     inkscape:pageopacity="0.0"
     inkscape:pageshadow="2"
     inkscape:zoom="1.4142136"
     inkscape:cx="186.95282"
     inkscape:cy="114.59436"
     inkscape:document-units="mm"
     inkscape:current-layer="layer1"
     inkscape:document-rotation="0"
     showgrid="false"
     inkscape:pagecheckerboard="true"
     showborder="true"
     inkscape:showpageshadow="false"
     fit-margin-top="0"
     fit-margin-left="0"
     fit-margin-right="0"
     fit-margin-bottom="0"
     inkscape:window-width="942"
     inkscape:window-height="992"
     inkscape:window-x="966"
     inkscape:window-y="39"
     inkscape:window-maximized="0"
     inkscape:object-paths="true"
     inkscape:snap-intersection-paths="true"
     inkscape:snap-smooth-nodes="true"
     inkscape:snap-midpoints="true" />
  <metadata
     id="metadata5">
    <rdf:RDF>
      <cc:Work
         rdf:about="">
        <dc:format>image/svg+xml</dc:format>
        <dc:type
           rdf:resource="http://purl.org/dc/dcmitype/StillImage" />
        <dc:title />
      </cc:Work>
    </rdf:RDF>
  </metadata>
  <g
     inkscape:label="Layer 1"
     inkscape:groupmode="layer"
     id="layer1">
    <rect
       style="fill:#008fff;fill-opacity:1;stroke:none;stroke-width:0.129778;stroke-linecap:square;stroke-linejoin:miter;stroke-miterlimit:4;stroke-dasharray:none;paint-order:stroke fill markers"
       id="rect849"
       width="100"
       height="1"
       x="0"
       y="0" />
    <rect
       style="fill:#008fff;fill-opacity:1;stroke:none;stroke-width:0.12137;stroke-linecap:square;stroke-linejoin:miter;stroke-miterlimit:4;stroke-dasharray:none;paint-order:stroke fill markers"
       id="rect853"
       width="87.463379"
       height="1"
       x="12.536614"
       y="71" />
    <path
       style="fill:none;stroke:#008fff;stroke-width:0.416668;stroke-linecap:butt;stroke-linejoin:miter;stroke-miterlimit:4;stroke-dasharray:none;stroke-opacity:1"
       d="M 25.132,50 V 0"
       id="path1057" />
    <rect
       style="fill:#008fff;fill-opacity:1;stroke:none;stroke-width:2.5107;stroke-linecap:square;stroke-linejoin:miter;stroke-miterlimit:4;stroke-dasharray:none;stroke-opacity:1;paint-order:stroke fill markers"
       id="rect1071"
       width="72"
       height="1"
       x="-72"
       y="99.5"
       transform="rotate(-90)" />
    <text
       xml:space="preserve"
       id="text1075"
       style="line-height:1.25;font-family:sans-serif;font-size:10.58333333px;letter-spacing:0px;white-space:pre;shape-inside:url(#rect1077);" />
    <g
       aria-label="?"
       transform="matrix(0.49764478,0,0,0.49764478,35.85169,15.834478)"
       id="text1081"
       style="font-size:10.5833px;line-height:1.25;font-family:sans-serif;letter-spacing:0px;white-space:pre;shape-inside:url(#rect1083);fill:#008fff;fill-opacity:1">
      <path
         d="m 51.430753,27.602556 q -3.4036,0 -6.1976,1.524 l -0.9652,-2.7432 q 1.0668,-0.6096 3.048,-1.1684 2.032,-0.5588 4.4704,-0.5588 2.6924,0 4.4704,0.7112 1.8288,0.6604 2.8956,1.778 1.0668,1.0668 1.524,2.4384 0.4572,1.3716 0.4572,2.6924 0,1.8288 -0.6604,3.2512 -0.6604,1.4224 -1.6764,2.6416 -1.016,1.2192 -2.1844,2.3368 -1.1176,1.1176 -2.1336,2.3368 -1.016,1.1684 -1.6764,2.54 -0.6604,1.3716 -0.6604,3.048 0,0.5588 0,0.8636 0,0.254 0.0508,0.508 h -2.6416 q -0.1016,-0.508 -0.1524,-1.0668 -0.0508,-0.6096 -0.0508,-1.2192 0,-1.7272 0.6096,-3.048 0.6096,-1.3716 1.524,-2.54 0.9144,-1.1684 1.9812,-2.1844 1.0668,-1.0668 1.9812,-2.1336 0.9144,-1.1176 1.524,-2.3368 0.6096,-1.27 0.6096,-2.8448 0,-1.4224 -0.508,-2.3368 -0.508,-0.9652 -1.3716,-1.524 -0.8128,-0.5588 -1.9304,-0.762 -1.1176,-0.2032 -2.3368,-0.2032 z m 2.4892,30.8356 q 0,1.1684 -0.762,1.9812 -0.7112,0.8128 -2.032,0.8128 -1.3208,0 -2.0828,-0.8128 -0.7112,-0.8128 -0.7112,-1.9812 0,-1.1684 0.7112,-1.9812 0.762,-0.8128 2.0828,-0.8128 1.3208,0 2.032,0.8128 0.762,0.8128 0.762,1.9812 z"
         style="font-style:normal;font-variant:normal;font-weight:300;font-stretch:normal;font-size:50.8px;font-family:Ubuntu;-inkscape-font-specification:'Ubuntu Light';fill:#008fff;fill-opacity:1"
         id="path842" />
    </g>
  </g>
</svg>
