<?xml version="1.0" encoding="UTF-8" standalone="no"?>
<svg
   xmlns:dc="http://purl.org/dc/elements/1.1/"
   xmlns:cc="http://creativecommons.org/ns#"
   xmlns:rdf="http://www.w3.org/1999/02/22-rdf-syntax-ns#"
   xmlns:svg="http://www.w3.org/2000/svg"
   xmlns="http://www.w3.org/2000/svg"
   xmlns:sodipodi="http://sodipodi.sourceforge.net/DTD/sodipodi-0.dtd"
   xmlns:inkscape="http://www.inkscape.org/namespaces/inkscape"
   width="37.438004mm"
   height="29.719265mm"
   viewBox="0 0 37.438003 29.719263"
   version="1.1"
   id="svg8"
   inkscape:version="1.0.2 (e86c870879, 2021-01-15, custom)"
   sodipodi:docname="logo.svg">
  <defs
     id="defs2" />
  <sodipodi:namedview
     id="base"
     pagecolor="#ffffff"
     bordercolor="#666666"
     borderopacity="1.0"
     inkscape:pageopacity="0.0"
     inkscape:pageshadow="2"
     inkscape:zoom="0.70710678"
     inkscape:cx="202.00874"
     inkscape:cy="220.60861"
     inkscape:document-units="mm"
     inkscape:current-layer="layer1"
     inkscape:document-rotation="0"
     showgrid="false"
     inkscape:pagecheckerboard="true"
     inkscape:showpageshadow="false"
     inkscape:window-width="1920"
     inkscape:window-height="1001"
     inkscape:window-x="-9"
     inkscape:window-y="-9"
     inkscape:window-maximized="1"
     inkscape:object-paths="true"
     inkscape:snap-intersection-paths="true"
     inkscape:snap-smooth-nodes="true"
     inkscape:snap-midpoints="true"
     inkscape:object-nodes="true"
     inkscape:snap-nodes="false"
     showguides="false"
     fit-margin-top="0"
     fit-margin-left="0"
     fit-margin-right="0"
     fit-margin-bottom="0">
    <inkscape:grid
       type="xygrid"
       id="grid3940"
       originx="1.4182866e-06"
       originy="7.7486027e-07" />
  </sodipodi:namedview>
  <metadata
     id="metadata5">
    <rdf:RDF>
      <cc:Work
         rdf:about="">
        <dc:format>image/svg+xml</dc:format>
        <dc:type
           rdf:resource="http://purl.org/dc/dcmitype/StillImage" />
        <dc:title></dc:title>
      </cc:Work>
    </rdf:RDF>
  </metadata>
  <g
     inkscape:label="Layer 1"
     inkscape:groupmode="layer"
     id="layer1">
    <path
       id="path3715"
       style="opacity:1;fill:none;fill-opacity:1;fill-rule:evenodd;stroke:#000000;stroke-width:4.6983;stroke-miterlimit:4;stroke-dasharray:none"
       d="m 9.4132923,42.42381 c -0.05825,0.0145 -0.1250801,0.02 -0.1862744,0.0299 -0.1661781,0.0254 -0.3322368,0.0516 -0.4981691,0.0786 -0.1661528,0.0272 -0.3321778,0.0552 -0.4980677,0.084 -0.1657621,0.0285 -0.3313885,0.0577 -0.4968754,0.0878 -0.1657543,0.0303 -0.3313636,0.0613 -0.4968249,0.0931 -0.1653284,0.0315 -0.3305067,0.0638 -0.495531,0.0969 -0.1648873,0.0333 -0.3296186,0.0674 -0.494186,0.102231 -0.1649173,0.0341 -0.3296736,0.0691 -0.4942629,0.104771 -0.1640323,0.0364 -0.3278906,0.0735 -0.491574,0.111361 -0.1640373,0.0377 -0.3278976,0.0762 -0.4915739,0.115421 -0.1636233,0.0394 -0.3270596,0.0796 -0.4903049,0.120491 -0.1636033,0.0407 -0.3270156,0.0823 -0.4902289,0.124551 l -0.02537,0.0076 c -0.1544432,0.0404 -0.3087044,0.0815 -0.4627817,0.123291 -0.1623263,0.0442 -0.3244436,0.0892 -0.4863479,0.134951 -0.1623253,0.0456 -0.3244336,0.0919 -0.4863228,0.139011 -0.1614673,0.0469 -0.3227146,0.0944 -0.4837349,0.142821 -0.1041039,0.0316 -0.2081117,0.0634 -0.3120215,0.0956 0.00415,0.0411 0.00838,0.0822 0.01268,0.123291 0.01494,0.131631 0.03067,0.263162 0.04718,0.394593 0.0163,0.131201 0.03338,0.262282 0.05124,0.393273 0.01799,0.131201 0.03676,0.262292 0.05632,0.393273 0.01934,0.130772 0.03947,0.261423 0.06037,0.391954 0.02103,0.130771 0.04285,0.261432 0.065451,0.391953 0.02281,0.130361 0.04641,0.260582 0.070771,0.390663 0.02408,0.130361 0.04894,0.260592 0.074581,0.390663 0.02586,0.129501 0.0525,0.258842 0.079911,0.388023 0.02722,0.129501 0.055201,0.258852 0.083971,0.388023 0.02891,0.129101 0.05859,0.258002 0.089041,0.386733 0.03026,0.129101 0.061291,0.257992 0.093101,0.386703 0.03196,0.128231 0.06468,0.256252 0.098171,0.384094 0.03331,0.128231 0.067391,0.256262 0.1022319,0.384093 0.03509,0.127371 0.07095,0.254532 0.1075588,0.381483 0.03678,0.127391 0.074331,0.254542 0.1126319,0.381483 0.02882,0.0963 0.05808,0.192411 0.087771,0.288402 0.00917,0.0302 0.01839,0.0604 0.02765,0.0906 0.03983,0.126531 0.080421,0.252812 0.1217649,0.378863 0.04077,0.125651 0.082291,0.251062 0.124555,0.376223 0.04255,0.125241 0.085841,0.250222 0.1298821,0.374933 0.04424,0.124811 0.089231,0.249342 0.134956,0.373613 0.04559,0.124381 0.091931,0.248452 0.1390142,0.372273 0.04687,0.123511 0.094481,0.246752 0.1428191,0.369683 0.04865,0.123081 0.098031,0.245862 0.1481472,0.368363 0.05,0.122651 0.1007388,0.245022 0.1522052,0.367073 0.05128,0.121791 0.1032828,0.243272 0.1560113,0.364433 0.01223,0.028 0.02448,0.056 0.03678,0.084 0.04109,0.0933 0.082611,0.186352 0.124555,0.279222 0.05433,0.120491 0.1093778,0.240662 0.1651433,0.360503 0.05568,0.120061 0.1120869,0.239802 0.1692023,0.359203 0.05738,0.119631 0.115468,0.238912 0.1742754,0.357863 0.05874,0.118341 0.118185,0.236322 0.1783345,0.353953 0.06001,0.117911 0.1207249,0.235462 0.1821394,0.352633 0.061361,0.117481 0.123431,0.234572 0.1861985,0.351313 0.062641,0.11618 0.125978,0.231961 0.1900035,0.347382 0.06442,0.115751 0.1295321,0.231122 0.1953306,0.346093 0.06527,0.114861 0.131229,0.229372 0.1978676,0.343453 0.067051,0.114461 0.1347811,0.228512 0.2031946,0.342163 0.06832,0.11314 0.1373281,0.225871 0.2069997,0.338202 0.06968,0.112281 0.1400391,0.224152 0.2110587,0.335593 0.07104,0.111841 0.1427461,0.223282 0.2151177,0.334293 0.072311,0.110981 0.1452881,0.221531 0.2189227,0.331652 0.074101,0.109691 0.1488472,0.218922 0.2242498,0.327723 0.074941,0.109261 0.1505412,0.218062 0.2267868,0.326403 0.076221,0.10796 0.1530863,0.215451 0.2305919,0.322492 0.077581,0.107081 0.1557972,0.213692 0.2346499,0.319863 0.078851,0.106211 0.1583395,0.211971 0.2384555,0.317252 0.079789,0.105351 0.1602041,0.210222 0.241246,0.314613 0.081484,0.104491 0.1635906,0.208491 0.2463195,0.311992 0.082425,0.103201 0.1654602,0.205882 0.2491099,0.308063 0.084157,0.102761 0.168928,0.204991 0.2543103,0.306742 0.08504,0.101011 0.1706835,0.201522 0.2569232,0.301523 0.085923,0.10058 0.1724439,0.200661 0.2595613,0.300202 0.087663,0.0993 0.1759169,0.198042 0.2647618,0.296272 0.088574,0.0984 0.1777326,0.196292 0.2674766,0.293633 0.08987,0.0971 0.180328,0.193681 0.271357,0.289722 0.09076,0.0958 0.182096,0.191042 0.273995,0.285762 0.09205,0.0954 0.184666,0.190202 0.277851,0.284473 0.09341,0.0936 0.187386,0.186701 0.28191,0.279222 0.09426,0.0928 0.189083,0.184981 0.284448,0.276612 0.09559,0.0919 0.191723,0.183232 0.288404,0.273972 0.09647,0.0906 0.193473,0.180622 0.291017,0.270042 0.09778,0.0893 0.196087,0.178002 0.294924,0.266133 0.09868,0.088 0.197887,0.175371 0.297612,0.262172 0.09956,0.0871 0.199636,0.173641 0.300225,0.259562 0.100859,0.0858 0.202231,0.171031 0.304107,0.255632 0.101739,0.0845 0.20398,0.168361 0.306719,0.251642 0.10265,0.0832 0.205798,0.165851 0.309435,0.247842 0.103924,0.0823 0.208338,0.164001 0.313239,0.245052 0.104847,0.0806 0.210176,0.160631 0.315979,0.239982 0.105707,0.0797 0.211888,0.158751 0.318541,0.237192 0.106595,0.0784 0.213656,0.156241 0.32118,0.233381 0.107465,0.0771 0.215389,0.153522 0.323767,0.229322 0.108352,0.0758 0.217154,0.150991 0.326405,0.225522 0.109248,0.0745 0.21894,0.148301 0.329069,0.221462 0.110557,0.0732 0.221551,0.145761 0.332975,0.217652 0.110996,0.0719 0.222423,0.143071 0.334269,0.213591 0.111894,0.0702 0.224209,0.139671 0.336933,0.208522 0.112746,0.0693 0.225904,0.137821 0.33947,0.205732 0.113656,0.068 0.227719,0.135311 0.342183,0.201921 0.114532,0.0662 0.229458,0.131761 0.344772,0.196602 0.115397,0.0654 0.231185,0.130061 0.347359,0.194061 0.115867,0.0636 0.232111,0.126511 0.348729,0.188732 0.116737,0.0624 0.233844,0.124001 0.351315,0.184931 l 0.0051,0.0025 c 0.116321,0.0597 0.233002,0.118721 0.350023,0.177062 0.118061,0.0597 0.236482,0.118751 0.355253,0.177071 0.118951,0.058 0.238252,0.115191 0.357883,0.171742 0.119831,0.0567 0.240002,0.11268 0.360503,0.167931 0.119841,0.0554 0.240012,0.109971 0.360503,0.163871 0.121161,0.0536 0.242642,0.106421 0.364433,0.158551 0.121611,0.0523 0.243522,0.103881 0.365753,0.154742 0.122061,0.051 0.244412,0.101191 0.367073,0.150681 0.122941,0.0493 0.246162,0.0978 0.369683,0.145611 0.10597,0.0412 0.212151,0.0819 0.318542,0.122021 l 0.0013,0.0013 0.0512,0.0178 c 0.123831,0.0467 0.247942,0.0926 0.372323,0.137751 0.124271,0.0449 0.248802,0.089 0.373593,0.132421 0.125161,0.0435 0.250582,0.0863 0.376253,0.128361 0.125601,0.0419 0.251452,0.083 0.377544,0.123291 0.125611,0.0405 0.251462,0.0802 0.377543,0.119231 0.11385,0.0351 0.227891,0.0696 0.342102,0.103501 l 0.0381,0.0127 c 0.126921,0.0375 0.254072,0.0741 0.381433,0.110091 0.127381,0.0353 0.254972,0.0698 0.382773,0.103501 0.127841,0.0344 0.255882,0.0681 0.384113,0.100961 0.128271,0.0331 0.256752,0.0654 0.385413,0.0969 0.128721,0.0314 0.257642,0.062 0.386733,0.0918 0.0231,0.0051 0.0463,0.0101 0.0695,0.0152 0.10563,0.0246 0.211391,0.0486 0.317272,0.072 0.129171,0.0283 0.258522,0.0559 0.388023,0.0827 0.129631,0.0266 0.259412,0.0524 0.389343,0.0774 0.130061,0.0251 0.260282,0.0496 0.390633,0.0733 0.130081,0.0236 0.260292,0.0463 0.390634,0.0682 0.130521,0.0221 0.261182,0.0436 0.391953,0.0642 0.130541,0.0205 0.261202,0.0402 0.391983,0.0591 0.130971,0.0188 0.262062,0.0366 0.393253,0.0538 0.131431,0.0172 0.262962,0.0339 0.394593,0.0497 0.131431,0.016 0.262972,0.0314 0.394593,0.0459 0.131451,0.014 0.262982,0.027 0.394593,0.0393 0.131892,0.0129 0.263873,0.0254 0.395914,0.0368 0.131911,0.0109 0.263862,0.0208 0.395883,0.0302 0.131911,0.0094 0.263892,0.0183 0.395913,0.0261 0.131911,0.0076 0.263872,0.0142 0.395863,0.0203 0.132371,0.0066 0.264772,0.0127 0.397203,0.0178 0.131941,0.0051 0.263902,0.0091 0.395883,0.0127 0.132392,0.0033 0.264793,0.0058 0.397204,0.0076 0.132391,0.0016 0.264802,0.0025 0.397203,0.0025 0.0516,1.19e-4 0.103171,1.19e-4 0.154741,0 0.132421,-8.98e-4 0.264812,-0.0025 0.397203,-0.0051 0.132421,-0.0025 0.264822,-0.0061 0.397203,-0.0101 0.132422,-0.0043 0.264833,-0.0094 0.397204,-0.0152 0.131991,-0.0051 0.263962,-0.0112 0.395883,-0.0178 l 0.0563,-0.0025 c 0.113211,-0.0061 0.226402,-0.0129 0.339543,-0.0203 0.132471,-0.0089 0.264862,-0.0185 0.397203,-0.0289 0.131611,-0.0101 0.263132,-0.0211 0.394593,-0.0327 0.132011,-0.0114 0.263982,-0.0238 0.395863,-0.0368 0.131612,-0.0132 0.263143,-0.0271 0.394594,-0.0419 0.131631,-0.015 0.263162,-0.0307 0.394593,-0.0472 0.131171,-0.0162 0.262272,-0.0334 0.393253,-0.0512 0.131231,-0.018 0.262332,-0.0368 0.393323,-0.0563 0.130741,-0.0198 0.261392,-0.0403 0.391903,-0.0616 0.130771,-0.0211 0.261432,-0.0428 0.391953,-0.0654 0.130361,-0.0223 0.260612,-0.0456 0.390713,-0.0695 0.129912,-0.0246 0.259663,-0.05 0.389264,-0.0761 0.0241,-0.0051 0.048,-0.0101 0.072,-0.0152 0.105831,-0.0208 0.211572,-0.0423 0.317193,-0.0642 0.129501,-0.0277 0.258852,-0.0561 0.388023,-0.0852 0.129071,-0.0285 0.257992,-0.0577 0.386733,-0.0878 0.128641,-0.0307 0.257112,-0.0622 0.385383,-0.0944 0.128691,-0.032 0.257172,-0.0648 0.385463,-0.0984 0.127801,-0.0333 0.255382,-0.0674 0.382773,-0.10223 0.127801,-0.0351 0.255412,-0.071 0.382793,-0.107561 0.126941,-0.0364 0.253652,-0.0735 0.380163,-0.111361 0.126961,-0.0381 0.253672,-0.077 0.380163,-0.116691 0.126081,-0.0394 0.251922,-0.0796 0.377523,-0.120491 0.125641,-0.0412 0.251062,-0.0831 0.376203,-0.125821 0.125671,-0.0425 0.251112,-0.0858 0.376283,-0.129881 0.124811,-0.0442 0.249342,-0.0892 0.373593,-0.134951 0.123951,-0.0452 0.247612,-0.0911 0.371023,-0.137751 0.123951,-0.0473 0.247592,-0.0953 0.370953,-0.144091 0.123081,-0.0482 0.245862,-0.0972 0.368363,-0.146882 0.122221,-0.0499 0.244112,-0.10058 0.365723,-0.151951 0.122251,-0.0517 0.244162,-0.104111 0.365773,-0.157281 0.121361,-0.053 0.242392,-0.106851 0.363113,-0.161341 0.120501,-0.0543 0.240662,-0.109381 0.360503,-0.165142 0.120061,-0.0557 0.239772,-0.112071 0.359153,-0.169201 0.119201,-0.0569 0.238072,-0.114641 0.356593,-0.173011 0.118771,-0.0587 0.237212,-0.118191 0.355272,-0.178332 0.117911,-0.06 0.235462,-0.120721 0.352633,-0.182141 0.117051,-0.0614 0.233712,-0.123441 0.350023,-0.186202 0.116611,-0.0636 0.232852,-0.127831 0.348673,-0.192791 0.115751,-0.064 0.231102,-0.128691 0.346063,-0.194062 0.114861,-0.0653 0.229372,-0.131231 0.343452,-0.197871 0.114031,-0.067 0.227672,-0.134782 0.340893,-0.203192 0.113141,-0.0683 0.225872,-0.137341 0.338203,-0.207002 0.112711,-0.0697 0.225012,-0.140031 0.336883,-0.211061 0.11141,-0.071 0.222421,-0.142592 0.332972,-0.214862 0.111011,-0.0723 0.221562,-0.145281 0.331683,-0.218922 0.110121,-0.0737 0.219782,-0.147991 0.329023,-0.222982 0.10883,-0.075 0.217221,-0.150561 0.325132,-0.226791 0.107941,-0.0763 0.215422,-0.153242 0.322423,-0.230842 0.107531,-0.0776 0.214581,-0.155782 0.321182,-0.234652 0.106211,-0.0788 0.211972,-0.158341 0.317253,-0.238452 0.105381,-0.0802 0.210252,-0.161061 0.314662,-0.242512 0.104491,-0.081 0.208472,-0.162731 0.311973,-0.245052 0.103191,-0.0828 0.205881,-0.166311 0.308062,-0.250382 0.102331,-0.0837 0.204162,-0.168011 0.305473,-0.252912 0.101441,-0.0851 0.202361,-0.170701 0.302762,-0.256952 0.100151,-0.0864 0.199772,-0.173311 0.298883,-0.260852 0.0993,-0.0872 0.198021,-0.175092 0.296242,-0.263492 0.0985,-0.089 0.196342,-0.178592 0.293732,-0.268742 0.02,-0.0188 0.0403,-0.0375 0.0604,-0.0563 0.0768,-0.0708 0.153221,-0.142031 0.229322,-0.213592 0.0962,-0.0912 0.191931,-0.182951 0.287062,-0.275292 0.0949,-0.0921 0.189341,-0.184721 0.283182,-0.277922 0.0941,-0.0934 0.187592,-0.187342 0.280562,-0.281832 0.0928,-0.0943 0.184952,-0.189092 0.276583,-0.284473 0.0914,-0.0952 0.182341,-0.190841 0.272652,-0.287082 0.0906,-0.0969 0.180611,-0.194341 0.270062,-0.292332 0.0561,-0.0618 0.112021,-0.123921 0.167681,-0.186202 l 0.0051,-0.0025 c 0.0307,-0.0336 0.0613,-0.0672 0.0918,-0.100961 0.0884,-0.0987 0.176282,-0.197841 0.263522,-0.297562 0.0145,-0.017 0.0288,-0.0341 0.0431,-0.0512 0.072,-0.0831 0.143661,-0.166562 0.214861,-0.250382 0.0858,-0.100861 0.171052,-0.202252 0.255652,-0.304133 0.0522,-0.0627 0.104231,-0.125621 0.156012,-0.188731 0.032,-0.0388 0.0638,-0.0777 0.0956,-0.116691 0.0837,-0.103071 0.166692,-0.206642 0.249112,-0.310703 0.0819,-0.103501 0.163142,-0.207511 0.243782,-0.311972 0.081,-0.104841 0.161462,-0.210142 0.241242,-0.315953 0.0797,-0.105711 0.158752,-0.211891 0.237192,-0.318542 0.0784,-0.106591 0.156241,-0.213642 0.233382,-0.321183 0.0767,-0.107481 0.152691,-0.215402 0.228052,-0.323792 0.0758,-0.108801 0.150991,-0.218032 0.225522,-0.327723 0.0745,-0.109231 0.148301,-0.218922 0.221461,-0.329043 0.0732,-0.110121 0.145762,-0.220671 0.217652,-0.331652 0.0719,-0.111441 0.143071,-0.223312 0.213592,-0.335583 0.0706,-0.111871 0.140541,-0.224202 0.209792,-0.336903 0.0693,-0.112761 0.137821,-0.225952 0.205731,-0.339522 0.068,-0.113651 0.135311,-0.227702 0.201922,-0.342163 0.0662,-0.114531 0.131761,-0.229452 0.196601,-0.344743 0.0654,-0.114961 0.130061,-0.230342 0.194062,-0.346093 0.0632,-0.116311 0.125671,-0.232972 0.187461,-0.350023 0.0628,-0.11674 0.124831,-0.233841 0.186202,-0.351312 0.061,-0.117171 0.121281,-0.234732 0.180871,-0.352633 0.0588,-0.118521 0.116891,-0.237362 0.174272,-0.356563 0.0584,-0.118951 0.116061,-0.238222 0.173011,-0.357863 0.0567,-0.119401 0.112661,-0.239142 0.167932,-0.359203 0.0549,-0.120271 0.10913,-0.240892 0.162611,-0.361823 0.054,-0.120721 0.107251,-0.241752 0.159811,-0.363113 0.0478,-0.11116 0.095,-0.222571 0.141551,-0.334272 l 0.0127,-0.0315 c 0.051,-0.122471 0.101191,-0.245281 0.150682,-0.368362 0.0493,-0.122501 0.0978,-0.245282 0.145611,-0.368363 0.0479,-0.123391 0.0951,-0.247032 0.141551,-0.370973 0.0466,-0.123821 0.0924,-0.247912 0.137491,-0.372293 0.0449,-0.124711 0.089,-0.249692 0.132421,-0.374933 0.0431,-0.124711 0.0855,-0.249692 0.127091,-0.374913 0.0423,-0.125591 0.0838,-0.251442 0.124551,-0.377543 0.0405,-0.126051 0.0802,-0.252332 0.119231,-0.378843 0.0388,-0.126511 0.0769,-0.253222 0.114151,-0.380183 0.0096,-0.0328 0.0193,-0.0656 0.0287,-0.0984 -0.0794,0.102281 -0.159381,0.204111 -0.239982,0.305452 -0.082,0.104061 -0.164611,0.207612 -0.247842,0.310673 -0.0833,0.10276 -0.167151,0.205021 -0.251652,0.306772 -0.0846,0.101871 -0.169831,0.203272 -0.255652,0.304133 -0.0859,0.10058 -0.172421,0.200661 -0.259532,0.300202 -0.0868,0.0997 -0.174201,0.198912 -0.262172,0.297562 -0.0886,0.0989 -0.177701,0.197162 -0.267452,0.294953 -0.089,0.0975 -0.178592,0.194541 -0.268742,0.291012 -0.0908,0.0962 -0.182092,0.191962 -0.273993,0.287112 -0.0916,0.0958 -0.183811,0.191072 -0.276582,0.285763 -0.093,0.0941 -0.186481,0.187591 -0.280562,0.280542 -0.0938,0.0932 -0.188182,0.185841 -0.283102,0.277902 -0.0947,0.0923 -0.189982,0.184092 -0.285793,0.275292 -0.0965,0.091 -0.193481,0.181482 -0.291022,0.271362 -0.0969,0.0897 -0.194371,0.178862 -0.292362,0.267423 -0.0982,0.0884 -0.196982,0.176251 -0.296273,0.263492 -0.0995,0.0876 -0.199591,0.174531 -0.300152,0.260882 -0.100431,0.0862 -0.201372,0.171891 -0.302842,0.256922 -0.101321,0.0849 -0.203142,0.169231 -0.305453,0.252912 -0.102211,0.0841 -0.204892,0.167531 -0.308092,0.250382 -0.103501,0.0823 -0.207482,0.163981 -0.311973,0.245052 -0.104391,0.0815 -0.209282,0.162301 -0.314632,0.242512 -0.105271,0.0801 -0.211012,0.159611 -0.317223,0.238452 -0.106161,0.0788 -0.212782,0.157071 -0.319882,0.234652 -0.107461,0.0776 -0.215372,0.154541 -0.323763,0.230841 -0.107911,0.0763 -0.216282,0.151852 -0.325113,0.226792 -0.109231,0.075 -0.218901,0.149311 -0.329022,0.222982 -0.109691,0.0736 -0.219812,0.146601 -0.330363,0.218922 -0.110981,0.0723 -0.222402,0.143911 -0.334243,0.214862 -0.111441,0.071 -0.223341,0.141371 -0.335612,0.211061 -0.112761,0.0697 -0.225952,0.138681 -0.339543,0.207002 -0.113191,0.0684 -0.226812,0.136151 -0.340813,0.203191 -0.114081,0.0671 -0.228562,0.133612 -0.343452,0.199392 -0.114991,0.0654 -0.230362,0.130061 -0.346143,0.194062 -0.115851,0.0645 -0.232062,0.128211 -0.348673,0.191271 -0.116311,0.0628 -0.232972,0.124831 -0.350023,0.186202 -0.117171,0.0614 -0.234722,0.122121 -0.352633,0.182141 -0.118061,0.0601 -0.236482,0.119611 -0.355243,0.178332 -0.11849,0.0584 -0.237361,0.11606 -0.356542,0.173011 -0.119401,0.0575 -0.239142,0.114361 -0.359233,0.170471 -0.119841,0.0558 -0.239982,0.110811 -0.360473,0.165142 -0.120721,0.054 -0.241752,0.10728 -0.363113,0.159811 -0.121181,0.0531 -0.242662,0.105581 -0.364453,0.157281 -0.122041,0.0514 -0.244362,0.102031 -0.367013,0.151951 -0.122501,0.0497 -0.245332,0.0987 -0.368413,0.146882 -0.123361,0.0488 -0.247002,0.0968 -0.370953,0.144091 -0.123391,0.0471 -0.247032,0.0934 -0.370973,0.139011 -0.124271,0.0453 -0.248832,0.0899 -0.373643,0.133691 -0.124711,0.044 -0.249692,0.0873 -0.374933,0.129881 -0.125591,0.0427 -0.251422,0.0846 -0.377523,0.125821 -0.125621,0.0409 -0.251472,0.0811 -0.377543,0.120491 -0.126481,0.0396 -0.253192,0.0786 -0.380163,0.116691 -0.126511,0.0379 -0.253222,0.075 -0.380163,0.111361 -0.127371,0.0366 -0.254972,0.0725 -0.382773,0.107561 -0.127391,0.0353 -0.254992,0.0698 -0.382793,0.1035 -0.128261,0.0331 -0.256732,0.0654 -0.385383,0.0969 -0.128261,0.0322 -0.256732,0.0637 -0.385383,0.0944 -0.128741,0.0304 -0.257662,0.0601 -0.386753,0.089 -0.129171,0.0288 -0.258502,0.0567 -0.388003,0.084 -0.129631,0.0274 -0.259423,0.0541 -0.389364,0.0799 -0.129631,0.0256 -0.259412,0.0505 -0.389343,0.0746 -0.130081,0.0238 -0.260292,0.0471 -0.390633,0.0695 -0.130541,0.0226 -0.261192,0.0444 -0.391983,0.0654 -0.130511,0.0213 -0.261182,0.0419 -0.391953,0.0616 -0.130971,0.0195 -0.262052,0.0383 -0.393253,0.0563 -0.131001,0.0178 -0.262112,0.0349 -0.393323,0.0512 -0.131431,0.0165 -0.262972,0.0322 -0.394594,0.0472 -0.131431,0.0147 -0.262932,0.0287 -0.394513,0.0419 -0.131451,0.0129 -0.262992,0.0254 -0.394593,0.0368 -0.131911,0.0117 -0.263872,0.0226 -0.395913,0.0327 -0.131911,0.0104 -0.263872,0.02 -0.395883,0.0289 -0.132341,0.0084 -0.264762,0.016 -0.397203,0.0228 -0.131941,0.0076 -0.263903,0.0142 -0.395914,0.0203 -0.132371,0.0051 -0.264782,0.0091 -0.397203,0.0127 -0.131941,0.0041 -0.263902,0.0076 -0.395883,0.0101 -0.132391,0.0025 -0.264792,0.0041 -0.397203,0.0051 -0.052,1.22e-4 -0.104011,1.22e-4 -0.156011,0 -0.132421,3.6e-4 -0.264822,-7.1e-5 -0.397234,-0.0013 -0.131991,-0.0018 -0.263962,-0.0043 -0.395913,-0.0076 -0.132421,-0.0036 -0.264832,-0.0076 -0.397203,-0.0127 -0.132441,-0.0051 -0.264842,-0.0112 -0.397203,-0.0178 -0.132011,-0.0061 -0.263962,-0.0127 -0.395883,-0.0203 -0.132011,-0.0079 -0.263962,-0.0167 -0.395863,-0.0261 -0.132041,-0.0094 -0.264003,-0.0193 -0.395914,-0.0302 -0.132041,-0.0112 -0.263992,-0.0228 -0.395883,-0.0355 -0.131611,-0.0127 -0.263132,-0.0263 -0.394573,-0.0406 -0.131631,-0.0142 -0.263152,-0.029 -0.394593,-0.0446 -0.131201,-0.0157 -0.262312,-0.0324 -0.393323,-0.0497 -0.131201,-0.0175 -0.262272,-0.0359 -0.393253,-0.055 -0.131201,-0.019 -0.262282,-0.0386 -0.393254,-0.0591 -0.130771,-0.0205 -0.261432,-0.042 -0.391953,-0.0642 -0.130341,-0.0221 -0.260562,-0.0447 -0.390633,-0.0682 -0.130391,-0.0236 -0.260622,-0.0481 -0.390713,-0.0733 -0.129471,-0.0251 -0.258822,-0.0508 -0.387993,-0.0774 -0.129961,-0.0268 -0.259742,-0.0544 -0.389373,-0.0827 -0.129041,-0.0281 -0.257942,-0.0569 -0.386653,-0.0865 -0.129091,-0.0298 -0.258002,-0.0604 -0.386733,-0.0918 -0.128661,-0.0315 -0.257132,-0.0638 -0.385413,-0.0969 -0.127831,-0.0329 -0.255432,-0.0665 -0.382853,-0.100961 -0.127802,-0.0342 -0.255393,-0.0691 -0.382774,-0.104771 -0.127371,-0.0359 -0.254502,-0.0726 -0.381423,-0.110091 -0.126941,-0.0377 -0.253672,-0.0762 -0.380163,-0.115421 -0.126531,-0.039 -0.252842,-0.0787 -0.378893,-0.119231 -0.126101,-0.0403 -0.251952,-0.0814 -0.377543,-0.123291 -0.125641,-0.0421 -0.251062,-0.085 -0.376203,-0.128611 -0.124811,-0.0434 -0.249362,-0.0875 -0.373643,-0.132421 -0.124381,-0.0447 -0.248472,-0.0901 -0.372293,-0.136221 -0.123951,-0.0464 -0.247592,-0.0936 -0.370973,-0.141551 -0.123511,-0.0482 -0.246752,-0.0972 -0.369683,-0.146881 -0.122631,-0.0495 -0.244972,-0.0997 -0.367023,-0.150681 -0.122221,-0.0509 -0.244162,-0.102431 -0.365772,-0.154742 -0.121351,-0.0521 -0.242392,-0.10497 -0.363113,-0.158551 -0.120911,-0.0539 -0.241502,-0.108521 -0.361763,-0.163871 -0.120531,-0.0552 -0.240722,-0.111061 -0.360573,-0.167682 -0.119631,-0.0565 -0.238912,-0.11377 -0.357863,-0.171741 -0.118771,-0.0579 -0.237202,-0.116491 -0.355273,-0.175801 -0.118331,-0.0596 -0.236302,-0.119861 -0.353903,-0.180872 -0.117471,-0.0609 -0.234582,-0.122581 -0.351313,-0.184931 -0.11662,-0.0622 -0.232861,-0.125141 -0.348732,-0.188732 -0.115741,-0.064 -0.231092,-0.128691 -0.346063,-0.194061 -0.115321,-0.0648 -0.230262,-0.130391 -0.344793,-0.196602 -0.114441,-0.0666 -0.228472,-0.133941 -0.342103,-0.201921 -0.113591,-0.0675 -0.226771,-0.135642 -0.339542,-0.204462 -0.113151,-0.0693 -0.225892,-0.139191 -0.338203,-0.209792 -0.111851,-0.0705 -0.223272,-0.141731 -0.334273,-0.213592 -0.110991,-0.0719 -0.221551,-0.144441 -0.331682,-0.217651 -0.110561,-0.0732 -0.220682,-0.146981 -0.330363,-0.221462 -0.109251,-0.0745 -0.218052,-0.149691 -0.326403,-0.225522 -0.10838,-0.0758 -0.216301,-0.152231 -0.323762,-0.229322 -0.107521,-0.0771 -0.214582,-0.154941 -0.321183,-0.233382 -0.106651,-0.078 -0.212831,-0.156641 -0.318542,-0.235921 -0.105801,-0.0798 -0.211132,-0.160202 -0.315983,-0.241242 -0.104931,-0.081 -0.209362,-0.162732 -0.313312,-0.245052 -0.103611,-0.082 -0.206732,-0.164612 -0.309363,-0.247842 -0.102741,-0.0833 -0.204981,-0.167152 -0.30672,-0.251642 -0.101876,-0.0846 -0.203248,-0.169812 -0.304107,-0.255632 -0.10059,-0.0859 -0.200667,-0.172452 -0.300225,-0.259562 -0.09972,-0.0868 -0.198931,-0.174202 -0.297613,-0.262173 -0.09884,-0.0881 -0.197146,-0.176841 -0.294924,-0.266132 -0.09754,-0.0894 -0.194549,-0.179451 -0.291017,-0.270042 -0.09623,-0.0903 -0.191917,-0.181201 -0.287061,-0.272672 -0.09582,-0.0921 -0.191084,-0.184702 -0.285791,-0.277902 -0.09408,-0.0925 -0.187598,-0.185592 -0.280565,-0.279222 -0.09321,-0.0938 -0.185851,-0.188232 -0.277927,-0.283153 -0.09233,-0.0952 -0.184083,-0.190841 -0.275264,-0.287082 -0.09103,-0.096 -0.181483,-0.192612 -0.271358,-0.289722 -0.08973,-0.0973 -0.178887,-0.195232 -0.267451,-0.293633 -0.0884,-0.0982 -0.176218,-0.196981 -0.263443,-0.296272 -0.08756,-0.0991 -0.174534,-0.198732 -0.260906,-0.298882 -0.08624,-0.100431 -0.171885,-0.201392 -0.256923,-0.302843 -0.085,-0.101291 -0.169387,-0.203122 -0.253169,-0.305422 -0.08408,-0.102641 -0.167537,-0.205752 -0.250378,-0.309383 -0.0823,-0.103501 -0.163989,-0.207512 -0.245051,-0.311992 -0.08146,-0.103961 -0.162299,-0.208392 -0.242514,-0.313313 -0.08012,-0.105711 -0.159608,-0.211892 -0.238456,-0.318542 -0.07885,-0.106141 -0.157071,-0.212782 -0.23465,-0.319863 -0.07751,-0.107021 -0.154369,-0.214532 -0.230592,-0.322473 -0.07624,-0.10837 -0.151843,-0.217171 -0.226786,-0.326432 -0.07489,-0.108801 -0.14914,-0.218032 -0.222728,-0.327723 -0.07363,-0.110121 -0.146609,-0.220672 -0.218923,-0.331652 -0.07228,-0.110551 -0.143905,-0.221562 -0.214864,-0.332973 -0.07102,-0.111871 -0.141379,-0.224172 -0.211058,-0.336903 -0.06976,-0.112331 -0.138843,-0.225062 -0.207254,-0.338203 -0.06841,-0.11365 -0.136148,-0.227701 -0.203195,-0.342152 -0.06715,-0.114081 -0.133611,-0.228562 -0.199389,-0.343453 -0.0658,-0.114961 -0.130912,-0.230342 -0.195331,-0.346093 -0.06402,-0.115421 -0.127361,-0.231222 -0.190003,-0.347383 -0.06277,-0.11674 -0.124834,-0.233841 -0.186199,-0.351312 -0.06141,-0.117171 -0.12213,-0.234722 -0.182139,-0.352633 -0.06015,-0.117631 -0.119593,-0.235612 -0.178335,-0.353953 -0.05846,-0.11894 -0.116133,-0.238221 -0.173088,-0.357852 C 10.139299,43.85635 10.08247,43.737049 10.026359,43.617418 9.9706594,43.49691 9.9156091,43.376287 9.8612844,43.25536 9.8072894,43.134635 9.7540174,43.013606 9.7014684,42.892248 9.6340947,42.721752 9.5111911,42.578809 9.4132923,42.42381 Z"
       sodipodi:nodetypes="ccccccccccccccccccccccccccccccccccccccccccccccccccccccccccccccccccccccccccccccccccsccsccccccccccccccccccccccccccccccccsccccccccccccccccccccccccccccccccccccccccccccccccccccccccccccccccccscccccccccccccccccccscccccccccccccccccccccccccccsccccccccccccccccccccccssccccccccccscccccccccccccsscccccccccccccccccccccccccccsccccccccccccccccccccccccccccccccccccccccccccccccccccccccccccccccccccccccccccccccccccccccsccsccccccccscccccccccccccccccccccccccccc" />
    <path
       id="path3605"
       style="opacity:1;fill:none;fill-opacity:1;fill-rule:evenodd;stroke:#000000;stroke-width:4.6983;stroke-miterlimit:4;stroke-dasharray:none"
       d="m 66.425172,49.905835 c -0.0109,0.0371 -0.0218,0.0742 -0.0327,0.11136 -0.0373,0.126942 -0.0753,0.253673 -0.114151,0.380164 -0.039,0.126511 -0.0787,0.252792 -0.119231,0.378843 -0.0408,0.126101 -0.0823,0.251952 -0.124551,0.377543 -0.0416,0.125241 -0.084,0.250202 -0.127091,0.374933 -0.0434,0.125241 -0.0875,0.250202 -0.132421,0.374913 -0.0452,0.124381 -0.0911,0.248472 -0.137741,0.372293 -0.0464,0.123951 -0.0936,0.247612 -0.141551,0.371003 -0.0478,0.123081 -0.0963,0.245862 -0.145611,0.368363 -0.0495,0.12308 -0.0997,0.245891 -0.150682,0.368362 l -0.0127,0.0315 c -0.0466,0.111691 -0.0938,0.223111 -0.141551,0.334272 -0.0526,0.121361 -0.105811,0.242412 -0.159811,0.363133 -0.0535,0.120931 -0.107681,0.241522 -0.162611,0.361823 -0.0552,0.120061 -0.111061,0.239772 -0.167682,0.359183 -0.0569,0.119631 -0.114641,0.238942 -0.173011,0.357883 -0.0578,0.119201 -0.116311,0.238052 -0.175542,0.356563 -0.0596,0.117881 -0.11989,0.235432 -0.180871,0.352613 -0.0609,0.117481 -0.122581,0.234601 -0.184931,0.351342 -0.0622,0.117041 -0.125111,0.233712 -0.188732,0.349993 -0.0636,0.115751 -0.127851,0.231102 -0.192791,0.346093 -0.0653,0.115321 -0.131232,0.230232 -0.197872,0.344773 -0.0662,0.114461 -0.133081,0.228512 -0.200662,0.342162 -0.068,0.113601 -0.136661,0.226762 -0.205981,0.339523 -0.0693,0.112711 -0.139191,0.225032 -0.209792,0.336903 -0.0705,0.112281 -0.141731,0.224152 -0.213592,0.335593 -0.0719,0.11098 -0.144441,0.221531 -0.217651,0.331652 -0.0732,0.110121 -0.146982,0.219782 -0.221462,0.329013 -0.0745,0.109691 -0.149691,0.218952 -0.225522,0.327753 -0.0754,0.1084 -0.151391,0.216311 -0.228052,0.323792 -0.0771,0.107511 -0.154941,0.214562 -0.233382,0.321153 -0.0784,0.106671 -0.157481,0.212861 -0.237182,0.318562 -0.0798,0.105781 -0.160201,0.211112 -0.241242,0.315933 -0.0806,0.104491 -0.161891,0.208471 -0.243782,0.311992 -0.0824,0.104061 -0.165451,0.207612 -0.249112,0.310673 -0.0318,0.039 -0.0637,0.0779 -0.0956,0.116691 -0.0518,0.0635 -0.103781,0.126861 -0.156012,0.190001 -0.0846,0.101441 -0.169831,0.202412 -0.255652,0.302843 -0.0712,0.0838 -0.142821,0.167271 -0.214861,0.250382 -0.0145,0.017 -0.0289,0.0342 -0.0434,0.0512 -0.0872,0.0997 -0.175041,0.198912 -0.263442,0.297582 -0.0305,0.0337 -0.0612,0.0674 -0.0918,0.100961 -0.0578,0.0645 -0.115931,0.128761 -0.174272,0.192792 -0.0894,0.098 -0.179481,0.195431 -0.270092,0.292332 -0.0903,0.0962 -0.181172,0.191932 -0.272622,0.287082 -0.0916,0.0954 -0.183812,0.190202 -0.276582,0.284473 -0.093,0.0945 -0.186482,0.188451 -0.280563,0.281862 -0.0938,0.0932 -0.188231,0.185841 -0.283182,0.277902 -0.0951,0.0923 -0.190811,0.184092 -0.287062,0.275292 -0.0761,0.0716 -0.152531,0.142772 -0.229322,0.213592 -0.02,0.0188 -0.0402,0.0376 -0.0604,0.0563 -0.0974,0.0902 -0.195231,0.179731 -0.293652,0.268722 -0.0982,0.0884 -0.196982,0.176251 -0.296272,0.263492 -0.0991,0.0875 -0.198782,0.174501 -0.298933,0.260882 -0.100401,0.0862 -0.201341,0.171891 -0.302792,0.256922 -0.101321,0.0849 -0.203142,0.169231 -0.305453,0.252912 -0.10218,0.0841 -0.204871,0.167531 -0.308062,0.250382 -0.103501,0.0823 -0.207482,0.164001 -0.311973,0.245052 -0.10441,0.0815 -0.209281,0.162301 -0.314662,0.242512 -0.105251,0.0801 -0.210982,0.159611 -0.317193,0.238452 -0.10659,0.0789 -0.213691,0.157081 -0.321232,0.234652 -0.107001,0.0775 -0.214482,0.154361 -0.322423,0.230592 -0.107911,0.0763 -0.216311,0.151851 -0.325132,0.226781 -0.109231,0.0749 -0.218902,0.149132 -0.329023,0.222732 -0.110121,0.0736 -0.220702,0.146601 -0.331683,0.218922 -0.110551,0.0723 -0.221561,0.143911 -0.332972,0.214862 -0.111871,0.071 -0.224172,0.141371 -0.336883,0.211061 -0.112331,0.0697 -0.225062,0.138681 -0.338203,0.207002 -0.113211,0.0684 -0.226812,0.136151 -0.340842,0.203192 -0.114101,0.0671 -0.228612,0.133431 -0.343503,0.199131 -0.114961,0.0654 -0.230312,0.130061 -0.346063,0.194062 -0.115851,0.0645 -0.232062,0.128381 -0.348673,0.191521 -0.116311,0.0628 -0.232972,0.124831 -0.350023,0.186202 -0.117171,0.0614 -0.234721,0.122121 -0.352632,0.182141 -0.118061,0.0601 -0.236502,0.119611 -0.355273,0.178332 -0.118491,0.0584 -0.237342,0.116061 -0.356513,0.173011 -0.119401,0.0571 -0.239142,0.113521 -0.359233,0.169201 -0.119841,0.0558 -0.240002,0.110811 -0.360503,0.165142 -0.120721,0.0545 -0.241752,0.108291 -0.363113,0.161341 -0.121591,0.0532 -0.243502,0.105581 -0.365723,0.157281 -0.121641,0.0515 -0.243552,0.102201 -0.365803,0.152201 -0.122471,0.0497 -0.245282,0.0987 -0.368333,0.146882 -0.123361,0.0489 -0.247002,0.097 -0.370953,0.144341 -0.123411,0.0467 -0.247102,0.0926 -0.371053,0.137751 -0.124251,0.0457 -0.248782,0.0907 -0.373563,0.134951 -0.125141,0.044 -0.250552,0.0873 -0.376203,0.129881 -0.125161,0.0427 -0.250602,0.0846 -0.376283,0.125821 -0.125621,0.0409 -0.251472,0.0811 -0.377543,0.120501 -0.126481,0.0396 -0.253222,0.0786 -0.380163,0.116691 -0.126511,0.0379 -0.253222,0.075 -0.380163,0.111361 -0.127371,0.0366 -0.254972,0.0725 -0.382773,0.107561 -0.127391,0.0348 -0.254982,0.0689 -0.382773,0.102231 -0.128281,0.0335 -0.256782,0.0662 -0.385463,0.0982 -0.128261,0.0322 -0.256732,0.0637 -0.385383,0.0944 -0.128711,0.03 -0.257612,0.0593 -0.386673,0.0878 -0.129201,0.0292 -0.258542,0.0576 -0.388073,0.0852 -0.105631,0.0218 -0.211362,0.0433 -0.317193,0.0642 -0.0241,0.0051 -0.048,0.0101 -0.072,0.0152 -0.129631,0.0262 -0.259412,0.0515 -0.389343,0.0761 -0.130111,0.0238 -0.260342,0.0471 -0.390714,0.0695 -0.130511,0.0226 -0.261142,0.0444 -0.391903,0.0654 -0.130541,0.0213 -0.261202,0.0419 -0.391983,0.0616 -0.131001,0.0195 -0.262092,0.0383 -0.393303,0.0563 -0.130971,0.0178 -0.262062,0.035 -0.393243,0.0512 -0.131431,0.0165 -0.262972,0.0322 -0.394593,0.0472 -0.131451,0.0147 -0.262982,0.0287 -0.394593,0.0419 -0.131881,0.0129 -0.263833,0.0254 -0.395864,0.0368 -0.131451,0.0117 -0.263002,0.0226 -0.394593,0.0327 -0.132341,0.0104 -0.264742,0.02 -0.397203,0.0289 -0.113141,0.0074 -0.226332,0.0142 -0.339543,0.0203 l -0.0563,0.0025 c -0.131911,0.0066 -0.263872,0.0127 -0.395863,0.0178 -0.132371,0.0058 -0.264772,0.0109 -0.397203,0.0152 -0.132372,0.0041 -0.264783,0.0076 -0.397204,0.0101 -0.132391,0.0025 -0.264792,0.0041 -0.397203,0.0051 -0.0516,1.2e-4 -0.103171,1.2e-4 -0.154741,0 -0.132421,-5.3e-5 -0.264832,-8.98e-4 -0.397233,-0.0025 -0.132421,-0.0017 -0.264822,-0.0043 -0.397203,-0.0076 -0.131991,-0.0036 -0.263933,-0.0076 -0.395864,-0.0127 -0.132441,-0.0051 -0.264842,-0.0112 -0.397203,-0.0178 -0.131991,-0.0061 -0.263952,-0.0127 -0.395863,-0.0203 -0.132041,-0.0079 -0.264012,-0.0167 -0.395933,-0.0261 -0.132011,-0.0094 -0.263972,-0.0193 -0.395863,-0.0302 -0.132041,-0.0114 -0.264032,-0.0238 -0.395933,-0.0368 -0.131611,-0.0124 -0.263123,-0.0254 -0.394574,-0.0393 -0.131611,-0.0145 -0.263122,-0.0298 -0.394543,-0.0459 -0.131611,-0.0157 -0.263142,-0.0324 -0.394573,-0.0497 -0.131231,-0.0172 -0.262322,-0.0351 -0.393323,-0.0538 -0.130771,-0.019 -0.261442,-0.0386 -0.391983,-0.0591 -0.130771,-0.0205 -0.261402,-0.042 -0.391903,-0.0642 -0.130361,-0.0221 -0.260592,-0.0447 -0.390683,-0.0682 -0.130362,-0.0236 -0.260573,-0.0481 -0.390634,-0.0733 -0.129931,-0.0251 -0.259712,-0.0508 -0.389343,-0.0774 -0.129501,-0.0268 -0.258852,-0.0544 -0.388023,-0.0827 -0.105881,-0.0236 -0.211642,-0.0475 -0.317272,-0.072 0.0672,0.0357 0.134501,0.0711 0.201931,0.106291 0.117631,0.0606 0.235642,0.120441 0.353983,0.179602 0.118061,0.0597 0.236472,0.118751 0.355253,0.177061 0.118951,0.058 0.238252,0.115191 0.357883,0.171742 0.119381,0.0567 0.239092,0.11268 0.359153,0.167931 0.120291,0.0554 0.240912,0.109971 0.361843,0.163871 0.121151,0.0536 0.242612,0.106421 0.364382,0.158551 0.121641,0.0523 0.243552,0.103881 0.365803,0.154742 0.122041,0.051 0.244362,0.101191 0.366993,0.150681 0.122501,0.0493 0.245332,0.0978 0.368413,0.145611 0.123361,0.0479 0.247032,0.0951 0.370953,0.141551 0.124251,0.0467 0.248782,0.0926 0.373593,0.137751 0.124301,0.0449 0.248852,0.089 0.373663,0.132421 0.125141,0.0436 0.250532,0.0865 0.376173,0.128611 0.125191,0.0418 0.250602,0.0829 0.376273,0.123291 0.126031,0.0405 0.252312,0.0802 0.378813,0.119231 0.126481,0.0392 0.253222,0.0777 0.380163,0.115421 0.126941,0.0375 0.254112,0.0741 0.381503,0.110101 0.127371,0.0357 0.254972,0.0706 0.382773,0.104771 0.127832,0.0344 0.255883,0.0681 0.384114,0.100961 0.128281,0.0331 0.256752,0.0654 0.385413,0.0969 0.128281,0.0314 0.256742,0.062 0.385383,0.0918 0.129171,0.0296 0.258512,0.0584 0.388023,0.0865 0.129201,0.0283 0.258552,0.0559 0.388073,0.0827 0.129601,0.0266 0.259372,0.0524 0.389293,0.0774 0.130081,0.0251 0.260312,0.0496 0.390683,0.0733 0.130081,0.0236 0.260292,0.0463 0.390633,0.0682 0.130511,0.0221 0.261182,0.0436 0.391953,0.0642 0.130542,0.0205 0.261203,0.0402 0.391984,0.0591 0.130971,0.019 0.262062,0.0375 0.393253,0.055 0.131431,0.017 0.262962,0.0331 0.394593,0.0485 0.131431,0.016 0.262972,0.0314 0.394593,0.0459 0.131451,0.014 0.262982,0.027 0.394593,0.0393 0.131451,0.0129 0.262972,0.0254 0.394563,0.0368 0.131911,0.0109 0.263862,0.0208 0.395884,0.0302 0.132341,0.0094 0.264752,0.0183 0.397203,0.0261 0.131941,0.0076 0.263902,0.0142 0.395913,0.0203 0.132371,0.0066 0.264772,0.0127 0.397203,0.0178 0.131941,0.0051 0.263902,0.0091 0.395883,0.0127 0.132391,0.0033 0.264792,0.0058 0.397203,0.0076 0.132392,0.0016 0.264803,0.0025 0.397204,0.0025 h 0.0406 c 0.0381,6.6e-5 0.0761,6.6e-5 0.114151,0 0.132421,-8.98e-4 0.264812,-0.0025 0.397203,-0.0051 0.132421,-0.0025 0.264822,-0.0061 0.397203,-0.0101 0.131991,-0.0043 0.263952,-0.0094 0.395883,-0.0152 0.132441,-0.0051 0.264843,-0.0112 0.397204,-0.0178 0.0393,-0.0025 0.0786,-0.0051 0.117961,-0.0076 0.0926,-0.0046 0.185281,-0.0096 0.277882,-0.0152 0.132041,-0.0089 0.264002,-0.0185 0.395913,-0.0289 0.132011,-0.0101 0.263992,-0.0211 0.395883,-0.0327 0.132041,-0.0114 0.264012,-0.0238 0.395913,-0.0368 0.131611,-0.0132 0.263142,-0.0271 0.394593,-0.0419 0.131171,-0.015 0.262263,-0.0307 0.393254,-0.0472 0.131631,-0.0162 0.263162,-0.0334 0.394593,-0.0512 0.131201,-0.018 0.262282,-0.0368 0.393253,-0.0563 0.130791,-0.0198 0.261442,-0.0403 0.391983,-0.0616 0.130341,-0.0211 0.260542,-0.0428 0.390613,-0.0654 0.130361,-0.0223 0.260612,-0.0456 0.390713,-0.0695 0.130361,-0.0246 0.260562,-0.0499 0.390613,-0.0761 0.129931,-0.0254 0.259732,-0.0516 0.389364,-0.0786 0.129071,-0.0277 0.257992,-0.0561 0.386733,-0.0852 0.129501,-0.0285 0.258862,-0.0577 0.388023,-0.0878 0.128641,-0.0307 0.257112,-0.0622 0.385383,-0.0944 0.128231,-0.032 0.256272,-0.0649 0.384113,-0.0984 0.128231,-0.0333 0.256252,-0.0674 0.384063,-0.10223 0.127371,-0.0351 0.254552,-0.071 0.381503,-0.107561 0.127401,-0.0364 0.254562,-0.0735 0.381503,-0.111361 0.126511,-0.0382 0.252792,-0.077 0.378813,-0.116691 0.126531,-0.0394 0.252812,-0.0796 0.378863,-0.120491 0.125641,-0.0412 0.251062,-0.0831 0.376203,-0.125821 0.125241,-0.0425 0.250222,-0.0858 0.374933,-0.129881 0.124811,-0.0438 0.249342,-0.0884 0.373593,-0.133691 0.124381,-0.0456 0.248472,-0.0919 0.372293,-0.139011 0.123511,-0.0473 0.246752,-0.0953 0.369683,-0.144091 0.123541,-0.0482 0.246782,-0.0972 0.369703,-0.146882 0.122221,-0.0499 0.244112,-0.10058 0.365723,-0.151951 0.122221,-0.0517 0.244142,-0.104131 0.365723,-0.157281 0.120931,-0.0526 0.241552,-0.105831 0.361843,-0.159821 0.120931,-0.0543 0.241552,-0.109381 0.361823,-0.165142 0.120061,-0.0561 0.239772,-0.112941 0.359153,-0.170471 0.119201,-0.0569 0.238071,-0.114631 0.356592,-0.173011 0.118771,-0.0587 0.237212,-0.118191 0.355273,-0.178332 0.117911,-0.06 0.235462,-0.120721 0.352633,-0.182141 0.117021,-0.0614 0.233662,-0.123441 0.349943,-0.186202 0.116641,-0.0631 0.232872,-0.126811 0.348753,-0.191271 0.115751,-0.064 0.231102,-0.128691 0.346062,-0.194062 0.114891,-0.0658 0.229372,-0.132241 0.343453,-0.199391 0.114001,-0.067 0.227622,-0.134782 0.340813,-0.203192 0.113161,-0.0683 0.225902,-0.137311 0.338223,-0.207002 0.112731,-0.0697 0.225031,-0.140031 0.336932,-0.211061 0.111411,-0.071 0.222422,-0.142592 0.332973,-0.214862 0.110981,-0.0723 0.221532,-0.145281 0.331633,-0.218922 0.109691,-0.0737 0.218921,-0.147991 0.327722,-0.222982 0.109261,-0.0749 0.218062,-0.150531 0.326403,-0.226791 0.107961,-0.0762 0.215452,-0.153092 0.322503,-0.230592 0.10753,-0.0776 0.214581,-0.155782 0.321182,-0.234652 0.106211,-0.0789 0.211972,-0.158491 0.317253,-0.238712 0.10535,-0.0802 0.210221,-0.161061 0.314612,-0.242512 0.104031,-0.0811 0.207612,-0.162761 0.310673,-0.245052 0.10363,-0.0828 0.206751,-0.166311 0.309362,-0.250382 0.102331,-0.0837 0.204132,-0.168011 0.305453,-0.252912 0.0249,-0.0213 0.0497,-0.0427 0.0746,-0.0642 0.0763,-0.0639 0.152331,-0.128181 0.228052,-0.192791 0.100151,-0.0864 0.199772,-0.173342 0.298882,-0.260882 0.0495,-0.0436 0.0989,-0.0873 0.148142,-0.131151 0.0495,-0.044 0.0989,-0.0881 0.148151,-0.132421 0.0984,-0.0886 0.196291,-0.177702 0.293632,-0.267422 0.0971,-0.0899 0.193702,-0.180342 0.289752,-0.271353 0.0962,-0.0912 0.191932,-0.182951 0.287063,-0.275292 0.0949,-0.0921 0.189341,-0.184701 0.283182,-0.277902 0.0941,-0.0929 0.187541,-0.186482 0.280492,-0.280542 0.0928,-0.0947 0.184982,-0.189952 0.276612,-0.285763 0.0915,-0.0952 0.182372,-0.190861 0.272703,-0.287112 0.0906,-0.0965 0.180591,-0.193481 0.270012,-0.291012 0.0893,-0.0978 0.177981,-0.196092 0.266102,-0.294953 0.088,-0.0987 0.175371,-0.197871 0.262172,-0.297562 0.0871,-0.0995 0.173671,-0.199622 0.259612,-0.300202 0.0858,-0.100861 0.171001,-0.202252 0.255582,-0.304133 0.0845,-0.101751 0.168361,-0.204001 0.251652,-0.306772 0.0837,-0.103071 0.166691,-0.206622 0.249112,-0.310673 0.0819,-0.103501 0.163141,-0.207511 0.243782,-0.311992 0.081,-0.104821 0.161461,-0.210142 0.241252,-0.315933 0.0797,-0.105711 0.158751,-0.211891 0.237192,-0.318542 0.078,-0.106591 0.155371,-0.213672 0.232112,-0.321183 0.0771,-0.107481 0.153521,-0.215402 0.229322,-0.323793 0.0758,-0.10878 0.151011,-0.218031 0.225521,-0.327722 0.0745,-0.109231 0.148302,-0.218922 0.221462,-0.329043 0.0732,-0.110121 0.145761,-0.220672 0.217652,-0.331652 0.0683,-0.105811 0.136071,-0.212002 0.203192,-0.318563 l 0.0101,-0.0178 c 0.0706,-0.111871 0.140541,-0.224202 0.209791,-0.336913 0.0688,-0.112761 0.136981,-0.225952 0.204462,-0.339523 0.068,-0.11365 0.135311,-0.227701 0.201922,-0.342162 0.0667,-0.114531 0.132771,-0.229452 0.198121,-0.344773 0.0649,-0.114961 0.129221,-0.230342 0.192792,-0.346063 0.0636,-0.116281 0.126531,-0.232972 0.188731,-0.350023 0.0624,-0.116741 0.124001,-0.233841 0.184932,-0.351312 0.061,-0.117171 0.121281,-0.234722 0.180871,-0.352633 0.0593,-0.118491 0.117911,-0.237362 0.175802,-0.356563 0.058,-0.118951 0.11519,-0.238252 0.171741,-0.357883 0.0566,-0.119381 0.112501,-0.239112 0.167681,-0.359183 0.0554,-0.120271 0.109971,-0.240892 0.163872,-0.361823 0.054,-0.120721 0.10725,-0.241752 0.159821,-0.363113 0.0523,-0.121611 0.103881,-0.243532 0.154741,-0.365753 0.0505,-0.122041 0.100351,-0.244392 0.149411,-0.367043 0.0497,-0.12293 0.0987,-0.246161 0.146881,-0.369682 0.0479,-0.123361 0.0951,-0.247032 0.141552,-0.370973 0.0461,-0.123841 0.0916,-0.247942 0.136221,-0.372323 0.0453,-0.124711 0.0899,-0.249672 0.133691,-0.374913 0.0124,-0.0367 0.0246,-0.0734 0.0368,-0.110091 -0.117301,-0.0568 -0.234402,-0.114081 -0.351293,-0.171742 -0.151111,-0.0749 -0.301892,-0.150481 -0.452303,-0.226782 -0.149792,-0.0763 -0.299223,-0.153191 -0.448294,-0.230841 -0.149391,-0.0775 -0.298422,-0.155732 -0.447084,-0.234652 -0.148501,-0.0793 -0.296632,-0.159282 -0.444393,-0.239982 -0.148071,-0.0806 -0.295742,-0.161821 -0.443044,-0.243782 -0.147231,-0.0814 -0.294062,-0.163521 -0.440503,-0.246322 -0.146321,-0.0832 -0.292252,-0.167071 -0.437794,-0.251642 -0.145461,-0.0845 -0.290542,-0.169731 -0.435203,-0.255632 -0.0761,-0.0457 -0.152151,-0.0917 -0.228052,-0.137741 l -0.0563,-0.034 c -0.0494,-0.0296 -0.0988,-0.0593 -0.148152,-0.089 -0.144191,-0.0872 -0.287952,-0.174982 -0.431303,-0.263492 -0.142871,-0.0885 -0.285312,-0.177622 -0.427343,-0.267422 -0.142442,-0.0902 -0.284423,-0.181102 -0.426004,-0.272653 -0.141171,-0.0911 -0.281892,-0.182871 -0.422193,-0.275292 -0.140691,-0.0928 -0.280943,-0.186371 -0.420744,-0.280542 -0.139851,-0.0937 -0.279252,-0.188122 -0.418213,-0.283152 -0.138511,-0.0951 -0.276582,-0.190762 -0.414203,-0.287113 -0.105831,-0.0738 -0.211952,-0.150381 -0.301973,-0.214251 z"
       sodipodi:nodetypes="ccccccccsscccccccccccccccccccccccccccccccccccccccccccccscccscccccccccccccccccccssccccccccccccccccccccccccccccccccccccccccccccccccccccccccccccccccsccccccccccccccccccccccccccccccscccccccccccccccccccccccccccccccccccccccccccccccccccccccccccccccccccscccccccccscccccccccccccccccccccccccccccccccccccccscccccccccccc" />
    <path
       id="path4164"
       style="opacity:1;fill:none;fill-opacity:1;fill-rule:evenodd;stroke:#000000;stroke-width:4.6983;stroke-miterlimit:4;stroke-dasharray:none"
       d="m 9.2887373,41.894134 c 0.035048,0.0889 0.070477,0.177552 0.1062903,0.266103 0.050002,0.122651 0.1007399,0.245022 0.1522057,0.367073 0.051699,0.12179 0.1041264,0.243271 0.1572791,0.364432 0.052549,0.121361 0.1058211,0.242392 0.159816,0.363113 0.054324,0.120931 0.1093725,0.241552 0.1651436,0.361823 0.05611,0.119631 0.112936,0.238932 0.17047,0.357883 0.05695,0.119631 0.114624,0.238912 0.173007,0.357863 0.05874,0.118341 0.118185,0.236322 0.178335,0.353953 0.06001,0.117911 0.120725,0.235462 0.182139,0.352633 0.06136,0.117481 0.123431,0.234572 0.186199,0.351312 0.06264,0.116181 0.125978,0.231962 0.190003,0.347383 0.06442,0.115751 0.12953,0.231122 0.195331,0.346093 0.06578,0.114891 0.132241,0.229372 0.199389,0.343453 0.06705,0.114461 0.134781,0.228512 0.203195,0.342162 0.06841,0.113141 0.137497,0.225872 0.207254,0.338203 0.06968,0.112731 0.140034,0.225032 0.211058,0.336913 0.07096,0.111411 0.142581,0.222422 0.214864,0.332973 0.07231,0.11098 0.145288,0.221531 0.218923,0.331652 0.07359,0.109691 0.147835,0.218922 0.222728,0.327723 0.07494,0.109261 0.150539,0.218062 0.226786,0.326432 0.07622,0.107941 0.153087,0.215452 0.230592,0.322473 0.07758,0.107071 0.155797,0.213692 0.23465,0.319863 0.07885,0.10664 0.158334,0.212831 0.238456,0.318542 0.08021,0.104921 0.161054,0.209362 0.242514,0.313313 0.08106,0.10449 0.162746,0.208491 0.245051,0.311992 0.08284,0.103631 0.166302,0.206742 0.250378,0.309383 0.08378,0.10231 0.168172,0.204131 0.253169,0.305422 0.08504,0.101441 0.170678,0.202412 0.256923,0.302843 0.08637,0.10015 0.173342,0.199771 0.260906,0.298882 0.08722,0.0993 0.17504,0.198041 0.263443,0.296272 0.08856,0.0984 0.177716,0.196292 0.267451,0.293633 0.08987,0.0971 0.180329,0.193681 0.271358,0.289722 0.09118,0.0962 0.182936,0.191931 0.275264,0.287082 0.09208,0.0949 0.184721,0.189322 0.277927,0.283153 0.09297,0.0936 0.186489,0.186701 0.280566,0.279222 0.09471,0.0932 0.189973,0.185841 0.285791,0.277902 0.09514,0.0914 0.190833,0.182341 0.287061,0.272672 0.09647,0.0906 0.193473,0.180622 0.291017,0.270042 0.09778,0.0893 0.196087,0.178002 0.294923,0.266132 0.09868,0.088 0.197888,0.175372 0.297614,0.262173 0.09956,0.0871 0.199632,0.173641 0.300225,0.259562 0.100859,0.0858 0.202229,0.171031 0.304107,0.255632 0.101737,0.0845 0.203981,0.168361 0.30672,0.251642 0.102621,0.0832 0.205742,0.165851 0.309363,0.247842 0.10395,0.0823 0.208391,0.164001 0.313312,0.245052 0.104841,0.081 0.210172,0.161461 0.315983,0.241242 0.105711,0.0793 0.211891,0.157911 0.318542,0.235921 0.106591,0.0784 0.213652,0.156242 0.321183,0.233382 0.107461,0.0771 0.215392,0.153522 0.323762,0.229322 0.108351,0.0758 0.217152,0.150991 0.326403,0.225522 0.109681,0.0745 0.219802,0.148301 0.330363,0.221462 0.110131,0.0732 0.220691,0.145761 0.331682,0.217651 0.111001,0.0719 0.222422,0.143072 0.334273,0.213592 0.112311,0.0706 0.225052,0.140531 0.338203,0.209792 0.112771,0.0688 0.225952,0.136981 0.339542,0.204462 0.113631,0.068 0.227672,0.135311 0.342103,0.201921 0.114541,0.0662 0.229472,0.131761 0.344793,0.196602 0.114971,0.0654 0.230322,0.130061 0.346063,0.194061 0.115871,0.0636 0.232112,0.126511 0.348732,0.188732 0.116741,0.0624 0.233842,0.124001 0.351313,0.184931 0.117611,0.061 0.235572,0.121281 0.353903,0.180872 0.118071,0.0593 0.236502,0.117911 0.355273,0.175801 0.118941,0.058 0.238232,0.115191 0.357863,0.171741 0.119861,0.0566 0.240052,0.112511 0.360573,0.167682 0.120261,0.0554 0.240852,0.109971 0.361763,0.163871 0.120721,0.0536 0.241762,0.106421 0.363113,0.158551 0.121611,0.0523 0.243531,0.103881 0.365772,0.154742 0.122041,0.051 0.244362,0.10119 0.367023,0.150681 0.122931,0.0497 0.246172,0.0987 0.369683,0.146881 0.123391,0.0479 0.247032,0.0951 0.370973,0.141551 0.123821,0.0461 0.247922,0.0916 0.372293,0.136221 0.124281,0.0449 0.248832,0.089 0.373643,0.132421 0.125141,0.0436 0.250552,0.0865 0.376203,0.128611 0.125591,0.0419 0.251442,0.083 0.377543,0.123291 0.126051,0.0405 0.252352,0.0802 0.378893,0.119231 0.126481,0.0392 0.253222,0.0777 0.380163,0.115421 0.126911,0.0375 0.254062,0.0741 0.381423,0.110101 0.127372,0.0357 0.254973,0.0706 0.382774,0.104771 0.127421,0.0344 0.255032,0.0681 0.382853,0.100961 0.128281,0.0331 0.256752,0.0654 0.385413,0.0969 0.128711,0.0314 0.257642,0.062 0.386733,0.0918 0.128721,0.0296 0.257602,0.0584 0.386653,0.0865 0.129631,0.0283 0.259412,0.0559 0.389373,0.0827 0.129171,0.0266 0.258512,0.0524 0.387993,0.0774 0.130081,0.0251 0.260332,0.0496 0.390713,0.0733 0.130081,0.0236 0.260292,0.0463 0.390633,0.0682 0.130511,0.0221 0.261172,0.0436 0.391954,0.0642 0.130971,0.0205 0.262052,0.0402 0.393253,0.0591 0.130971,0.019 0.262062,0.0375 0.393253,0.055 0.131001,0.0172 0.262122,0.0339 0.393323,0.0497 0.131431,0.0157 0.262972,0.0305 0.394593,0.0446 0.131431,0.0142 0.262962,0.0279 0.394573,0.0406 0.131891,0.0127 0.263852,0.0244 0.395883,0.0355 0.131912,0.0109 0.263883,0.0208 0.395914,0.0302 0.131911,0.0094 0.263852,0.0183 0.395863,0.0261 0.131911,0.0076 0.263882,0.0142 0.395883,0.0203 0.132371,0.0066 0.264772,0.0127 0.397203,0.0178 0.132371,0.0051 0.264782,0.0091 0.397203,0.0127 0.131961,0.0033 0.263932,0.0058 0.395913,0.0076 0.132392,0.0012 0.264823,0.0017 0.397234,0.0013 0.052,1.21e-4 0.104011,1.21e-4 0.156011,0 0.132421,-8.98e-4 0.264812,-0.0025 0.397203,-0.0051 0.131991,-0.0025 0.263942,-0.0061 0.395883,-0.0101 0.132421,-0.0036 0.264832,-0.0076 0.397203,-0.0127 0.132012,-0.0061 0.263983,-0.0127 0.395914,-0.0203 0.132441,-0.0068 0.264852,-0.0145 0.397203,-0.0228 0.132011,-0.0089 0.263982,-0.0185 0.395883,-0.0289 0.132041,-0.0101 0.264012,-0.0211 0.395913,-0.0327 0.131611,-0.0114 0.263132,-0.0238 0.394593,-0.0368 0.131581,-0.0132 0.263092,-0.0271 0.394513,-0.0419 0.131632,-0.015 0.263163,-0.0307 0.394594,-0.0472 0.131201,-0.0162 0.262322,-0.0334 0.393323,-0.0512 0.131201,-0.018 0.262282,-0.0368 0.393243,-0.0563 0.130771,-0.0198 0.261432,-0.0403 0.391953,-0.0616 0.130791,-0.0211 0.261452,-0.0428 0.391983,-0.0654 0.130341,-0.0223 0.260562,-0.0456 0.390633,-0.0695 0.129931,-0.0241 0.259712,-0.0489 0.389343,-0.0746 0.129961,-0.0258 0.259743,-0.0525 0.389364,-0.0799 0.129501,-0.0272 0.258832,-0.0552 0.388003,-0.084 0.129101,-0.0289 0.258012,-0.0586 0.386753,-0.089 0.128641,-0.0307 0.257112,-0.0622 0.385383,-0.0944 0.128661,-0.0315 0.257122,-0.0638 0.385383,-0.0969 0.127801,-0.0337 0.255402,-0.0682 0.382793,-0.1035 0.127801,-0.0351 0.255392,-0.071 0.382773,-0.107561 0.126941,-0.0364 0.253652,-0.0735 0.380163,-0.111361 0.126941,-0.0381 0.253672,-0.077 0.380163,-0.116691 0.126081,-0.0394 0.251952,-0.0796 0.377543,-0.120491 0.126101,-0.0412 0.251922,-0.0831 0.377523,-0.125821 0.125241,-0.0425 0.250232,-0.0858 0.374933,-0.129881 0.124811,-0.0438 0.249362,-0.0884 0.373643,-0.133691 0.123921,-0.0456 0.247592,-0.0919 0.370973,-0.139011 0.123951,-0.0473 0.247592,-0.0953 0.370953,-0.144091 0.123111,-0.0482 0.245912,-0.0972 0.368413,-0.146882 0.122651,-0.0499 0.244972,-0.10058 0.367013,-0.151951 0.121791,-0.0517 0.243272,-0.104131 0.364453,-0.157281 0.121361,-0.0526 0.242392,-0.105811 0.363113,-0.159811 0.120491,-0.0543 0.240642,-0.109381 0.360473,-0.165142 0.120091,-0.0561 0.239822,-0.112941 0.359233,-0.170471 0.119181,-0.0569 0.238052,-0.114641 0.356542,-0.173011 0.118771,-0.0587 0.237192,-0.118191 0.355253,-0.178332 0.117911,-0.06 0.235462,-0.120721 0.352633,-0.182141 0.117051,-0.0614 0.233712,-0.123441 0.350023,-0.186202 0.116611,-0.0631 0.232822,-0.126811 0.348673,-0.191271 0.115781,-0.064 0.231152,-0.128691 0.346143,-0.194062 0.11489,-0.0658 0.229371,-0.132241 0.343452,-0.199392 0.114001,-0.067 0.227622,-0.134781 0.340813,-0.203191 0.113601,-0.0683 0.226792,-0.137311 0.339543,-0.207002 0.112281,-0.0697 0.224172,-0.140031 0.335612,-0.211061 0.111841,-0.071 0.223262,-0.142572 0.334243,-0.214862 0.110551,-0.0723 0.220672,-0.145301 0.330363,-0.218922 0.110121,-0.0737 0.219781,-0.147991 0.329022,-0.222982 0.108831,-0.075 0.217202,-0.150551 0.325113,-0.226782 0.108391,-0.0763 0.216312,-0.153241 0.323763,-0.230841 0.1071,-0.0776 0.213721,-0.155812 0.319882,-0.234652 0.106211,-0.0788 0.211942,-0.158342 0.317223,-0.238452 0.105351,-0.0802 0.210251,-0.161061 0.314632,-0.242512 0.104491,-0.081 0.208472,-0.162731 0.311973,-0.245052 0.103191,-0.0828 0.205881,-0.166311 0.308092,-0.250382 0.102311,-0.0837 0.204132,-0.168011 0.305453,-0.252912 0.10147,-0.085 0.202411,-0.170672 0.302842,-0.256922 0.100581,-0.0863 0.200632,-0.173312 0.300152,-0.260882 0.0993,-0.0872 0.198042,-0.175092 0.296273,-0.263492 0.098,-0.0886 0.195431,-0.177702 0.292362,-0.267423 0.0975,-0.0899 0.194542,-0.180341 0.291022,-0.271352 0.0958,-0.0912 0.191072,-0.182951 0.285793,-0.275292 0.0949,-0.0921 0.189291,-0.184701 0.283102,-0.277902 0.0941,-0.0929 0.187592,-0.186482 0.280562,-0.280542 0.0928,-0.0947 0.184952,-0.189952 0.276582,-0.285763 0.0919,-0.0952 0.183232,-0.190861 0.273993,-0.287112 0.0902,-0.0965 0.179731,-0.193482 0.268742,-0.291012 0.0897,-0.0978 0.178891,-0.196092 0.267452,-0.294953 0.088,-0.0987 0.175361,-0.197871 0.262172,-0.297562 0.0871,-0.0995 0.173611,-0.199622 0.259532,-0.300202 0.0858,-0.100861 0.171052,-0.202252 0.255652,-0.304133 0.0845,-0.101751 0.168362,-0.204012 0.251642,-0.306772 0.0832,-0.103071 0.165852,-0.206622 0.247842,-0.310683 0.0806,-0.101341 0.160581,-0.203171 0.239982,-0.305452 4.54e-4,-0.0382 -0.0796,-0.0684 -0.106291,-0.0913 -0.136791,-0.0977 -0.273122,-0.196062 -0.409003,-0.295022 -0.135922,-0.09942 -0.2714,-0.199493 -0.406391,-0.300202 C 65.363995,49.13405 65.229427,49.033113 65.095326,48.931541 64.961132,48.829918 64.827403,48.727661 64.694162,48.62477 64.560855,48.521829 64.428026,48.418278 64.295688,48.314093 64.163675,48.209832 64.032134,48.104962 63.901095,47.999483 63.769488,47.89436 63.63838,47.788603 63.50777,47.682237 63.377482,47.575363 63.247702,47.467855 63.118428,47.359763 62.989459,47.252001 62.86098,47.143631 62.733018,47.034652 62.604917,46.925571 62.477316,46.81588 62.350245,46.705609 62.223004,46.595238 62.096283,46.484247 61.970082,46.372656 61.843701,46.261365 61.71785,46.149495 61.592539,46.037044 61.467478,45.924463 61.342977,45.811272 61.218976,45.697521 61.095205,45.58362 60.971974,45.469139 60.849263,45.354068 60.726362,45.239277 60.604011,45.123906 60.48219,45.007975 60.360169,44.891894 60.238688,44.775224 60.117757,44.657973 59.997036,44.540552 59.876865,44.422561 59.757254,44.30402 59.637393,44.185729 59.518112,44.066858 59.399371,43.947457 59.28083,43.827846 59.162869,43.707685 59.045468,43.586954 58.928217,43.466453 58.811556,43.345432 58.695445,43.223841 58.579054,43.10203 58.463254,42.979679 58.348033,42.856768 58.232962,42.734087 58.118481,42.610856 58.00458,42.487085 57.890809,42.363084 57.777638,42.238553 57.665037,42.113492 57.552146,41.988611 57.439845,41.86319 57.328154,41.737269 57.216564,41.611068 57.105583,41.484327 56.995182,41.357086 56.884481,41.230015 56.77436,41.102424 56.664849,40.974313 56.555868,40.846362 56.447477,40.717881 56.339716,40.5889 c -0.10809,-0.129271 -0.215551,-0.259062 -0.322422,-0.389343 -0.106801,-0.129701 -0.212962,-0.259922 -0.318543,-0.390633 -0.1055,-0.131481 -0.210401,-0.263442 -0.314662,-0.395913 -0.104181,-0.131911 -0.207762,-0.264323 -0.310703,-0.397204 -0.10332,-0.133231 -0.206011,-0.266942 -0.308062,-0.401133 -0.102001,-0.133661 -0.203372,-0.267812 -0.304103,-0.402433 -0.10025,-0.134981 -0.199901,-0.270462 -0.298882,-0.406393 -0.0994,-0.136301 -0.198142,-0.273082 -0.296272,-0.410324 -0.0981,-0.136761 -0.195562,-0.273952 -0.292363,-0.411613 -0.0968,-0.137621 -0.192891,-0.275722 -0.288352,-0.414253 -0.0955,-0.138511 -0.190311,-0.277462 -0.284502,-0.416864 -0.0937,-0.139831 -0.186802,-0.280092 -0.279222,-0.420793 -0.0929,-0.140281 -0.185052,-0.280982 -0.276613,-0.422113 -0.0916,-0.141141 -0.182471,-0.282723 -0.272702,-0.424734 -0.0902,-0.142461 -0.179781,-0.285352 -0.268672,-0.428663 -0.0889,-0.142921 -0.177241,-0.286242 -0.264842,-0.429984 -0.0872,-0.143781 -0.173722,-0.287992 -0.259562,-0.432593 -0.0863,-0.144671 -0.171972,-0.289752 -0.256922,-0.435234 -0.0846,-0.145561 -0.168442,-0.291502 -0.251652,-0.437843 -0.0833,-0.145991 -0.165902,-0.292372 -0.247842,-0.439134 -0.082,-0.146881 -0.163212,-0.294132 -0.243782,-0.441773 -0.0807,-0.147761 -0.160682,-0.295902 -0.239982,-0.444414 -0.0793,-0.148631 -0.157991,-0.297632 -0.235922,-0.447003 -0.0776,-0.149521 -0.154611,-0.299413 -0.230842,-0.449664 -0.0767,-0.149951 -0.152741,-0.300262 -0.228052,-0.450933 -0.0749,-0.150402 -0.149191,-0.301173 -0.222732,-0.452284 -0.0733,-0.151721 -0.145811,-0.303782 -0.217651,-0.456184 -0.0723,-0.151721 -0.143961,-0.303792 -0.214862,-0.456183 -0.0706,-0.153042 -0.140591,-0.306433 -0.209792,-0.460144 -0.0693,-0.153501 -0.137871,-0.307303 -0.205731,-0.461434 -0.0676,-0.153931 -0.134501,-0.308192 -0.200662,-0.462753 -0.0668,-0.154362 -0.132801,-0.309053 -0.198121,-0.464054 -0.065,-0.155691 -0.129272,-0.311683 -0.192792,-0.467984 -0.0632,-0.155711 -0.125701,-0.311712 -0.187462,-0.468004 -0.0619,-0.156571 -0.123011,-0.313442 -0.183411,-0.470593 -0.0157,-0.0415 -0.0315,-0.083 -0.0472,-0.124551 -0.0445,-0.115651 -0.0887,-0.231452 -0.132421,-0.347413 -0.0593,-0.157471 -0.117781,-0.315213 -0.175542,-0.473234 -0.0576,-0.158351 -0.114381,-0.316963 -0.170471,-0.475844 -0.0558,-0.158801 -0.110831,-0.317872 -0.165142,-0.477194 -0.0545,-0.159241 -0.10832,-0.318732 -0.161341,-0.478483 -0.0532,-0.159682 -0.105601,-0.319603 -0.157281,-0.479774 -0.0514,-0.160132 -0.102051,-0.320493 -0.151951,-0.481094 -0.0501,-0.160571 -0.0995,-0.321383 -0.148141,-0.482414 -0.0488,-0.161451 -0.0968,-0.323133 -0.144092,-0.485034 -0.0467,-0.161471 -0.0926,-0.323162 -0.137751,-0.485064 -0.0457,-0.161901 -0.0907,-0.324022 -0.134951,-0.486344 -0.044,-0.162781 -0.0872,-0.325772 -0.129631,-0.488964 -0.0423,-0.162791 -0.0838,-0.325782 -0.124551,-0.488964 -0.0409,-0.163241 -0.0811,-0.326662 -0.120501,-0.490283 -0.0392,-0.163682 -0.0777,-0.327553 -0.115421,-0.491599 -0.0379,-0.164132 -0.075,-0.328439 -0.111361,-0.492918 -0.0366,-0.164127 -0.0725,-0.328423 -0.107561,-0.492885 -0.0349,-0.164578 -0.0689,-0.329316 -0.10223,-0.494212 -0.0335,-0.165019 -0.0662,-0.330196 -0.0982,-0.495523 -0.0314,-0.165468 -0.062,-0.331082 -0.0918,-0.496837 -0.03,-0.165474 -0.0593,-0.331085 -0.0878,-0.496832 -0.0288,-0.165917 -0.0567,-0.331967 -0.084,-0.498146 -0.027,-0.16636 -0.0532,-0.332848 -0.0786,-0.499455 -0.0251,-0.166368 -0.0496,-0.332857 -0.0733,-0.499455 -0.0238,-0.166376 -0.0471,-0.332863 -0.0695,-0.499455 -0.0086,-0.0664 -0.017,-0.132825 -0.0254,-0.199263 -0.0134,-0.100905 -0.0265,-0.201844 -0.0393,-0.302823 -0.0208,-0.166826 -0.041,-0.33375 -0.0604,-0.500764 -0.019,-0.167275 -0.0375,-0.334636 -0.055,-0.502081 -0.0172,-0.16728 -0.0339,-0.334639 -0.0497,-0.502073 -0.016,-0.167724 -0.0314,-0.335521 -0.0459,-0.503387 -0.0079,-0.09262 -0.0155,-0.18526 -0.0228,-0.277917 -0.0061,-0.07514 -0.0119,-0.150301 -0.0178,-0.225467 -0.0129,-0.167739 -0.0254,-0.335535 -0.0368,-0.5033873 -0.0112,-0.1677454 -0.0218,-0.335545 -0.0315,-0.5033897 -0.0081,-0.149849 -0.0157,-0.2997328 -0.0228,-0.449646 l -0.0013,-0.055047 c -0.0084,-0.1681948 -0.016,-0.3364293 -0.0228,-0.5046961 -0.0066,-0.1682051 -0.0127,-0.336439 -0.0178,-0.5046989 -0.0051,-0.1682151 -0.0091,-0.3364503 -0.0127,-0.5047038 -0.0033,-0.1682204 -0.0058,-0.3364527 -0.0076,-0.5046961 -0.0016,-0.1682283 -0.0025,-0.3364626 -0.0025,-0.504699 v -0.06687 c 5.6e-5,-0.1682384 9.01e-4,-0.3364737 0.0025,-0.5047041 0.0017,-0.1686793 0.0043,-0.3373497 0.0076,-0.506005 0.0036,-0.1682534 0.0076,-0.3364867 0.0127,-0.5046991 0.0051,-0.1682613 0.0112,-0.3364977 0.0178,-0.504704 0.0061,-0.1678264 0.0127,-0.3356247 0.0203,-0.503387 0.0081,-0.1682734 0.0167,-0.3365087 0.0264,-0.5046991 0.0094,-0.1634713 0.0193,-0.3268996 0.0302,-0.4902799 l 0.0013,-0.01446 c 0.0109,-0.1678514 0.0228,-0.3356497 0.0353,-0.5033901 0.0124,-0.1678563 0.0254,-0.3356536 0.0393,-0.503387 l 0.0051,-0.05507 c -0.112251,-0.00801 -0.224552,-0.01545 -0.336883,-0.02232 -0.132371,-0.00781 -0.264762,-0.01483 -0.397203,-0.02105 -0.132371,-0.00604 -0.264772,-0.01128 -0.397203,-0.01573 -0.132371,-0.00561 -0.264772,-0.01043 -0.397203,-0.01446 -0.132391,-0.00299 -0.264793,-0.00519 -0.397204,-0.0066 -0.132401,-0.00164 -0.264802,-0.00248 -0.397203,-0.00254 v -0.00132 c -0.0516,3.187e-4 -0.103161,7.575e-4 -0.154741,0.00132 -0.132391,5.36e-5 -0.264812,8.992e-4 -0.397203,0.00254 -0.132421,0.00225 -0.264842,0.0053 -0.397233,0.00913 -0.131991,0.00403 -0.263943,0.00885 -0.395864,0.01446 -0.132441,0.00487 -0.264842,0.01054 -0.397203,0.017 -0.132011,0.00708 -0.263992,0.01494 -0.395913,0.02359 -0.132011,0.00839 -0.263982,0.01756 -0.395883,0.02752 -0.132041,0.01014 -0.264012,0.02106 -0.395913,0.03277 -0.131611,0.01189 -0.263142,0.02457 -0.394593,0.03803 -0.132041,0.01319 -0.263993,0.02718 -0.395864,0.04196 -0.131171,0.01451 -0.262262,0.02981 -0.393253,0.04589 l -0.0459,0.0066 c -0.116311,0.01468 -0.232542,0.02998 -0.348673,0.04589 -0.130771,0.01801 -0.261432,0.0368 -0.391983,0.05637 -0.131221,0.01931 -0.262322,0.03941 -0.393303,0.060301 -0.130341,0.02107 -0.260552,0.04292 -0.390633,0.065551 -0.130341,0.02282 -0.260562,0.04642 -0.390633,0.070801 -0.130361,0.02413 -0.260573,0.04904 -0.390634,0.074731 -0.129531,0.02588 -0.258882,0.05253 -0.388073,0.079961 -0.129501,0.02719 -0.258832,0.05515 -0.387993,0.083891 -0.129091,0.02894 -0.258012,0.05866 -0.386753,0.089141 -0.129071,0.03025 -0.257952,0.061281 -0.386653,0.093071 -0.128231,0.03201 -0.256272,0.06479 -0.384113,0.098321 -0.128261,0.03332 -0.256302,0.067401 -0.384143,0.1022569 -0.127341,0.03508 -0.254502,0.070911 -0.381423,0.1075078 -0.127401,0.03682 -0.254562,0.074391 -0.381503,0.1127339 -0.126511,0.0377 -0.252762,0.076141 -0.378813,0.1153469 -0.126531,0.03988 -0.252842,0.080521 -0.378893,0.121917 -0.125641,0.04076 -0.251042,0.082271 -0.376173,0.12453 -0.125241,0.04251 -0.250222,0.085771 -0.374933,0.1297811 -0.124811,0.04426 -0.249362,0.089281 -0.373643,0.135032 -0.124381,0.04558 -0.248502,0.091901 -0.372323,0.1389642 -0.123491,0.0469 -0.246702,0.094531 -0.369603,0.1428961 -0.123111,0.04864 -0.245912,0.098011 -0.368413,0.1481212 -0.122651,0.04996 -0.244972,0.1006548 -0.367023,0.1520792 -0.121791,0.05128 -0.243272,0.1032818 -0.364453,0.1560113 -0.121361,0.05302 -0.242392,0.1067668 -0.363113,0.1612362 -0.120931,0.05433 -0.241552,0.1093899 -0.361823,0.1651684 -0.119631,0.05565 -0.238942,0.1120229 -0.357883,0.1691003 -0.119631,0.0574 -0.238942,0.1155189 -0.357883,0.1743514 -0.118321,0.05872 -0.236291,0.118152 -0.353902,0.1782834 -0.117911,0.06003 -0.235452,0.120775 -0.352633,0.1822155 -0.117491,0.061351 -0.234622,0.123398 -0.351363,0.1861475 -0.116181,0.06267 -0.231982,0.126029 -0.347413,0.1900795 -0.115741,0.06442 -0.231102,0.1295291 -0.346063,0.1953306 -0.114881,0.065301 -0.229361,0.13128 -0.343452,0.1979436 -0.114461,0.06705 -0.228512,0.134781 -0.342163,0.2031946 -0.113141,0.068371 -0.225882,0.1374111 -0.338203,0.2071267 -0.112711,0.069681 -0.225012,0.1400341 -0.336883,0.2110586 -0.11142,0.071001 -0.222411,0.1426652 -0.332972,0.2149908 -0.111011,0.07275 -0.221582,0.1461661 -0.331703,0.2202417 -0.109671,0.073631 -0.218892,0.1479182 -0.327672,0.2228548 -0.109271,0.075381 -0.218092,0.1514193 -0.326453,0.2281056 -0.107931,0.076266 -0.215412,0.1531722 -0.322423,0.2307184 -0.107091,0.07758 -0.213721,0.1557977 -0.319882,0.2346505 -0.106211,0.078026 -0.211952,0.156683 -0.317223,0.2359695 -0.105361,0.08021 -0.210241,0.1610487 -0.314632,0.2425143 -0.104481,0.081526 -0.208472,0.1636769 -0.311973,0.2464464 -0.103631,0.082402 -0.206771,0.1654247 -0.309412,0.2490592 -0.102331,0.084162 -0.204162,0.1689355 -0.305473,0.2543179 -0.101431,0.085043 -0.202351,0.1706885 -0.302762,0.2569358 -0.100141,0.085921 -0.199772,0.1724463 -0.298883,0.259561 -0.0993,0.087671 -0.198071,0.1759444 -0.296322,0.2648022 -0.0984,0.08856 -0.196251,0.1777003 -0.293582,0.2674283 -0.0971,0.08987 -0.193707,0.18033 -0.289749,0.27136 -0.09623,0.09075 -0.191918,0.182081 -0.28706,0.273978 -0.09495,0.09207 -0.189338,0.184709 -0.283178,0.27791 -0.09363,0.09339 -0.186711,0.187343 -0.279221,0.281844 -0.09276,0.09427 -0.184956,0.189096 -0.276584,0.284468 -0.09191,0.09558 -0.18324,0.19172 -0.273995,0.288402 -0.0906,0.09647 -0.180622,0.193477 -0.270063,0.291019 -0.05919,0.06487 -0.118135,0.129986 -0.176812,0.195331 -0.02983,0.03314 -0.0596,0.06635 -0.08929,0.09962 -0.08798,0.09867 -0.175376,0.197864 -0.262174,0.297577 -0.08711,0.09955 -0.173624,0.199616 -0.259536,0.300196 -0.08582,0.100866 -0.171044,0.202245 -0.255655,0.304132 -0.08449,0.10175 -0.168376,0.204002 -0.251647,0.306752 -0.08323,0.102632 -0.165844,0.20576 -0.247842,0.309376 -0.08231,0.103944 -0.163995,0.20838 -0.245051,0.313302 -0.08104,0.104391 -0.161458,0.209265 -0.241246,0.314617 -0.07927,0.105715 -0.157913,0.211898 -0.235919,0.318551 -0.07844,0.107026 -0.156234,0.214524 -0.233382,0.322484 -0.07708,0.107475 -0.153527,0.215407 -0.229323,0.323795 -0.07582,0.108355 -0.150996,0.217161 -0.225518,0.326415 -0.07447,0.109236 -0.148294,0.218918 -0.221458,0.329036 -0.07322,0.110557 -0.145768,0.221551 -0.217654,0.332976 -0.07186,0.111 -0.143063,0.22243 -0.213596,0.334283 -0.0706,0.111881 -0.140531,0.224184 -0.20979,0.3369 -0.06883,0.112769 -0.136985,0.225947 -0.204462,0.33953 -0.06799,0.113639 -0.135301,0.227686 -0.201927,0.342132 -0.06622,0.114532 -0.131754,0.229458 -0.196598,0.344772 -0.06538,0.115408 -0.13007,0.231203 -0.194063,0.347385 -0.0636,0.115861 -0.126518,0.232092 -0.188734,0.348703 -0.06234,0.116741 -0.123987,0.233862 -0.18493,0.351343 -0.061,0.11761 -0.121288,0.235591 -0.180871,0.353932 -0.05922,0.118071 -0.117736,0.236502 -0.175544,0.355273 -0.05796,0.118941 -0.115207,0.238232 -0.171738,0.357863 -0.05669,0.119401 -0.11267,0.239142 -0.167933,0.359213 -0.05535,0.120271 -0.109971,0.240872 -0.163875,0.361793 -0.05358,0.121161 -0.106425,0.242642 -0.158547,0.364433 -0.05231,0.121611 -0.103891,0.243522 -0.154742,0.365753 -0.05096,0.122041 -0.101187,0.244392 -0.150683,0.367043 -0.0497,0.122931 -0.09866,0.246162 -0.146879,0.369683 -0.04792,0.122941 -0.0951,0.246172 -0.141551,0.369683 -0.04615,0.124261 -0.09156,0.248802 -0.136224,0.373613 -0.04488,0.124261 -0.08902,0.248802 -0.132419,0.373593 -0.04354,0.125161 -0.08632,0.250582 -0.12836,0.376253 -0.04184,0.125161 -0.08294,0.250572 -0.123287,0.376223 -0.0405,0.126041 -0.080241,0.252322 -0.1192277,0.378843 -0.039231,0.126491 -0.077706,0.253232 -0.1154226,0.380183 -0.037458,0.126931 -0.074158,0.254082 -0.1100954,0.381453 -0.035684,0.127391 -0.070609,0.254992 -0.1047683,0.382793 -0.034419,0.127821 -0.068074,0.255842 -0.1009631,0.384063 -0.033069,0.128281 -0.065372,0.256752 -0.096905,0.385413 -0.031377,0.128291 -0.061989,0.256762 -0.091831,0.385413 l -0.010147,0.0497 c -0.025956,0.112611 -0.051323,0.225342 -0.076103,0.338203 -0.027831,0.129171 -0.05489,0.258522 -0.081177,0.388023 -0.026565,0.129631 -0.052356,0.259412 -0.077372,0.389343 -0.025215,0.130061 -0.049655,0.260292 -0.073312,0.390663 -0.023516,0.130082 -0.046271,0.260293 -0.068239,0.390634 -0.022171,0.130541 -0.043569,0.261192 -0.06418,0.391983 -0.020903,0.130971 -0.041035,0.262062 -0.060375,0.393273 -0.019127,0.130541 -0.037478,0.261192 -0.055047,0.391953 -0.017351,0.131431 -0.033934,0.262962 -0.04972,0.394593 -0.015677,0.131431 -0.03055,0.262962 -0.044647,0.394563 -0.014307,0.131451 -0.027843,0.262982 -0.040588,0.394594 -0.012633,0.131891 -0.024454,0.263852 -0.035514,0.395883 -0.010857,0.131481 -0.020903,0.263002 -0.030187,0.394593 -0.00951,0.132341 -0.018214,0.264752 -0.026128,0.397203 -0.00756,0.131911 -0.014307,0.263882 -0.020294,0.395883 -0.00672,0.132371 -0.012633,0.264772 -0.017757,0.397203 -0.00502,0.131941 -0.00923,0.263903 -0.012684,0.395884 -0.00332,0.132821 -0.00586,0.265672 -0.00761,0.398523 -0.00164,0.132391 -0.00248,0.264802 -0.00254,0.397203 -1.202e-4,0.0516 -1.202e-4,0.103171 0,0.154741 8.99e-4,0.132421 0.00259,0.264832 0.00507,0.397233 0.00259,0.132421 0.00596,0.264822 0.010147,0.397204 0.00429,0.132421 0.00936,0.264822 0.01522,0.397183 0.00512,0.132011 0.01106,0.263982 0.017757,0.395913 0.00682,0.132011 0.014434,0.263972 0.022831,0.395883 0.00885,0.132011 0.018493,0.263982 0.028919,0.395883 0.010122,0.132041 0.02103,0.264012 0.032724,0.395913 0.011466,0.132041 0.023744,0.264003 0.036783,0.395884 0.013166,0.131611 0.027118,0.263132 0.041856,0.394563 0.014941,0.131631 0.030669,0.263162 0.047183,0.394593 0.016286,0.131201 0.033378,0.262282 0.051243,0.393273 0.017985,0.131201 0.03676,0.262292 0.056316,0.393273 0.019761,0.130771 0.040314,0.261432 0.061643,0.391953 0.042404,0.269492 0.090791,0.532935 0.1349557,0.782617 0.024175,0.129931 0.049114,0.259712 0.074834,0.389343 0.025859,0.129931 0.052495,0.259722 0.079908,0.389343 0.027214,0.129501 0.055205,0.258852 0.083967,0.388023 l 0.00254,0.0127 z"
       sodipodi:nodetypes="ccccccccccccccccccccccccccccccsccccccccsccsccccccccccccccccccccccccccccccccccccccccccccccccccccccccccccccccccccccccccccccccccccccccscccccccccccccccccccccccccccsscccccccccccccsccccccssccccscccccccccccccccccccccccccccccccccccccccccccccccccccsccccccccccccccccccccccccccccccccccccccccccccccccccsccccccccccccccccccccccccccccccccccccccccccccccccccsccccccccccccccccccccccccccccccccccccsccccccccccccccccccccccccccccccccccccccccccccccccccccccccccccccccccccccccccccccc" />
    <path
       id="path3545"
       style="opacity:1;fill:none;fill-opacity:1;fill-rule:evenodd;stroke:#000000;stroke-width:4.6983;stroke-miterlimit:4;stroke-dasharray:none"
       d="m 43.992975,10.435726 a 53.728587,53.728587 0 0 0 0.0228,0.277912 53.728587,53.728587 0 0 0 0.0459,0.503387 53.728587,53.728587 0 0 0 0.05,0.502081 53.728587,53.728587 0 0 0 0.055,0.502078 53.728587,53.728587 0 0 0 0.0604,0.500764 53.728587,53.728587 0 0 0 0.0393,0.302818 53.728587,53.728587 0 0 0 0.0254,0.199263 53.728587,53.728587 0 0 0 0.0695,0.499455 53.728587,53.728587 0 0 0 0.0733,0.499455 53.728587,53.728587 0 0 0 0.0786,0.499455 53.728587,53.728587 0 0 0 0.084,0.498146 53.728587,53.728587 0 0 0 0.0878,0.496832 53.728587,53.728587 0 0 0 0.0918,0.496837 53.728587,53.728587 0 0 0 0.0984,0.495521 53.728587,53.728587 0 0 0 0.10096,0.494214 53.728587,53.728587 0 0 0 0.107561,0.492903 53.728587,53.728587 0 0 0 0.111361,0.492893 53.728587,53.728587 0 0 0 0.115421,0.491599 53.728587,53.728587 0 0 0 0.120751,0.490284 53.728587,53.728587 0 0 0 0.124551,0.488964 53.728587,53.728587 0 0 0 0.129881,0.488963 53.728587,53.728587 0 0 0 0.134951,0.486344 53.728587,53.728587 0 0 0 0.137751,0.485064 53.728587,53.728587 0 0 0 0.144092,0.485034 53.728587,53.728587 0 0 0 0.148141,0.482414 53.728587,53.728587 0 0 0 0.152201,0.481094 53.728587,53.728587 0 0 0 0.157281,0.479804 53.728587,53.728587 0 0 0 0.161341,0.478484 53.728587,53.728587 0 0 0 0.165142,0.477163 53.728587,53.728587 0 0 0 0.170471,0.475844 53.728587,53.728587 0 0 0 0.175802,0.473234 53.728587,53.728587 0 0 0 0.132421,0.347413 33.206192,33.206197 0 0 1 0.321152,-0.229322 33.206192,33.206197 0 0 1 0.326403,-0.226782 33.206192,33.206197 0 0 1 0.327722,-0.222982 33.206192,33.206197 0 0 1 0.331633,-0.218921 33.206192,33.206197 0 0 1 0.334323,-0.214862 33.206192,33.206197 0 0 1 0.335582,-0.211062 33.206192,33.206197 0 0 1 0.338223,-0.207002 33.206192,33.206197 0 0 1 0.342113,-0.203191 33.206192,33.206197 0 0 1 0.343503,-0.199392 33.206192,33.206197 0 0 1 0.346062,-0.194061 33.206192,33.206197 0 0 1 0.347413,-0.191272 33.206192,33.206197 0 0 1 0.351293,-0.186201 33.206192,33.206197 0 0 1 0.352633,-0.182142 33.206192,33.206197 0 0 1 0.353933,-0.178331 33.206192,33.206197 0 0 1 0.357863,-0.173002 33.206192,33.206197 0 0 1 0.357882,-0.170471 33.206192,33.206197 0 0 1 0.361843,-0.165141 33.206192,33.206197 0 0 1 0.363113,-0.159822 33.206192,33.206197 0 0 1 0.364433,-0.157281 33.206192,33.206197 0 0 1 0.367073,-0.151951 33.206192,33.206197 0 0 1 0.368363,-0.146881 33.206192,33.206197 0 0 1 0.369683,-0.144091 33.206192,33.206197 0 0 1 0.372323,-0.139011 33.206192,33.206197 0 0 1 0.373563,-0.133692 33.206192,33.206197 0 0 1 0.374933,-0.129881 33.206192,33.206197 0 0 1 0.376203,-0.125821 33.206192,33.206197 0 0 1 0.378863,-0.120501 33.206192,33.206197 0 0 1 0.378843,-0.11669 33.206192,33.206197 0 0 1 0.381483,-0.111361 33.206192,33.206197 0 0 1 0.381503,-0.107561 33.206192,33.206197 0 0 1 0.384063,-0.102231 33.206192,33.206197 0 0 1 0.384113,-0.0984 33.206192,33.206197 0 0 1 0.386733,-0.0944 33.206192,33.206197 0 0 1 0.386684,-0.0878 33.206192,33.206197 0 0 1 0.388073,-0.0852 33.206192,33.206197 0 0 1 0.317192,-0.0642 33.206192,33.206197 0 0 1 0.0708,-0.0152 33.206192,33.206197 0 0 1 0.390613,-0.0761 33.206192,33.206197 0 0 1 0.390713,-0.0695 33.206192,33.206197 0 0 1 0.391903,-0.0654 33.206192,33.206197 0 0 1 0.391953,-0.0616 33.206192,33.206197 0 0 1 0.393323,-0.0563 33.206192,33.206197 0 0 1 0.393254,-0.0512 33.206192,33.206197 0 0 1 0.394593,-0.0472 33.206192,33.206197 0 0 1 0.394593,-0.0419 33.206192,33.206197 0 0 1 0.394593,-0.0368 33.206192,33.206197 0 0 1 0.395863,-0.0327 33.206192,33.206197 0 0 1 0.395913,-0.0289 33.206192,33.206197 0 0 1 0.279223,-0.0152 33.206192,33.206197 0 0 0 -0.222974,-0.20067 33.206192,33.206197 0 0 0 -0.297533,-0.262172 33.206192,33.206197 0 0 0 -0.300202,-0.259561 33.206192,33.206197 0 0 0 -0.304132,-0.255629 33.206192,33.206197 0 0 0 -0.306723,-0.251647 33.206192,33.206197 0 0 0 -0.309412,-0.247842 33.206192,33.206197 0 0 0 -0.313313,-0.245127 33.206192,33.206197 0 0 0 -0.315922,-0.239902 33.206192,33.206197 0 0 0 -0.318543,-0.237263 33.206192,33.206197 0 0 0 -0.321182,-0.233357 33.206192,33.206197 0 0 0 -0.323763,-0.2294 33.206192,33.206197 0 0 0 -0.326453,-0.225466 33.206192,33.206197 0 0 0 -0.330312,-0.221536 33.206192,33.206197 0 0 0 -0.331683,-0.217604 33.206192,33.206197 0 0 0 -0.334273,-0.213672 33.206192,33.206197 0 0 0 -0.338202,-0.208445 33.206192,33.206197 0 0 0 -0.339503,-0.205952 33.206192,33.206197 0 0 0 -0.342186,-0.201875 33.206192,33.206197 0 0 0 -0.343427,-0.19665 33.206192,33.206197 0 0 0 -0.347409,-0.192692 33.206192,33.206197 0 0 0 -0.348678,-0.19008 33.206192,33.206197 0 0 0 -0.351316,-0.184828 33.206192,33.206197 0 0 0 -0.35398,-0.179603 33.206192,33.206197 0 0 0 -0.355248,-0.176964 33.206192,33.206197 0 0 0 -0.357887,-0.171739 33.206192,33.206197 0 0 0 -0.360472,-0.167807 33.206192,33.206197 0 0 0 -0.361793,-0.163849 33.206192,33.206197 0 0 0 -0.363163,-0.158624 33.206192,33.206197 0 0 0 -0.365725,-0.154691 33.206192,33.206197 0 0 0 -0.367069,-0.15076 33.206192,33.206197 0 0 0 -0.369632,-0.145509 33.206192,33.206197 0 0 0 -0.371027,-0.141576 33.206192,33.206197 0 0 0 -0.37232,-0.137645 33.206192,33.206197 0 0 0 -0.373563,-0.132394 33.206192,33.206197 0 0 0 -0.376203,-0.128462 33.206192,33.206197 0 0 0 -0.377543,-0.12321 33.206192,33.206197 0 0 0 -0.378893,-0.119304 33.206192,33.206197 0 0 0 -0.380163,-0.115347 33.206192,33.206197 0 0 0 -0.381503,-0.110121 33.206192,33.206197 0 0 0 -0.381433,-0.10487 33.206192,33.206197 0 0 0 -0.384113,-0.100937 33.206192,33.206197 0 0 0 -0.385383,-0.09569 33.206192,33.206197 0 0 0 -0.386753,-0.09175 33.206192,33.206197 0 0 0 -0.0695,-0.01573 33.206192,33.206197 0 0 0 -0.317273,-0.07209 33.206192,33.206197 0 0 0 -0.387993,-0.0826 33.206192,33.206197 0 0 0 -0.389373,-0.07735 33.206192,33.206197 0 0 0 -0.390633,-0.07341 33.206192,33.206197 0 0 0 -0.390613,-0.06816 33.206192,33.206197 0 0 0 -0.391983,-0.06423 33.206192,33.206197 0 0 0 -0.393253,-0.059 33.206192,33.206197 0 0 0 -0.393324,-0.05375 33.206192,33.206197 0 0 0 -0.276582,-0.03539 33.206192,33.206197 0 0 0 -0.116691,-0.01446 33.206192,33.206197 0 0 0 -0.394573,-0.04589 33.206192,33.206197 0 0 0 -0.394593,-0.03932 33.206192,33.206197 0 0 0 -0.395863,-0.03539 33.206192,33.206197 0 0 0 -0.395943,-0.03146 33.206192,33.206197 0 0 0 -0.395863,-0.02623 33.206192,33.206197 0 0 0 -0.395944,-0.02105 33.206192,33.206197 0 0 0 -0.213591,-0.0091 z" />
    <path
       style="opacity:1;fill:none;fill-opacity:1;fill-rule:evenodd;stroke:#000000;stroke-width:4.6983;stroke-miterlimit:4;stroke-dasharray:none"
       d="m 66.671644,18.999882 c -0.132421,8.99e-4 -0.264812,0.0026 -0.397203,0.0051 -0.132421,0.0026 -0.264822,0.006 -0.397203,0.0101 -0.131991,0.0043 -0.263942,0.0094 -0.395863,0.0152 -0.132441,0.0051 -0.264842,0.011 -0.397203,0.0178 -0.0389,0.0025 -0.0778,0.005 -0.116691,0.0076 -0.0931,0.0047 -0.186172,0.0098 -0.279223,0.0152 -0.132041,0.0089 -0.264002,0.0185 -0.395913,0.0289 -0.132011,0.0101 -0.263972,0.021 -0.395863,0.0327 -0.131611,0.0115 -0.263132,0.0237 -0.394593,0.0368 -0.131611,0.0132 -0.263142,0.0271 -0.394593,0.0419 -0.131631,0.0149 -0.263162,0.0307 -0.394593,0.0472 -0.131172,0.0163 -0.262273,0.0334 -0.393254,0.0512 -0.131221,0.018 -0.262332,0.0368 -0.393323,0.0563 -0.130771,0.0198 -0.261432,0.0403 -0.391953,0.0616 -0.130771,0.021 -0.261402,0.0429 -0.391903,0.0654 -0.130361,0.0224 -0.260612,0.0456 -0.390713,0.0695 -0.130361,0.0246 -0.260562,0.05 -0.390613,0.0761 -0.0236,0.005 -0.0472,0.0101 -0.0708,0.0152 -0.105831,0.0209 -0.211572,0.0423 -0.317192,0.0642 -0.129531,0.0276 -0.258882,0.056 -0.388074,0.0852 -0.129071,0.0285 -0.257962,0.0577 -0.386673,0.0878 -0.129101,0.0307 -0.258012,0.0621 -0.386733,0.0944 -0.128231,0.032 -0.256272,0.0649 -0.384113,0.0984 -0.128231,0.0333 -0.256252,0.0674 -0.384063,0.102231 -0.127371,0.0351 -0.254552,0.0709 -0.381503,0.10756 -0.127371,0.0364 -0.254542,0.0735 -0.381483,0.111361 -0.126511,0.0381 -0.252792,0.077 -0.378843,0.116691 -0.126531,0.0394 -0.252812,0.0796 -0.378863,0.120501 -0.125641,0.0412 -0.251062,0.0831 -0.376203,0.125821 -0.125241,0.0425 -0.250222,0.0858 -0.374933,0.129881 -0.124781,0.0438 -0.249312,0.0884 -0.373563,0.133691 -0.124381,0.0456 -0.248502,0.0919 -0.372323,0.139011 -0.123511,0.0473 -0.246752,0.0953 -0.369683,0.144092 -0.123081,0.0482 -0.245862,0.0972 -0.368363,0.146881 -0.122651,0.0499 -0.245022,0.100571 -0.367073,0.151951 -0.121791,0.0517 -0.243272,0.104131 -0.364433,0.157281 -0.121361,0.0526 -0.242392,0.105991 -0.363113,0.160072 -0.120951,0.0543 -0.241552,0.10937 -0.361843,0.165141 -0.119631,0.0561 -0.238942,0.112931 -0.357882,0.170471 -0.119631,0.057 -0.238912,0.114621 -0.357863,0.173012 -0.118341,0.0587 -0.236302,0.118181 -0.353933,0.178331 -0.117911,0.06 -0.235462,0.120721 -0.352633,0.182142 -0.117481,0.0614 -0.234572,0.123431 -0.351293,0.186201 -0.116181,0.0632 -0.231992,0.126991 -0.347413,0.191522 -0.115731,0.064 -0.231101,0.128691 -0.346062,0.194061 -0.114891,0.0657 -0.229402,0.132071 -0.343503,0.199132 -0.114431,0.067 -0.228482,0.134781 -0.342113,0.203191 -0.113161,0.0683 -0.225902,0.137331 -0.338223,0.207002 -0.11228,0.0697 -0.224151,0.140041 -0.335582,0.211062 -0.111871,0.071 -0.223312,0.142581 -0.334323,0.214861 -0.110981,0.0723 -0.221532,0.145292 -0.331633,0.218922 -0.10969,0.0737 -0.218921,0.148001 -0.327722,0.222982 -0.109261,0.0749 -0.218062,0.150541 -0.326403,0.226782 -0.107511,0.0758 -0.214562,0.152241 -0.321152,0.229322 0.0155,0.0415 0.0312,0.0831 0.0469,0.124551 0.0604,0.157161 0.121541,0.314032 0.183411,0.470623 0.0618,0.156292 0.124251,0.312283 0.187472,0.467984 0.0635,0.156301 0.127801,0.312313 0.192791,0.468014 0.0652,0.154991 0.131182,0.309682 0.197872,0.464054 0.0662,0.154561 0.133051,0.308822 0.200662,0.462753 0.0679,0.154132 0.136431,0.307953 0.205731,0.461434 0.0692,0.153701 0.139141,0.307092 0.209792,0.460144 0.0709,0.152381 0.142541,0.304462 0.214862,0.456183 0.0718,0.152412 0.144391,0.304473 0.217651,0.456184 0.0736,0.151111 0.147942,0.301872 0.222982,0.452274 0.0753,0.150661 0.151321,0.300982 0.228052,0.450933 0.0763,0.150251 0.153191,0.300123 0.230842,0.449644 0.0779,0.149391 0.156571,0.298392 0.235922,0.447033 0.0793,0.148502 0.159281,0.296633 0.239982,0.444394 0.0806,0.147641 0.161821,0.294902 0.243782,0.441773 0.0819,0.146782 0.164531,0.293163 0.247842,0.439164 0.0832,0.146351 0.167071,0.292292 0.251642,0.437843 0.085,0.145462 0.170601,0.290543 0.256922,0.435204 0.0858,0.144591 0.172371,0.288802 0.259562,0.432593 0.0876,0.143732 0.175821,0.287073 0.264762,0.429984 0.0889,0.143331 0.178491,0.286212 0.268742,0.428683 0.0902,0.142011 0.181152,0.283583 0.272702,0.424734 0.0916,0.141141 0.183742,0.281842 0.276613,0.422113 0.0924,0.140691 0.185461,0.280972 0.279192,0.420793 0.0942,0.139392 0.188991,0.278353 0.284472,0.416864 0.0955,0.138531 0.191622,0.276622 0.288402,0.414253 0.0968,0.137671 0.194262,0.274872 0.292363,0.411613 0.0981,0.137242 0.196881,0.274013 0.296272,0.410324 0.099,0.135921 0.198632,0.271372 0.298882,0.406363 0.100731,0.134621 0.202102,0.268782 0.304103,0.402453 0.102051,0.134191 0.204742,0.267912 0.308062,0.401133 0.102941,0.132901 0.206522,0.265293 0.310703,0.397204 0.104231,0.132441 0.209102,0.264422 0.314582,0.395883 0.105581,0.130721 0.211742,0.260942 0.318543,0.390663 0.106901,0.130291 0.214382,0.260072 0.322502,0.389343 0.107761,0.128971 0.216162,0.257452 0.325133,0.385413 0.109511,0.128111 0.219632,0.255702 0.330333,0.382773 0.110401,0.127241 0.221382,0.253962 0.332972,0.380163 0.111691,0.125921 0.223992,0.251342 0.336883,0.376223 0.112611,0.125061 0.225772,0.249612 0.339543,0.373613 0.113901,0.123771 0.228382,0.247002 0.343453,0.369683 0.11522,0.122881 0.231021,0.245252 0.347412,0.367043 0.116111,0.121591 0.232772,0.242642 0.350023,0.363133 0.117401,0.120721 0.235362,0.240892 0.353903,0.360503 0.118751,0.119401 0.238022,0.238282 0.357883,0.356563 0.119611,0.118541 0.239772,0.236532 0.360473,0.353953 0.120931,0.117251 0.242412,0.233891 0.364453,0.349992 0.121791,0.115931 0.244142,0.231302 0.367023,0.346093 0.122681,0.115071 0.245912,0.229552 0.369683,0.343453 0.124021,0.113751 0.248552,0.226942 0.373643,0.339523 0.125311,0.112451 0.251162,0.224321 0.377543,0.335582 0.126201,0.111591 0.252912,0.222572 0.380163,0.332973 0.127071,0.110271 0.254672,0.219962 0.382773,0.329043 0.127951,0.10898 0.256432,0.217351 0.385413,0.325112 0.129271,0.108091 0.259052,0.215602 0.389343,0.322473 0.130591,0.106361 0.261672,0.212122 0.393253,0.317242 0.131051,0.105481 0.262572,0.210352 0.394593,0.314613 0.132371,0.104181 0.265212,0.207732 0.398553,0.310672 0.133201,0.102871 0.266913,0.205122 0.401084,0.306743 0.134121,0.101571 0.268722,0.202531 0.403803,0.302842 0.134981,0.100711 0.270452,0.200782 0.406393,0.300203 0.288582,0.210901 0.552995,0.396113 0.821887,0.587184 0.137621,0.0963 0.275692,0.192032 0.414203,0.287083 0.138961,0.0951 0.278362,0.189421 0.418213,0.283152 0.139801,0.0942 0.280063,0.187691 0.420744,0.280542 0.140311,0.0924 0.281032,0.184192 0.422193,0.275292 0.141581,0.0916 0.283572,0.182442 0.426004,0.272673 0.142031,0.0898 0.284472,0.178941 0.427343,0.267402 0.143351,0.0885 0.287122,0.176331 0.431303,0.263492 0.0493,0.0298 0.0987,0.0594 0.148142,0.089 0.074,-0.0195 0.174271,0.10495 0.284372,0.171231 0.144671,0.0859 0.289742,0.171101 0.435203,0.255632 0.145531,0.0846 0.291473,0.168441 0.437794,0.251642 0.146451,0.0828 0.293292,0.164911 0.440503,0.246322 0.147312,0.082 0.294983,0.163211 0.443044,0.243782 0.147741,0.0807 0.295882,0.160681 0.444393,0.239982 0.148652,0.0789 0.297683,0.157131 0.447074,0.234652 0.149061,0.0776 0.298502,0.154441 0.448294,0.230592 0.150401,0.0763 0.301182,0.151901 0.452303,0.226791 0.116891,0.0577 0.233992,0.114911 0.351293,0.171742 0.0341,0.0165 0.0681,0.0332 0.102231,0.0497 0.151291,0.0737 0.302942,0.146651 0.454914,0.218922 0.152151,0.0719 0.304652,0.143121 0.457483,0.213592 0.153071,0.0702 0.306453,0.139721 0.460174,0.208521 0.153501,0.0693 0.307302,0.137871 0.461434,0.205732 0.153931,0.0676 0.308172,0.134501 0.462733,0.200661 0.154822,0.0663 0.309953,0.131782 0.465394,0.196602 0.155251,0.0645 0.310813,0.128231 0.466664,0.191272 0.156141,0.0632 0.312582,0.125721 0.469314,0.187471 0.156591,0.0619 0.313472,0.123181 0.470643,0.183662 0.157022,0.0602 0.314313,0.119631 0.471884,0.178331 0.157911,0.0588 0.316073,0.116921 0.474524,0.174281 0.157941,0.0576 0.316132,0.114381 0.474604,0.170472 0.158771,0.0558 0.317832,0.110831 0.477143,0.165141 0.159262,0.0545 0.318753,0.108321 0.478514,0.161341 0.160122,0.0528 0.320493,0.104771 0.481094,0.156012 0.0485,0.0155 0.0971,0.0307 0.145611,0.0459 0.0951,-0.0559 0.189902,-0.112331 0.284443,-0.169201 0.113141,-0.0683 0.225871,-0.137341 0.338202,-0.207002 0.112731,-0.0697 0.225062,-0.140031 0.336953,-0.211062 0.111411,-0.071 0.222402,-0.142591 0.332953,-0.214861 0.110981,-0.0723 0.221531,-0.145282 0.331632,-0.218922 0.109691,-0.0737 0.218922,-0.147991 0.327723,-0.222982 0.109261,-0.0749 0.218062,-0.150531 0.326403,-0.226782 0.10796,-0.0763 0.215471,-0.153241 0.322502,-0.230842 0.107511,-0.0776 0.214562,-0.155781 0.321153,-0.234652 0.106241,-0.0789 0.211991,-0.158491 0.317272,-0.238711 0.105351,-0.0802 0.210192,-0.161062 0.314583,-0.242512 0.104061,-0.0811 0.207631,-0.162762 0.310702,-0.245052 0.103601,-0.0828 0.206722,-0.166312 0.309333,-0.250382 0.102331,-0.0837 0.204161,-0.168012 0.305472,-0.252912 0.101471,-0.0851 0.202412,-0.170702 0.302843,-0.256952 0.10015,-0.0864 0.199771,-0.173312 0.298882,-0.260853 0.0993,-0.0872 0.198022,-0.175091 0.296242,-0.263492 0.0984,-0.089 0.196292,-0.178591 0.293653,-0.268742 0.0971,-0.0894 0.193661,-0.179451 0.289672,-0.270042 0.0963,-0.0912 0.191982,-0.182951 0.287132,-0.275292 0.095,-0.0921 0.189342,-0.184732 0.283183,-0.277932 0.035,-0.0353 0.0699,-0.0706 0.10477,-0.106041 0.0587,-0.0583 0.117251,-0.116821 0.175542,-0.175542 0.0928,-0.0943 0.184951,-0.189091 0.276582,-0.284472 0.0915,-0.0952 0.182372,-0.190841 0.272702,-0.287082 0.0906,-0.0969 0.180592,-0.194342 0.270012,-0.292333 0.0893,-0.0973 0.178002,-0.195231 0.266133,-0.293632 0.0884,-0.0987 0.176281,-0.197871 0.263522,-0.297582 0.0867,-0.100001 0.172781,-0.200502 0.258272,-0.301523 0.0858,-0.10043 0.170981,-0.201371 0.255582,-0.302812 0.0845,-0.101751 0.168361,-0.204012 0.251642,-0.306743 0.0837,-0.10307 0.166691,-0.206621 0.249112,-0.310672 0.0819,-0.103501 0.163141,-0.207512 0.243782,-0.311993 0.081,-0.10482 0.161461,-0.210141 0.241242,-0.315932 0.0757,-0.100071 0.150911,-0.200582 0.225522,-0.301523 l 0.0127,-0.0178 c 0.078,-0.10659 0.155371,-0.213671 0.232111,-0.321182 0.0771,-0.107481 0.153522,-0.215402 0.229322,-0.323793 0.0758,-0.108771 0.151012,-0.218032 0.225522,-0.327722 0.0745,-0.109231 0.148301,-0.218922 0.221462,-0.329043 0.0732,-0.110121 0.145761,-0.220672 0.217652,-0.331653 0.0719,-0.111441 0.143071,-0.223312 0.213591,-0.335592 0.0706,-0.111891 0.140541,-0.224202 0.209792,-0.336903 0.0688,-0.112761 0.136981,-0.225952 0.204462,-0.339523 0.068,-0.113651 0.135311,-0.227702 0.201931,-0.342163 0.0667,-0.11451 0.132771,-0.229421 0.198122,-0.344742 0.0649,-0.114991 0.129221,-0.230342 0.192791,-0.346093 0.0636,-0.116281 0.126531,-0.232972 0.188732,-0.350023 0.0624,-0.116741 0.124001,-0.233842 0.184931,-0.351313 0.061,-0.117171 0.121281,-0.234722 0.180872,-0.352633 0.0593,-0.11852 0.117911,-0.237361 0.175801,-0.356562 0.0584,-0.118951 0.116061,-0.238252 0.173012,-0.357883 0.0566,-0.119381 0.112501,-0.239112 0.167681,-0.359183 0.0549,-0.120291 0.109131,-0.240892 0.162601,-0.361823 0.054,-0.120721 0.107251,-0.241752 0.159812,-0.363113 0.0523,-0.121611 0.10388,-0.243532 0.154741,-0.365753 0.0505,-0.122471 0.100351,-0.245282 0.149411,-0.368363 0.0497,-0.122501 0.0987,-0.245282 0.146881,-0.368363 0.0479,-0.123391 0.0951,-0.247032 0.141551,-0.370973 0.0461,-0.123821 0.0916,-0.247922 0.136221,-0.372293 0.0453,-0.124711 0.0899,-0.249692 0.133691,-0.374933 0.0431,-0.124711 0.0855,-0.249692 0.127091,-0.374913 0.0423,-0.125591 0.0838,-0.251442 0.124551,-0.377543 0.0405,-0.126051 0.0802,-0.252332 0.119231,-0.378863 0.0388,-0.126481 0.0769,-0.253222 0.114151,-0.380163 0.0375,-0.126941 0.0741,-0.254102 0.110101,-0.381483 0.0357,-0.127371 0.0706,-0.254972 0.104771,-0.382773 l 0.0101,-0.0381 c -0.0283,-0.0565 -0.0567,-0.112891 -0.0852,-0.169202 -0.06,-0.117911 -0.120721,-0.235462 -0.182141,-0.352632 -0.0614,-0.117481 -0.123441,-0.234572 -0.186201,-0.351313 -0.0631,-0.116181 -0.126811,-0.231982 -0.191272,-0.347413 -0.064,-0.115751 -0.128691,-0.231102 -0.194062,-0.346063 -0.0658,-0.114891 -0.132241,-0.229372 -0.199391,-0.343453 -0.067,-0.11446 -0.134781,-0.228511 -0.203192,-0.342162 -0.0683,-0.113141 -0.137341,-0.225872 -0.207001,-0.338203 -0.0697,-0.112281 -0.140032,-0.224152 -0.211062,-0.335593 -0.071,-0.111851 -0.142571,-0.223281 -0.214862,-0.334292 -0.0723,-0.110981 -0.145281,-0.221532 -0.218922,-0.331653 -0.0737,-0.109691 -0.147991,-0.218922 -0.222981,-0.327723 -0.0749,-0.109261 -0.150532,-0.218061 -0.226782,-0.326432 -0.0762,-0.107941 -0.153091,-0.215452 -0.230592,-0.322473 -0.0776,-0.107081 -0.155811,-0.213722 -0.234652,-0.319862 -0.0789,-0.106211 -0.158501,-0.211972 -0.238712,-0.317253 -0.0802,-0.105351 -0.161061,-0.210222 -0.242512,-0.314612 -0.0812,-0.104491 -0.162911,-0.208492 -0.245302,-0.311993 -0.0829,-0.103191 -0.166311,-0.205882 -0.250382,-0.308062 -0.0837,-0.102741 -0.168011,-0.204992 -0.252912,-0.306743 -0.085,-0.101011 -0.170671,-0.201522 -0.256922,-0.301522 -0.0864,-0.100581 -0.173281,-0.200662 -0.260832,-0.300203 -0.0872,-0.0993 -0.175091,-0.198041 -0.263492,-0.296272 -0.089,-0.0984 -0.178591,-0.196292 -0.268742,-0.293632 -0.0894,-0.0971 -0.179482,-0.193682 -0.270092,-0.289723 -0.0912,-0.0962 -0.182922,-0.191931 -0.275243,-0.287082 -0.0921,-0.0949 -0.184751,-0.189322 -0.277952,-0.283152 -0.0934,-0.0936 -0.187341,-0.186702 -0.281832,-0.279223 -0.0943,-0.0928 -0.189092,-0.184981 -0.284442,-0.276612 -0.0952,-0.0919 -0.190892,-0.183231 -0.287133,-0.273972 -0.0969,-0.0906 -0.194321,-0.180621 -0.292282,-0.270062 -0.0974,-0.0893 -0.195252,-0.177982 -0.293652,-0.266102 -0.0987,-0.088 -0.197872,-0.175362 -0.297593,-0.262172 -0.100001,-0.0871 -0.200481,-0.173642 -0.301492,-0.259562 -0.100431,-0.0858 -0.201392,-0.171022 -0.302843,-0.255632 -0.10175,-0.0845 -0.204001,-0.168372 -0.306742,-0.251643 -0.103071,-0.0832 -0.206622,-0.165851 -0.310682,-0.247841 -0.103501,-0.0823 -0.207482,-0.163992 -0.311973,-0.245052 -0.104821,-0.081 -0.210142,-0.161462 -0.315933,-0.241242 -0.10571,-0.0793 -0.211891,-0.157912 -0.318542,-0.235922 -0.106591,-0.0784 -0.213642,-0.156232 -0.321183,-0.233382 -0.107481,-0.0771 -0.215451,-0.153531 -0.323842,-0.229322 -0.108781,-0.0758 -0.218032,-0.151001 -0.327723,-0.225522 -0.109231,-0.0745 -0.218902,-0.148291 -0.329022,-0.221462 -0.110101,-0.0732 -0.220652,-0.145761 -0.331633,-0.217651 -0.111441,-0.0719 -0.223312,-0.143071 -0.335583,-0.213592 -0.111901,-0.0702 -0.224222,-0.139681 -0.336963,-0.208522 -0.11276,-0.0693 -0.225901,-0.137831 -0.339472,-0.205731 -0.113651,-0.068 -0.227722,-0.135301 -0.342183,-0.201932 -0.114531,-0.0662 -0.229452,-0.131751 -0.344773,-0.196602 -0.114961,-0.0654 -0.230312,-0.130061 -0.346063,-0.194061 -0.11628,-0.0636 -0.232951,-0.126521 -0.349992,-0.188732 -0.116721,-0.0623 -0.233812,-0.123991 -0.351293,-0.184931 -0.117201,-0.0606 -0.234752,-0.120431 -0.352663,-0.179602 -0.118521,-0.0597 -0.237362,-0.11875 -0.356593,-0.177061 -0.118951,-0.058 -0.238252,-0.115211 -0.357883,-0.171741 -0.119381,-0.0566 -0.239092,-0.112501 -0.359133,-0.167682 -0.120291,-0.0553 -0.240891,-0.109971 -0.361842,-0.163871 -0.120721,-0.0536 -0.241752,-0.106421 -0.363113,-0.158551 -0.121591,-0.0523 -0.243502,-0.103891 -0.365723,-0.154741 -0.122501,-0.051 -0.245302,-0.101191 -0.368413,-0.150682 -0.122501,-0.0493 -0.245282,-0.0978 -0.368363,-0.145611 -0.123361,-0.0479 -0.247032,-0.0951 -0.370953,-0.141551 -0.123841,-0.0467 -0.247942,-0.0926 -0.372323,-0.137741 -0.124711,-0.0449 -0.249692,-0.089 -0.374913,-0.132421 -0.124731,-0.0435 -0.249692,-0.0863 -0.374933,-0.128361 -0.125591,-0.0418 -0.251442,-0.0829 -0.377543,-0.123281 -0.126031,-0.0405 -0.252302,-0.0802 -0.378813,-0.119231 -0.126481,-0.0392 -0.253222,-0.0777 -0.380163,-0.115421 -0.126941,-0.0375 -0.254112,-0.0742 -0.381503,-0.110091 l -0.0383,-0.0101 c -0.114761,-0.0321 -0.229681,-0.0635 -0.344772,-0.0944 -0.127831,-0.0344 -0.255882,-0.0681 -0.384113,-0.100961 -0.127851,-0.0331 -0.255903,-0.0654 -0.384144,-0.0969 -0.128691,-0.0314 -0.257592,-0.062 -0.386653,-0.0918 -0.129171,-0.0296 -0.258512,-0.0584 -0.388023,-0.0865 -0.129201,-0.0283 -0.258552,-0.0559 -0.388073,-0.0827 -0.129601,-0.0266 -0.259372,-0.0524 -0.389293,-0.0774 -0.129631,-0.0252 -0.259412,-0.0496 -0.389343,-0.0733 -0.130511,-0.0235 -0.261182,-0.0463 -0.391983,-0.0682 -0.130541,-0.0222 -0.261192,-0.0436 -0.391983,-0.0642 -0.130541,-0.0205 -0.261192,-0.0402 -0.391953,-0.0591 -0.130972,-0.0191 -0.262063,-0.0375 -0.393254,-0.055 l -0.0469,-0.0076 c -0.115291,-0.0146 -0.230692,-0.0285 -0.346143,-0.0419 -0.131401,-0.0161 -0.262922,-0.0314 -0.394513,-0.0459 -0.131911,-0.0139 -0.263882,-0.027 -0.395933,-0.0393 -0.131451,-0.013 -0.262992,-0.0253 -0.394593,-0.0368 -0.131891,-0.0109 -0.263852,-0.0209 -0.395863,-0.0302 -0.131912,-0.0096 -0.263903,-0.0184 -0.395934,-0.0264 -0.132371,-0.0076 -0.264762,-0.0143 -0.397203,-0.0203 -0.131911,-0.0067 -0.263872,-0.0126 -0.395863,-0.0178 -0.132371,-0.005 -0.264782,-0.0093 -0.397203,-0.0127 -0.132391,-0.0033 -0.264792,-0.0059 -0.397203,-0.0076 -0.132391,-0.0016 -0.264802,-0.0025 -0.397204,-0.0025 -0.0516,-1.2e-4 -0.10317,-1.2e-4 -0.154741,0 z"
       id="path3543"
       sodipodi:nodetypes="ccccccccccccccccccccccccccccccccccccccccccccccccccccccccscccccccccccccccccccccccssccccccccccccccccccccccccccscccccsccccccccccccscccccccccccccsccccscccccccccccccccccccscccccccccccccccccccccccccccccccccccccccccccccccccccccccccccccccccccccccccccccccccccccccccccccccccccccccccccccccccscsccccccccccccccccccccccccccccccccccc" />
  </g>
</svg>
