<?xml version="1.0" encoding="UTF-8" standalone="no"?>
<svg
   xmlns:dc="http://purl.org/dc/elements/1.1/"
   xmlns:cc="http://creativecommons.org/ns#"
   xmlns:rdf="http://www.w3.org/1999/02/22-rdf-syntax-ns#"
   xmlns:svg="http://www.w3.org/2000/svg"
   xmlns="http://www.w3.org/2000/svg"
   xmlns:sodipodi="http://sodipodi.sourceforge.net/DTD/sodipodi-0.dtd"
   xmlns:inkscape="http://www.inkscape.org/namespaces/inkscape"
   version="1.1"
   id="svg2"
   width="100.00004"
   height="81.306053"
   viewBox="0 0 100.00004 81.306053"
   sodipodi:docname="Twitter_bird_logo_2012.svg"
   inkscape:version="1.0.1 (3bc2e813f5, 2020-09-07)">
  <metadata
     id="metadata8">
    <rdf:RDF>
      <cc:Work
         rdf:about="">
        <dc:format>image/svg+xml</dc:format>
        <dc:type
           rdf:resource="http://purl.org/dc/dcmitype/StillImage" />
        <dc:title></dc:title>
      </cc:Work>
    </rdf:RDF>
  </metadata>
  <defs
     id="defs6" />
  <sodipodi:namedview
     pagecolor="#ffffff"
     bordercolor="#666666"
     borderopacity="1"
     objecttolerance="10"
     gridtolerance="10"
     guidetolerance="10"
     inkscape:pageopacity="0"
     inkscape:pageshadow="2"
     inkscape:window-width="1842"
     inkscape:window-height="1051"
     id="namedview4"
     showgrid="false"
     fit-margin-top="0"
     fit-margin-left="0"
     fit-margin-right="0"
     fit-margin-bottom="0"
     inkscape:zoom="0.53250357"
     inkscape:cx="527.03397"
     inkscape:cy="583.52582"
     inkscape:window-x="69"
     inkscape:window-y="-9"
     inkscape:window-maximized="1"
     inkscape:current-layer="g10" />
  <g
     inkscape:groupmode="layer"
     inkscape:label="Image"
     id="g10">
    <path
       style="fill:#ffffff;stroke-width:0.0839641;fill-opacity:1"
       d="m 27.95993,81.224574 c -9.545997,-0.59524 -18.448574,-3.3705 -26.718049,-8.32902 -0.70231199,-0.42111 -1.26093499,-0.78166 -1.24138299059,-0.80122 0.0195500006,-0.0195 0.59417000059,0.0166 1.27693099059,0.0803 1.553377,0.14492 5.641293,0.14702 7.118868,0.004 7.840933,-0.76076 14.761096,-3.3491 20.800644,-7.78003 l 1.030019,-0.75568 -0.671713,-0.0641 c -2.431323,-0.23197 -4.424516,-0.6674 -6.194307,-1.35318 -4.773604,-1.84975 -8.744035,-5.45966 -11.006342,-10.00697 -0.492389,-0.98972 -1.145504,-2.58844 -1.145504,-2.804 0,-0.11263 0.05263,-0.11106 1.097909,0.0329 2.444792,0.33677 4.942432,0.22017 7.424446,-0.34662 l 0.587749,-0.13421 -0.945199,-0.23977 c -3.555959,-0.90201 -7.049601,-2.94053 -9.638047,-5.62373 -3.101602,-3.21513 -5.040646,-7.248 -5.618702,-11.68589 -0.122245,-0.9385 -0.179323,-2.82948 -0.08541,-2.82948 0.02401,0 0.373514,0.1653 0.776668,0.36735 2.371066,1.18826 4.766084,1.83883 7.785991,2.11493 l 0.587748,0.0537 -0.922857,-0.70126 c -3.848502,-2.92439 -6.590967,-7.17778 -7.631597,-11.83615 -0.569806,-2.55073 -0.648379,-5.54251 -0.212542,-8.09291 0.140609,-0.8228 0.54954,-2.3732495 0.87475,-3.3165795 0.316518,-0.91812 1.502781,-3.44253 1.617702,-3.44253 0.03627,0 0.555954,0.57621 1.154859,1.28046 2.086994,2.45408 5.509504,5.7135595 8.19138,7.8011895 5.283866,4.11308 11.115322,7.26099 17.289596,9.3332 4.893425,1.64232 9.364845,2.51989 15.045575,2.95288 l 0.64574,0.0492 -0.0796,-0.27594 c -0.42611,-1.47609 -0.5725,-4.99781 -0.29418,-7.07702 0.90867,-6.78841 5.118,-12.6612195 11.25715,-15.7058595 1.45229,-0.72024 2.48204,-1.10556 4.02565,-1.50634 1.94328,-0.50454 2.68297,-0.58843 5.16842,-0.586150000663 C 71.257933,0.0020445 71.672643,0.0263445 72.614863,0.1948045 c 4.2866,0.76665 7.77281,2.53747 11.05967,5.61776 l 0.63412,0.59426 1.0719,-0.24144 c 3.67868,-0.8286 7.7859,-2.40124 10.91797,-4.18047 0.50345,-0.286 0.93389,-0.50148 0.95652,-0.47885 0.0635,0.0634 -0.45809,1.40882 -0.95386,2.46065 -1.0085,2.13958 -2.32053,3.99116 -4.0626,5.7332295 -1.03638,1.03638 -2.77467,2.45268 -3.46704,2.82485 -0.23873,0.12832 -0.25125,0.15046 -0.0986,0.17438 0.23891,0.0374 2.51409,-0.35146 3.89739,-0.66616 2.04747,-0.4658 4.35589,-1.19418 6.3055,-1.98958 0.58175,-0.23735 1.0838,-0.43154 1.11564,-0.43154 0.143277,0 -1.54111,2.2867 -2.81409,3.82037 -1.54308,1.85909 -4.67013,4.80909 -6.66693,6.28946 l -0.66895,0.49593 0.0285,1.93902 c 0.25424,17.31023 -7.86953,34.96952 -21.23226,46.15428 -10.24695,8.57684 -23.20864,13.07474 -37.445139,12.99403 -1.177596,-0.007 -2.632274,-0.0428 -3.232617,-0.0802 z"
       id="path837" />
  </g>
</svg>
