<?xml version="1.0" encoding="UTF-8" standalone="no"?>
<svg
   xmlns:dc="http://purl.org/dc/elements/1.1/"
   xmlns:cc="http://creativecommons.org/ns#"
   xmlns:rdf="http://www.w3.org/1999/02/22-rdf-syntax-ns#"
   xmlns:svg="http://www.w3.org/2000/svg"
   xmlns="http://www.w3.org/2000/svg"
   xmlns:sodipodi="http://sodipodi.sourceforge.net/DTD/sodipodi-0.dtd"
   xmlns:inkscape="http://www.inkscape.org/namespaces/inkscape"
   version="1.1"
   id="svg2"
   width="100"
   height="70.846245"
   viewBox="0 0 100 70.846245"
   sodipodi:docname="youtube-logo-1920.jpg"
   inkscape:version="1.0.1 (3bc2e813f5, 2020-09-07)">
  <metadata
     id="metadata8">
    <rdf:RDF>
      <cc:Work
         rdf:about="">
        <dc:format>image/svg+xml</dc:format>
        <dc:type
           rdf:resource="http://purl.org/dc/dcmitype/StillImage" />
        <dc:title></dc:title>
      </cc:Work>
    </rdf:RDF>
  </metadata>
  <defs
     id="defs6" />
  <sodipodi:namedview
     pagecolor="#ffffff"
     bordercolor="#666666"
     borderopacity="1"
     objecttolerance="10"
     gridtolerance="10"
     guidetolerance="10"
     inkscape:pageopacity="0"
     inkscape:pageshadow="2"
     inkscape:window-width="1842"
     inkscape:window-height="1051"
     id="namedview4"
     showgrid="false"
     inkscape:pagecheckerboard="true"
     fit-margin-top="0"
     fit-margin-left="0"
     fit-margin-right="0"
     fit-margin-bottom="0"
     inkscape:zoom="7.6996072"
     inkscape:cx="57.132344"
     inkscape:cy="24.8375"
     inkscape:window-x="69"
     inkscape:window-y="-9"
     inkscape:window-maximized="1"
     inkscape:current-layer="g10" />
  <g
     inkscape:groupmode="layer"
     inkscape:label="Image"
     id="g10">
    <path
       style="fill:#ffffff;fill-opacity:1;stroke-width:0.156801"
       d="M 36.59329,70.702367 C 19.540879,70.331039 13.501266,69.898854 10.250707,68.817334 6.9930846,67.733464 4.7079391,65.852694 3.316654,63.11032 1.9251618,60.367538 1.1606718,57.519522 0.77021045,53.623854 0.17634198,47.69879 0.10049728,46.061622 0.02490034,37.535815 -0.05704972,28.293663 0.04415551,25.099962 0.61817297,18.81401 1.1115272,13.411372 1.7084753,10.929647 3.2822691,7.7383933 3.9653668,6.3532469 4.2432685,5.9783292 5.4470666,4.8178647 7.6392431,2.7045999 10.229873,1.495723 13.386729,1.1129464 18.399919,0.50508503 34.892856,0.00158572 49.842982,3.5994961e-6 64.820168,-0.00158009 82.012811,0.51965342 86.691239,1.1171456 c 3.346841,0.4274319 5.983812,1.7310935 8.252363,4.0797795 0.896087,0.9277372 1.274275,1.483514 1.905855,2.8008141 1.4858,3.0989668 2.04812,5.5036058 2.529342,10.8162708 0.580196,6.40541 0.678101,9.465352 0.595895,18.623933 -0.07801,8.689214 -0.213645,11.465048 -0.820669,16.795624 -0.430889,3.783759 -1.091492,6.154805 -2.464317,8.845029 -1.16152,2.276134 -2.899049,3.997721 -5.214295,5.166455 -2.253295,1.137459 -3.85563,1.450782 -8.987243,1.757364 -12.909762,0.771279 -30.382121,1.037755 -45.89488,0.699952 z m 3.457464,-21.606222 c 0.08193,-0.0755 1.066247,-0.62928 2.187375,-1.230617 2.192086,-1.175765 7.637079,-4.139963 11.44648,-6.231345 1.293609,-0.710197 3.304583,-1.808381 4.468832,-2.440408 1.164248,-0.632026 2.905806,-1.577562 3.870116,-2.101191 0.964311,-0.52363 2.264287,-1.224644 2.888811,-1.55781 0.793539,-0.423325 1.068285,-0.641404 0.912315,-0.724126 -0.122759,-0.0651 -1.810801,-0.947806 -3.751215,-1.961561 -3.918679,-2.04729 -15.745853,-8.233116 -19.752353,-10.330844 -1.420447,-0.743718 -2.602336,-1.352216 -2.626419,-1.352216 -0.02408,0 -0.04378,6.315164 -0.04378,14.033698 0,7.718534 0.05645,14.033698 0.125441,14.033698 0.06899,0 0.192473,-0.06178 0.274402,-0.137278 z"
       id="path837" />
  </g>
</svg>
